<?xml version="1.0" encoding="UTF-8" standalone="no"?>
<!-- Created with Inkscape (http://www.inkscape.org/) -->

<svg
   xmlns:dc="http://purl.org/dc/elements/1.1/"
   xmlns:cc="http://creativecommons.org/ns#"
   xmlns:rdf="http://www.w3.org/1999/02/22-rdf-syntax-ns#"
   xmlns:svg="http://www.w3.org/2000/svg"
   xmlns="http://www.w3.org/2000/svg"
   xmlns:sodipodi="http://sodipodi.sourceforge.net/DTD/sodipodi-0.dtd"
   xmlns:inkscape="http://www.inkscape.org/namespaces/inkscape"
   width="119.47041mm"
   height="176.43396mm"
   viewBox="0 0 423.32035 625.1597"
   id="svg4230"
   version="1.1"
   inkscape:version="0.91 r13725"
   sodipodi:docname="pb02.svg">
  <defs
     id="defs4232" />
  <sodipodi:namedview
     id="base"
     pagecolor="#ffffff"
     bordercolor="#666666"
     borderopacity="1.0"
     inkscape:pageopacity="0.0"
     inkscape:pageshadow="2"
     inkscape:zoom="0.8589805"
     inkscape:cx="211.66018"
     inkscape:cy="312.57985"
     inkscape:document-units="px"
     inkscape:current-layer="layer1"
     showgrid="false"
     fit-margin-top="0"
     fit-margin-left="0"
     fit-margin-right="0"
     fit-margin-bottom="0"
     inkscape:window-width="1366"
     inkscape:window-height="706"
     inkscape:window-x="-8"
     inkscape:window-y="-8"
     inkscape:window-maximized="1"
     inkscape:snap-nodes="false"
     inkscape:snap-others="false"
     inkscape:snap-grids="false"
     inkscape:snap-to-guides="false" />
  <metadata
     id="metadata4235">
    <rdf:RDF>
      <cc:Work
         rdf:about="">
        <dc:format>image/svg+xml</dc:format>
        <dc:type
           rdf:resource="http://purl.org/dc/dcmitype/StillImage" />
        <dc:title></dc:title>
      </cc:Work>
    </rdf:RDF>
  </metadata>
  <g
     inkscape:label="Layer 1"
     inkscape:groupmode="layer"
     id="layer1"
     transform="translate(253.55154,-255.78097)">
    <g
       id="g3353"
       transform="matrix(0.79891704,0,0,0.82420319,-392.34705,192.36767)">
      <path
         style="fill:#000000;fill-opacity:0.97633134"
         d="m 258.76368,508.61023 c -12.67448,-11.43808 -14.99901,-8.94865 -27.62696,-17.60881 -13.27226,-8.87186 -8.04492,-6.42093 -19.56632,-18.62299 -12.87722,-14.41585 -8.36242,-5.66809 -23.22699,-29.83611 -6.6647,-22.87561 -10.81151,-24.28838 -14.61385,-44.78462 8.82312,-19.76587 18.70061,-11.07197 33.66122,-19.13171 13.65114,-7.35428 43.06635,-3.45104 50.8229,3.06868 2.74293,2.30556 7.96805,13.96472 14.92053,32.41371 6.1995,16.45087 10.47015,24.77205 10.37905,37.09984 -0.0988,13.37233 -8.48789,34.62576 -15.73422,54.0477 -2.34169,6.27628 4.09906,17.44665 3.07609,26.86107 -0.2648,2.43692 4.50079,42.18498 2.91377,43.35877 -0.48351,0.35762 -1.10356,24.96385 -2.96448,34.27402 -1.00387,5.02232 -4.853,26.72663 -7.58199,42.99591 -1.14456,6.82343 20.01666,-1.56776 18.71429,6.27333 -0.99205,5.97283 -16.23592,5.03392 -17.74973,11.46114 -1.20677,5.12356 16.19312,6.09376 15.00758,11.47547 -1.40702,6.38712 -17.58813,1.35494 -18.93245,7.83165 -1.27972,6.16546 18.1922,6.53491 17.00079,12.51851 -1.18018,5.92716 -18.3743,4.97139 -19.43784,10.46954 -1.23075,6.36262 15.38243,4.66218 14.351,10.09005 -0.73489,3.86733 -14.18573,4.50871 -16.89701,10.61925 -2.07161,4.66887 14.48687,3.4739 11.90667,8.5046 -2.16422,4.21967 -13.28698,3.13375 -15.44747,7.07692 -2.63168,4.80313 12.7066,4.69979 12.22528,8.97086 -0.6726,5.96853 -12.66602,5.52033 -17.6362,11.36357 -2.32807,2.737 13.40284,3.16201 11.88259,7.42764 -1.20559,3.38275 -16.01187,5.99655 -17.34576,9.70281 -1.20602,3.35095 14.45259,3.44355 13.16741,6.96297 -1.46134,4.0018 -14.8032,7.60227 -16.33316,11.69596 -1.41088,3.77507 12.37598,6.11843 10.93607,9.86214 -0.95952,2.49473 -15.87338,7.37467 -16.83538,9.81659 -1.56569,3.97435 14.62669,4.4928 13.08343,8.21908 -9.26011,1.32099 -2.74823,0.32379 -12.91024,0.56824 0.62658,-2.63605 -10.97222,-6.34226 -10.28071,-9.18287 3.95049,-7.14269 14.68561,-6.65789 15.29264,-9.11547 0.66906,-2.70872 -11.32262,-8.37222 -10.61273,-11.21184 0.65979,-2.63925 12.32756,-6.77326 13.01731,-9.50984 0.64146,-2.54495 -9.69695,-5.12871 -9.03386,-7.74518 0.79299,-3.12904 14.7055,-6.78562 15.52298,-9.99778 -4.75997,-3.37227 -9.93421,-3.88938 -8.76114,-8.27448 0.65389,-2.56464 13.99504,-7.06895 14.65624,-9.66173 0.79419,-3.11425 -16.16342,-5.28363 -13.25029,-9.86478 1.20478,-4.73089 12.98301,-2.45157 15.26086,-7.14483 2.90932,-5.99432 -14.95541,0.11692 -12.62462,-7.7523 1.17687,-3.97334 16.30184,-9.38085 17.43913,-13.25933 0.84927,-2.89626 -13.64613,-1.28194 -13.59237,-8.99173 0.0178,-2.54191 18.2222,-7.96243 18.83317,-10.15543 1.47417,-5.29122 -14.99821,-9.65436 -14.02283,-13.77742 1.28959,-5.45129 11.80354,-3.96304 12.91875,-8.93232 0.72057,-3.21084 -12.55083,-5.34607 -11.918,-8.31136 0.60771,-2.84761 10.8957,-5.57397 11.41188,-8.16369 1.59758,-8.01511 -9.52806,-2.70201 -9.43367,-9.08476 0.14214,-9.6125 2.99334,-20.36383 3.26672,-23.13994 1.08733,-11.04155 6.3402,-29.35947 6.32217,-43.1132 -0.006,-4.97772 1.94077,-12.86464 2.21837,-22.1756 0.40188,-13.47984 -0.84261,-28.36369 -1.08417,-28.50733 -1.50609,-0.89557 -3.57947,-26.91222 -4.75445,-27.97257 z"
         id="path3360"
         inkscape:connector-curvature="0"
         sodipodi:nodetypes="sccccssssssssssssssssssssssssssscccssssccscssscssssssscsss" />
    </g>
    <path
       inkscape:connector-curvature="0"
       style="fill:#000000;fill-opacity:0.97633134"
       d="m -19.206108,548.40164 c -4.224011,-2.03344 -0.207188,-9.68 4.552823,-14.77583 5.0169723,-5.37095 12.7401766,-11.6977 18.3768019,-17.60179 7.0451291,-5.29568 12.8437591,-11.19887 18.9675711,-13.73524 0,0 7.853426,-0.56509 18.311921,0.85191 7.560256,3.14337 11.197208,6.05368 17.632247,12.7307 5.164699,5.35889 8.932482,9.20141 8.932482,9.20141 2.195756,3.80643 11.095302,9.73944 9.039861,14.03394 -6.730678,-0.46298 -12.59468,-2.77004 -16.818143,-6.1624 -4.344836,-3.48988 -2.500516,-1.61945 -10.238915,-7.61223 -5.252451,-4.06761 -4.925697,-3.95604 -9.080173,-4.95633 -4.415816,-1.06318 -0.602592,-1.16774 -9.779226,-0.42453 -4.404181,0.35668 -3.447945,0.49387 -6.851045,1.77253 -4.835533,1.81684 -7.443948,3.72829 -12.113166,7.20444 -4.3045289,3.20466 -6.9555111,4.04701 -13.2012212,9.24108 -7.6195674,6.33661 -12.0552698,9.17029 -17.7318178,10.23234 z"
       id="path3358" />
    <path
       style="fill:#000000;fill-opacity:1;fill-rule:evenodd;stroke:#000000;stroke-width:0.82987559px;stroke-linecap:butt;stroke-linejoin:miter;stroke-opacity:1"
       d="m -61.193405,409.42458 c 6.052988,-6.52648 11.575776,-10.24092 17.312959,-13.84183 4.315535,-1.13802 11.776417,-1.97978 15.580369,-2.44976 6.095431,-1.42704 10.439745,1.376 15.715798,2.38114 3.041214,0.52403 5.287932,3.23189 6.703966,6.07228 1.416034,2.84037 -0.463191,6.38712 -4.11441,5.99695 -7.520275,-0.13259 -15.237749,-3.32278 -21.931947,-2.93928 -4.220754,-0.0983 -7.372159,0.0924 -13.883525,3.13188 -7.032113,3.75898 -5.4601,3.48466 -10.26581,8.40397 -3.997559,3.9559 -11.731863,11.90303 -15.250268,12.38762 -0.695018,-4.43803 4.606627,-10.08352 10.132868,-19.14297 z"
       id="path3381"
       inkscape:connector-curvature="0"
       sodipodi:nodetypes="cccczcccccc" />
    <path
       style="fill:#000000;fill-opacity:1;fill-rule:evenodd;stroke:#000000;stroke-width:0.93810856px;stroke-linecap:butt;stroke-linejoin:miter;stroke-opacity:1"
       d="m 43.982044,392.04834 c 2.584187,-3.55285 3.797344,-3.64255 5.519866,-4.59143 2.139461,-1.1785 2.677557,-1.67762 4.470798,-2.11913 2.509374,-0.61779 4.431502,-1.38499 7.358974,-1.25228 2.677824,0.12139 4.827788,0.82904 8.129652,2.61348 3.301893,1.78441 5.048558,3.13911 6.167604,8.24164 -2.385086,0.13162 -3.760137,-1.18752 -5.890717,-1.85933 -2.155281,-0.67959 -3.907302,-1.16861 -6.453987,-0.97086 -2.822857,0.21916 -5.297309,0.6512 -7.831558,2.09519 -2.373844,1.35262 -5.351221,3.57652 -7.829632,4.44962 -4.031781,1.02741 -4.624635,-1.54764 -3.641,-6.6069 z"
       id="path4189"
       inkscape:connector-curvature="0"
       sodipodi:nodetypes="csssscssscc" />
    <path
       style="fill:#000000;fill-opacity:0.97633134"
       d="m -115.8903,424.25756 c -3.42352,-18.9219 -10.60854,-22.08248 -14.02148,-18.66279 0,0 -8.91478,2.03239 -12.84479,7.29215 -5.63291,7.53887 -7.57243,-14.12068 -8.29092,-55.49101 -0.61585,-35.45955 7.42933,-53.48311 33.81819,-75.76256 22.939456,-19.36721 58.62059,-27.86189 94.64302,-25.45328 30.868714,2.064 41.270332,11.47812 61.176748,21.35071 10.7399,5.32644 10.91323,1.40519 16.461183,9.74412 7.500052,11.27307 17.716452,24.43134 19.518571,41.50226 -14.590118,-6.83618 -15.674811,-13.35212 -22.789821,-20.67492 l -13.722432,-12.33981 -9.628743,7.04795 c -8.945537,11.22311 -32.2105523,4.46921 -53.672345,6.16129 -67.552762,5.32595 -71.567597,10.69785 -78.051271,66.86899 -3.83492,33.22359 -3.45316,43.58307 -1.23174,65.07097 0.55598,5.37794 1.38822,20.12859 -3.57408,22.63037 -4.48629,-18.8394 -7.79009,-39.28444 -7.79009,-39.28444 z"
       id="path4147"
       inkscape:connector-curvature="0" />
    <path
       style="fill:#000000;fill-opacity:0.97633134"
       d="m 103.23601,737.73918 c -3.403745,-8.77238 -5.785805,-20.12906 2.95902,-31.36231 3.92294,-5.03924 17.96184,-1.46533 26.08301,-2.64596 9.73875,-1.4158 13.6476,-9.58885 25.38015,-5.26439 10.20693,6.15461 12.47197,18.36061 12.06652,33.25407 -0.58418,21.45839 -11.6828,33.86643 -27.38218,42.45746 -24.31532,-9.17734 -32.81157,-20.21517 -39.10653,-36.43887 z"
       id="path3362"
       inkscape:connector-curvature="0" />
    <path
       style="fill:#000000;fill-opacity:0.97633134"
       d="m -15.324131,867.62772 c -1.352953,-7.32213 -2.467053,-26.0135 -2.475753,-41.5364 -0.0087,-15.52291 -2.789886,-46.43558 -6.180398,-68.69484 -3.579231,-23.49823 -5.135751,-49.208 -3.71142,-61.30326 2.173233,-18.45496 1.309023,-22.12453 -7.574031,-32.16032 l -10.027178,-11.32836 14.064435,-32.09283 c 0,0 15.450846,-2.8716 37.0597045,-1.21062 3.3661995,12.87912 7.6200465,26.98119 7.6200465,26.98119 l -9.1798649,10.92448 c -10.2036903,12.14291 -7.9654114,19.98679 1.7747807,37.85523 6.8536422,12.5731 28.1926072,112.22875 36.3808562,169.90314 l 2.268107,15.97555 -28.779687,0 -28.779681,0 z"
       id="path3364"
       inkscape:connector-curvature="0" />
  </g>
</svg>
