<?xml version="1.0" encoding="UTF-8" standalone="no"?>
<!-- Created with Inkscape (http://www.inkscape.org/) -->

<svg
   xmlns:dc="http://purl.org/dc/elements/1.1/"
   xmlns:cc="http://creativecommons.org/ns#"
   xmlns:rdf="http://www.w3.org/1999/02/22-rdf-syntax-ns#"
   xmlns:svg="http://www.w3.org/2000/svg"
   xmlns="http://www.w3.org/2000/svg"
   xmlns:sodipodi="http://sodipodi.sourceforge.net/DTD/sodipodi-0.dtd"
   xmlns:inkscape="http://www.inkscape.org/namespaces/inkscape"
   width="1010mm"
   height="1097mm"
   viewBox="0 0 1010 1097"
   version="1.1"
   id="svg41"
   inkscape:version="0.92.1 r15371"
   sodipodi:docname="FF2018_line_04_Fly_ballCol.svg">
  <defs
     id="defs35" />
  <sodipodi:namedview
     id="base"
     pagecolor="#000000"
     bordercolor="#666666"
     borderopacity="1.0"
     inkscape:pageopacity="1"
     inkscape:pageshadow="2"
     inkscape:zoom="0.19174804"
     inkscape:cx="1725.2285"
     inkscape:cy="1416.3185"
     inkscape:document-units="mm"
     inkscape:current-layer="layer1"
     showgrid="false"
     inkscape:snap-global="false"
     inkscape:window-width="1024"
     inkscape:window-height="745"
     inkscape:window-x="-8"
     inkscape:window-y="17"
     inkscape:window-maximized="1"
     inkscape:pagecheckerboard="false" />
  <metadata
     id="metadata38">
    <rdf:RDF>
      <cc:Work
         rdf:about="">
        <dc:format>image/svg+xml</dc:format>
        <dc:type
           rdf:resource="http://purl.org/dc/dcmitype/StillImage" />
        <dc:title></dc:title>
      </cc:Work>
    </rdf:RDF>
  </metadata>
  <g
     inkscape:groupmode="layer"
     id="layer2"
     inkscape:label="ball color">
    <path
       id="path4527-6"
       transform="translate(0,799.99999)"
       style="display:inline;opacity:1;fill:#fa8320;stroke:#ffffff;stroke-width:4;stroke-miterlimit:4;stroke-dasharray:none;stroke-opacity:1;fill-opacity:1"
       d="m 349.66203,-243.81527 c -2.6296,-3.80406 -11.17098,0.30454 -16.63999,2.20588 -2.96291,1.0301 -12.86132,4.79703 -14.57541,2.89782 -1.69651,-1.71251 2.31762,-4.02625 6.61209,-7.01277 5.58878,-3.88659 16.57135,-8.91705 14.92526,-11.53582 -2.62012,-4.16834 -12.54998,1.76132 -20.84413,6.2045 -11.3191,6.06364 -13.92467,8.80149 -17.50973,6.28433 -1.33886,-4.64752 0.35692,-5.11717 6.26875,-13.51661 3.84238,-5.45919 7.53214,-8.06821 5.47373,-9.98278 -3.81122,-3.54484 -10.16562,3.09057 -13.63698,6.53651 -3.98893,3.9597 -6.86479,8.32703 -10.93419,9.99701 -2.74892,-1.56941 -1.27377,-7.84127 -0.96381,-11.9589 0.51626,-6.85846 2.64335,-17.04384 -2.25876,-16.94644 -4.88582,0.0971 -3.70982,2.89315 -7.18452,13.24467 -2.91438,8.68232 -3.8314,8.72147 -5.53259,9.61009 -1.70985,-0.13602 -10.80153,-11.55196 -10.80153,-11.55196 -6.73506,-19.58251 -2.00736,-25.86957 -0.45684,-33.41552 1.55054,-7.54596 4.38811,-14.98788 9.34532,-21.43889 4.95717,-6.45104 9.79065,-11.40057 17.57636,-16.00427 7.78569,-4.6037 15.29553,-8.86159 25.33157,-10.86559 10.03604,-2.00397 20.1197,-2.07838 29.76742,-0.95578 9.64773,1.12263 15.13902,4.46353 23.4313,8.26892 8.29226,3.80539 15.3846,8.8412 21.35427,14.88554 5.96967,6.04434 7.86897,12.33123 10.5489,20.17069 2.6799,7.83946 2.3124,23.69651 0.3085,30.53941 -2.60444,8.89357 -8.67282,19.72414 -15.87239,24.73734 -6.43345,4.47973 -16.76724,14.35252 -37.24388,15.06234 3.6083,-1.72928 5.14274,-3.09961 3.51128,-5.45972 z"
       inkscape:connector-curvature="0"
       sodipodi:nodetypes="cccccscscccccccccccccssccscc" />
  </g>
  <g
     inkscape:label="Layer 1"
     inkscape:groupmode="layer"
     id="layer1"
     transform="translate(0,800)"
     style="display:inline">
    <path
       style="display:inline;opacity:1;fill:none;fill-opacity:1;stroke:#ffffff;stroke-width:4;stroke-miterlimit:4;stroke-dasharray:none;stroke-opacity:1"
       d="m 343.54782,-351.25824 c 3.8982,-6.92263 0.62844,-12.9972 3.55714,-18.21434 1.49279,-2.65927 3.33291,-7.75248 3.55056,-9.6134 0.49542,-4.23593 6.02664,-12.10201 7.89268,-12.96131 3.67779,-1.6936 7.19502,-8.13892 9.09943,-11.4988 2.61415,-4.61207 19.70874,-9.94008 23.94396,-11.06643 5.48831,-1.45959 9.23231,-2.68147 14.66011,-2.73407 6.15163,-0.0596 18.21657,0.0796 22.07037,3.68884 2.235,2.09318 10.55327,6.89925 11.26766,9.67673 0.5349,2.07963 1.94457,2.96246 3.36545,4.71677 4.44873,5.49271 3.53783,10.51834 5.95332,14.77523 4.57551,8.06361 5.40821,11.33737 5.22952,21.67779 -0.10136,5.86203 -0.96615,11.01915 -1.41549,11.79709 -1.7836,3.08807 -1.87707,6.17515 -5.10264,7.53314 -5.8134,2.44749 -6.58871,4.34607 -4.67433,11.7267 1.94101,7.48321 4.86982,9.11094 15.47601,10.4481 10.3879,1.30966 11.6845,-1.50467 18.13231,0.54424 8.43449,0.57456 18.03809,2.97083 26.08119,3.14254 3.31385,0 6.36432,0.50753 6.77884,1.12783 14.80665,-0.91551 21.18481,7.56959 29.52219,13.07806 7.51568,4.96556 9.54427,3.14319 13.86298,8.47328 0.91423,1.17316 19.71186,8.2606 20.86561,8.2606 -1.92369,6.49678 4.9055,2.59153 18.70811,9.83213 8.18118,4.46441 18.04429,3.11873 23.51559,-8.33132 4.27049,-8.93702 7.64986,-19.54359 6.93201,-22.32825 -0.36131,-1.40158 -1.28646,-7.88872 -1.80642,-10.63987 -0.56588,-2.99415 0.2973,-5.48524 -1.29631,-6.67875 -1.69654,-1.27057 -5.69361,-4.26685 -6.46554,-8.07366 -0.66626,-3.2857 -1.25286,-7.0591 -1.98502,-10.13943 -0.71378,-3.00284 -0.87615,-9.12424 -1.40656,-10.86579 -0.43164,-1.41734 -0.32749,-2.80321 -1.59463,-9.11569 -0.24919,-1.24146 0.82545,-4.69939 3.31094,-4.07604 4.9038,1.22985 4.19399,3.02143 5.93461,7.84453 0.95948,2.65867 1.55557,7.89111 2.24967,8.33103 3.34255,2.11844 6.12008,-11.77508 2.52632,-22.9621 -1.944,-6.05153 -1.00059,-9.06515 1.61795,-10.58351 4.6263,0.52186 5.56699,6.45518 6.64969,10.10828 0.97713,3.14603 1.34694,14.71724 3.74044,14.56837 1.97079,-0.12261 4.15906,-3.70983 3.07239,-13.08374 -0.2916,-2.51542 -0.63224,-3.48058 -1.8743,-6.11687 -1.98788,-4.21924 -1.6692,-7.0911 1.24182,-7.0911 2.28242,0 3.94363,0.75581 5.97506,4.7086 1.51423,2.94641 1.55621,2.84315 2.7797,7.29578 0.83528,3.03975 -0.30743,15.20715 1.42144,14.67414 1.94547,-0.59977 3.13265,-6.01383 3.03018,-11.3222 -0.0903,-4.6782 -3.08428,-11.35003 -0.74152,-11.79193 5.7733,-1.089 7.28888,2.50938 8.89163,15.17211 0.79962,6.31761 -3.10895,15.95043 -1.27672,17.5887 2.3997,2.14567 4.56385,-7.51081 5.54969,-12.5089 1.25093,-6.34204 3.51893,-5.39762 4.11498,-4.51431 4.50915,6.68227 -2.1515,32.54476 -9.44468,43.70954 -3.62367,5.54733 -5.59515,9.73877 -5.96823,18.9844 -0.63885,15.83194 -3.38349,26.48911 -5.87754,35.52654 -2.24462,9.62362 -3.12445,12.34612 -6.12608,20.16989 -4.16436,10.90625 -5.18378,14.31306 -13.47101,17.63056 -9.89241,3.96006 -22.21146,2.81014 -37.25325,-3.47742 -2.86835,-1.19897 -5.85541,-2.17996 -6.63787,-2.17996 -0.78249,0 -5.45732,-1.81914 -10.3885,-4.04252 -7.20816,-3.25006 -9.31335,-3.7757 -10.73893,-2.68147 -0.97524,0.74857 -1.77315,2.03024 -1.77315,2.84813 0,2.48496 -1.66431,2.66888 -7.97868,0.8818 -11.3221,-3.20433 -16.08467,-4.78163 -19.95338,-7.67089 -7.68423,-3.09147 -9.68943,-5.85934 -13.27553,-2.12302 -0.64708,11.56731 0.0532,27.52289 2.3093,27.96035 1.57533,1.52392 0.99419,10.2183 2.19498,9.72593 1.31339,0.89931 -0.96997,11.94206 -0.97555,13.82531 0,5.58273 0.54875,10.46409 1.21943,10.84747 3.8745,6.65763 -1.14354,13.60786 -1.21943,19.2396 -1.66919,18.97537 -7.85522,19.79012 0.67756,35.58263 1.94068,3.92061 5.39442,7.9287 5.04022,10.48958 -0.5082,3.67417 -8.18253,2.16192 -8.46866,9.6527 -0.12168,3.18669 5.19746,9.09049 2.26066,13.037492 -3.18292,4.277751 -9.26414,7.470071 -9.38853,10.172195 8.54057,6.734231 9.50733,23.343511 9.50733,23.343511 0,0 8.54382,8.169212 8.78406,8.974342 1.07022,3.586785 4.95906,7.1629 6.06682,11.22921 1.50501,5.524545 3.75601,12.28431 1.83676,17.780094 -0.80491,2.304862 -3.03289,6.552475 -2.43098,6.896538 3.69854,4.969492 9.19266,13.2026371 8.98229,18.3369971 -0.27311,5.7355134 1.46281,12.1099339 7.44807,27.3498019 2.07075,5.272596 4.62535,13.139176 5.67686,17.481313 6.25098,7.853329 0.61568,22.185627 6.81652,28.541912 1.01125,0.935278 1.48823,6.56463 1.52426,17.988847 0.0522,16.535037 -1.55526,22.983897 -5.39592,29.713237 -8.37127,11.42547 -16.57863,13.61944 -28.74385,17.13353 -7.26669,2.06954 -27.57034,1.06093 -33.48591,0.9193 -5.0371,-0.12069 -31.77772,-1.67637 -33.26348,-5.01114 -0.39304,-1.08928 -6.58433,-2.83778 -18.56214,-5.24143 -17.5902,-3.72239 -30.87249,-7.86948 -46.33818,-11.8309 -4.0241,-1.02505 -15.32402,-4.12704 -17.72991,-4.92954 -6.21065,6.0028 -4.35116,12.42487 -10.25453,12.84515 -2.16005,0 -16.6888,-7.18822 -16.6888,-7.18822 0,0 -3.51328,3.76226 -9.03672,4.7918 -2.64305,1.22255 -12.7048,4.04617 -12.74874,4.78681 -3.16441,1.18964 -6.75027,3.69807 -8.84086,3.79692 -2.6584,0.0654 -7.01168,4.18066 -7.01168,6.62826 0,1.55992 -4.70585,6.95251 -6.23255,6.95251 -2.13987,1.53086 -9.54599,11.88361 -9.61999,13.11416 0,4.12549 -4.5465,9.32692 -10.24448,11.72029 -5.35338,2.24863 -7.82618,2.39284 -16.87144,0.98415 -8.7971,-1.36999 -10.34882,-3.56751 -11.91968,-16.8804 -0.56847,-4.81774 -0.28535,-10.0372 0.82594,-15.22562 2.70884,-12.64746 3.30288,-13.70252 14.00214,-24.86977 3.11764,-3.25402 6.68447,-7.01503 7.92627,-8.35781 4.73694,-5.122161 13.95798,-13.577246 14.80726,-13.577246 1.6369,0 3.9279,-4.369586 2.66845,-5.089486 -2.97541,-3.853878 -4.21603,-12.213535 -4.49323,-16.427374 -0.5577,-8.939321 -0.24626,-11.965567 1.85411,-18.016016 1.38841,-3.999537 3.71106,-10.73381 5.1614,-14.965009 2.64734,-7.723311 4.68222,-20.30055 5.32429,-32.9086806 -2.40892,-6.5252627 4.25416,-15.4202464 4.37265,-19.8857334 1.63352,-6.94763 7.1486,-8.113129 9.9637,-10.066292 3.18898,-2.212554 6.44661,-2.023184 9.18473,-2.362858 5.47005,-0.678576 12.84249,-0.359789 10.8432,-1.565688 -1.28767,-0.77667 -7.13788,-6.407893 -11.11473,-14.052061 -3.76342,-7.233954 -4.21215,-8.412039 -6.22888,-16.353481 -2.2044,-8.68038 -2.44023,-31.621056 -0.349,-33.95154 3.42945,-5.623415 1.61155,-10.988925 7.94846,-15.769275 5.17198,-0.8974 5.67685,-1.62126 3.80229,-5.45175 -1.23706,-2.52779 -4.91653,-3.88185 -8.09112,-3.55818 -8.2562,-3.07277 -4.54936,-7.63814 -3.64963,-10.87161 0.89646,-3.19598 2.83347,-5.33382 8.17513,-9.02262 3.85016,-2.65882 8.08712,-5.39039 9.41547,-6.07017 4.24991,-2.17489 7.9719,-9.50722 7.70415,-15.17727 -0.0681,-4.63554 3.97352,-20.54469 0.48623,-21.36897 -3.34133,-1.99582 -10.98076,-10.80426 -11.09405,-12.11998 -2.3882,-4.11038 -6.15749,-10.87383 -6.2657,-15.96731 0,-2.38096 -1.97335,3.36643 -3.82686,3.36643 -1.7147,0 -4.42341,-1.59348 -4.42695,0.1906 -0.60233,5.83649 -3.82065,9.70487 -4.06373,15.53893 -0.002,1.56799 -13.156,25.67619 -14.49737,26.73843 l -6.59284,4.25615 c -5.88969,1.33525 -12.93428,0.28843 -17.27594,-1.90837 -9.58523,-5.26001 -11.22936,-21.31181 -14.13386,-31.15902 -1.18888,-4.39125 -2.78743,-16.00174 -0.21454,-21.61782 1.24589,-2.71962 1.65112,-10.70873 1.42033,-21.46489 -4.30758,-9.27439 -4.66107,-14.14478 -7.69852,-16.87362 -4.81775,-4.32822 -7.46703,-13.83369 -1.16055,-15.82015 M 435.40683,68.017705 c -0.39453,-1.705645 4.90273,-0.395756 5.25558,-2.108974 0.69533,-3.376053 -5.33284,-4.859974 -7.99928,-7.28995 -8.37337,-7.213088 -14.50101,-17.156202 -18.97412,-21.818674 -5.29502,-5.423719 -11.6926,-20.618756 -17.70709,-19.751864 -2.78675,0.66926 -9.0304,0.834494 -9.12028,3.808359 1.21159,3.920695 9.13804,1.166059 6.09835,5.721853 -1.24308,1.84059 -4.23999,3.172743 -8.18308,3.172743 -7.66521,-0.506995 -1.9539,3.345464 -7.01321,3.383497 -3.22964,2.899476 -6.2596,5.714647 -6.52754,7.612824 -0.45298,2.469344 -3.56207,7.73426 -4.09309,7.494358 -1.34168,2.711762 -7.48489,14.20514 -4.89213,15.10232 1.67733,0.389368 -0.89013,4.754824 0.57308,7.748781 6.6057,2.701221 15.40152,-0.906388 22.20849,-0.740014 5.36548,0.310139 17.71217,0.386119 27.43709,0.16887 5.16925,2.303464 29.34823,-5.076622 22.93723,-2.504064 z"
       id="path3347"
       inkscape:connector-curvature="0"
       sodipodi:nodetypes="cssssssssssssssscccscccssssssssssssccsssssssssssssssccsssssssccccccccsssccsssccsccsccscccccccccsccsssssssccssccsssssccsccssccccscccccccccccscccccccccccccc" />
    <path
       style="display:inline;opacity:1;fill:none;stroke:#ffffff;stroke-width:4;stroke-linecap:butt;stroke-linejoin:miter;stroke-miterlimit:4;stroke-dasharray:none;stroke-opacity:1"
       d="m 416.79817,-112.95535 30.28543,7.65946 32.52879,13.787056 21.87281,10.723247 9.5343,7.148832 8.97348,8.170115 10.37554,9.701986 6.16927,10.212616 1.68252,10.723248 v 6.893526 l -3.64547,6.382897 -6.73009,8.680724 -7.85177,5.872265 -12.89937,9.1913549 -16.82522,3.5744158 -25.23786,2.8084803 -19.62946,1.531893 -36.45467,3.063784 -11.67408,3.626475"
       id="path4537"
       inkscape:connector-curvature="0"
       sodipodi:nodetypes="ccccccccccccccccccc" />
    <path
       style="display:inline;opacity:1;fill:none;stroke:#ffffff;stroke-width:4;stroke-linecap:butt;stroke-linejoin:miter;stroke-miterlimit:4;stroke-dasharray:none;stroke-opacity:1"
       d="m 362.11615,70.361246 1.12168,10.723269 -3.92588,9.191355 -5.328,9.446681 -3.92589,5.106309 -4.76716,3.57442 -8.41261,1.53189 -7.57134,-1.53189 -8.41264,-3.82975 -5.04756,-5.616936 -4.76714,-5.872243 -3.92591,-4.595699 -3.64547,-3.063785"
       id="path4539"
       inkscape:connector-curvature="0" />
    <path
       style="display:inline;opacity:1;fill:none;stroke:#ffffff;stroke-width:4;stroke-linecap:butt;stroke-linejoin:miter;stroke-miterlimit:4;stroke-dasharray:none;stroke-opacity:1"
       d="m 345.23375,-31.207199 11.83483,0.974108 7.29093,5.106308 7.29094,7.914767 14.02104,-8.170093 7.29093,-5.106309 8.97345,-7.659462 10.93641,-4.851004 10.37557,-1.531892 9.81473,-0.510631 11.21681,0.510631 9.25389,2.553154 10.37556,4.340373"
       id="path4541"
       inkscape:connector-curvature="0"
       sodipodi:nodetypes="ccccccccccccc" />
    <path
       style="display:inline;opacity:1;fill:none;fill-opacity:0.97633134;fill-rule:nonzero;stroke:#ffffff;stroke-width:4;stroke-miterlimit:4;stroke-dasharray:none;stroke-dashoffset:11.11999989;stroke-opacity:1"
       d="m 262.06973,-269.53001 c -6.74914,-19.44276 -2.02144,-25.72982 -0.47092,-33.27576 1.55054,-7.54597 4.38811,-14.98788 9.34532,-21.4389 4.95717,-6.45103 9.79065,-11.40056 17.57636,-16.00426 7.78569,-4.6037 15.29553,-8.86159 25.33157,-10.86559 10.03604,-2.00397 20.1197,-2.07838 29.76742,-0.95578 9.64773,1.12263 15.13902,4.46353 23.4313,8.26892 8.29226,3.80539 15.3846,8.8412 21.35427,14.88554 5.96967,6.04434 7.86897,12.33123 10.5489,20.17069 2.6799,7.83945 2.3124,23.6965 0.3085,30.53941 -2.60444,8.89356 -8.67282,19.72413 -15.87239,24.73734 -6.43345,4.47972 -16.76724,14.35251 -37.15577,15.19768"
       id="path4163"
       inkscape:connector-curvature="0"
       sodipodi:nodetypes="cssssssssssc" />
    <path
       style="display:inline;opacity:1;fill:none;stroke:#ffffff;stroke-width:4;stroke-miterlimit:4;stroke-dasharray:none;stroke-opacity:1"
       d="m 262.15807,-269.04975 c 0,0 9.10577,11.27617 10.81562,11.41219 1.70119,-0.88862 2.61821,-0.92777 5.53259,-9.61009 3.4747,-10.35152 2.2987,-13.14752 7.18452,-13.24467 4.90211,-0.0974 2.77502,10.08798 2.25876,16.94644 -0.30996,4.11763 -1.78511,10.38949 0.96381,11.9589 4.0694,-1.66998 6.94526,-6.03731 10.93419,-9.99701 3.47136,-3.44594 9.82576,-10.08135 13.63698,-6.53651 2.05841,1.91457 -1.63135,4.52359 -5.47373,9.98278 -5.91183,8.39944 -7.60761,8.86909 -6.26875,13.51661 3.58506,2.51716 6.19063,-0.22069 17.50973,-6.28433 8.29415,-4.44318 18.22401,-10.37284 20.84413,-6.2045 1.64609,2.61877 -9.33648,7.64923 -14.92526,11.53582 -4.29447,2.98652 -8.3086,5.30026 -6.61209,7.01277 1.71409,1.89921 11.6125,-1.86772 14.57541,-2.89782 5.46901,-1.90134 14.01039,-6.00994 16.63999,-2.20588 2.90119,4.19693 -4.20906,5.2639 -15.68519,10.02436 -4.22222,1.75142 -10.88736,2.83651 -18.37846,4.46902 -6.03972,3.36161 -12.14638,2.23772 -12.34443,8.6104 5.0367,10.74854 5.30735,10.74228 8.95942,18.8738"
       id="path4527"
       inkscape:connector-curvature="0"
       sodipodi:nodetypes="ccssscssscssscsssccc" />
    <flowRoot
       xml:space="preserve"
       id="flowRoot89"
       style="font-style:normal;font-weight:normal;font-size:40px;line-height:1.25;font-family:sans-serif;letter-spacing:0px;word-spacing:0px;fill:#000000;fill-opacity:1;stroke:#ffffff;stroke-width:6.705791;stroke-miterlimit:4;stroke-dasharray:none;stroke-opacity:1"
       transform="matrix(0.62513854,0,0,0.5691722,210.07867,-442.54732)"><flowRegion
         style="stroke:#ffffff;stroke-width:6.705791;stroke-miterlimit:4;stroke-dasharray:none;stroke-opacity:1"
         id="flowRegion91"><rect
           style="stroke:#ffffff;stroke-width:6.705791;stroke-miterlimit:4;stroke-dasharray:none;stroke-opacity:1"
           id="rect93"
           width="107.07617"
           height="111.11678"
           x="864.69055"
           y="480.06265" /></flowRegion><flowPara
         id="flowPara95" /></flowRoot>  </g>
</svg>
