<?xml version="1.0" encoding="UTF-8" standalone="no"?>
<!-- Created with Inkscape (http://www.inkscape.org/) -->

<svg
   width="297mm"
   height="210mm"
   viewBox="0 0 297 210"
   version="1.1"
   id="svg1"
   inkscape:version="1.3 (0e150ed6c4, 2023-07-21)"
   sodipodi:docname="202311_02_New_Braid components.svg"
   xmlns:inkscape="http://www.inkscape.org/namespaces/inkscape"
   xmlns:sodipodi="http://sodipodi.sourceforge.net/DTD/sodipodi-0.dtd"
   xmlns:xlink="http://www.w3.org/1999/xlink"
   xmlns="http://www.w3.org/2000/svg"
   xmlns:svg="http://www.w3.org/2000/svg">
  <sodipodi:namedview
     id="namedview1"
     pagecolor="#ffffff"
     bordercolor="#666666"
     borderopacity="1.0"
     inkscape:showpageshadow="2"
     inkscape:pageopacity="0.0"
     inkscape:pagecheckerboard="0"
     inkscape:deskcolor="#d1d1d1"
     inkscape:document-units="mm"
     inkscape:zoom="1.4142136"
     inkscape:cx="176.7767"
     inkscape:cy="459.26586"
     inkscape:window-width="1920"
     inkscape:window-height="986"
     inkscape:window-x="-11"
     inkscape:window-y="-11"
     inkscape:window-maximized="1"
     inkscape:current-layer="svg1"
     showgrid="false"
     showguides="true">
    <inkscape:grid
       id="grid1"
       units="px"
       originx="0"
       originy="0"
       spacingx="0.26458334"
       spacingy="0.26458333"
       empcolor="#0099e5"
       empopacity="0.30196078"
       color="#0099e5"
       opacity="0.14901961"
       empspacing="5"
       dotted="false"
       gridanglex="30"
       gridanglez="30"
       visible="false" />
    <sodipodi:guide
       position="33.607251,121.88755"
       orientation="0,-1"
       id="guide7"
       inkscape:locked="false" />
    <sodipodi:guide
       position="32.699814,121.87514"
       orientation="1,0"
       id="guide8"
       inkscape:locked="false" />
    <sodipodi:guide
       position="185.24968,121.89168"
       orientation="1,0"
       id="guide9"
       inkscape:locked="false" />
    <sodipodi:guide
       position="83.628637,120.38453"
       orientation="1,0"
       id="guide10"
       inkscape:locked="false" />
    <sodipodi:guide
       position="134.51675,132.73238"
       orientation="1,0"
       id="guide11"
       inkscape:locked="false" />
  </sodipodi:namedview>
  <defs
     id="defs1" />
  <path
     style="color:#000000;display:none;fill:#ffffff;stroke:#a7a7a7;stroke-width:0.3;stroke-dasharray:none;stroke-opacity:1"
     d="m 237.7563,88.383853 c -11.89678,-0.81112 -22.43417,5.53691 -31.95508,14.082097 -9.43594,8.46686 -18.24801,19.04171 -26.43359,26.38281 -8.10558,7.26799 -15.19649,10.67733 -20.9082,10.28125 -5.74184,-0.39747 -13.45805,-5.08835 -21.75781,-13.0625 C 128.3193,118.01405 119.49293,107.42519 109.8188,99.51282 100.0637,91.535583 88.834717,86.548433 77.125602,88.956123 h -0.002 C 65.468998,91.352753 56.033222,99.62919 46.877555,108.85267 l 10.644531,10.5664 c 8.467796,-8.5305 16.654316,-14.54214 22.623047,-15.76953 5.914267,-1.21611 12.309499,1.04042 20.177577,7.47461 7.94926,6.50162 16.74526,16.88125 25.98633,25.75977 9.32362,8.95784 19.23093,16.38645 31.11328,17.20898 11.90974,0.82588 22.44345,-5.54349 31.96093,-14.07812 9.43641,-8.46289 18.24751,-19.03765 26.43555,-26.38477 h 0.002 c 8.10108,-7.27083 15.18687,-10.66977 20.91407,-10.2793 5.72827,0.39049 13.44836,5.08872 21.75195,13.0625 8.38169,8.04878 17.20723,18.6341 26.87891,26.55079 9.76,7.98787 20.98996,12.95262 32.6875,10.56054 11.66776,-2.38598 21.10298,-10.67608 30.25586,-19.89648 L 337.6626,123.06165 c -8.4691,8.53159 -16.65901,14.54957 -22.61523,15.76758 -5.92645,1.21192 -12.31767,-1.03655 -20.18164,-7.47266 -7.95231,-6.5093 -16.74794,-16.88846 -25.99024,-25.76367 -9.32039,-8.950207 -19.22343,-16.398127 -31.11914,-17.209047 z"
     id="path7" />
  <path
     style="color:#000000;display:none;fill:#ffffff;stroke:#a7a7a7;stroke-width:0.3;stroke-dasharray:none;stroke-opacity:1"
     d="m 288.62217,88.383853 c -11.89678,-0.81112 -22.43417,5.53691 -31.95508,14.082097 -9.43594,8.46686 -18.24801,19.04171 -26.43359,26.38281 -8.10558,7.26799 -15.19649,10.67733 -20.9082,10.28125 -5.74184,-0.39747 -13.45805,-5.08835 -21.75781,-13.0625 -8.38232,-8.05346 -17.20869,-18.64232 -26.88282,-26.55469 -9.7551,-7.977237 -20.98413,-12.964387 -32.69331,-10.556697 h -0.002 c -11.65467,2.39663 -21.0905,10.673067 -30.245644,19.896547 l 10.644024,10.5664 c 8.46784,-8.5305 16.65441,-14.54214 22.62317,-15.76953 5.9143,-1.21611 12.30957,1.04042 20.17767,7.47461 7.94926,6.50162 16.74526,16.88125 25.98633,25.75977 9.32362,8.95784 19.23093,16.38645 31.11328,17.20898 11.90974,0.82588 22.44345,-5.54349 31.96093,-14.07812 9.43641,-8.46289 18.24751,-19.03765 26.43555,-26.38477 h 0.002 c 8.10108,-7.27083 15.18687,-10.66977 20.91407,-10.2793 5.72827,0.39049 13.44836,5.08872 21.75195,13.0625 8.38169,8.04878 17.20723,18.6341 26.87891,26.55079 9.76,7.98787 20.98996,12.95262 32.6875,10.56054 11.66776,-2.38598 21.10298,-10.67608 30.25586,-19.89648 l -10.64649,-10.56641 c -8.4691,8.53159 -16.65901,14.54957 -22.61523,15.76758 -5.92645,1.21192 -12.31767,-1.03655 -20.18164,-7.47266 -7.95231,-6.5093 -16.74794,-16.88846 -25.99024,-25.76367 -9.32039,-8.950207 -19.22343,-16.398127 -31.11914,-17.209047 z"
     id="path11" />
  <path
     style="color:#000000;display:none;fill:#ffffff;stroke:#a7a7a7;stroke-width:0.3;stroke-dasharray:none;stroke-opacity:1"
     d="m 85.420949,88.383853 c -11.896714,-0.81112 -22.434044,5.53691 -31.9549,14.082097 -9.435883,8.46686 -18.247902,19.04171 -26.433434,26.38281 -8.105535,7.26799 -15.196406,10.67733 -20.9080843,10.28125 -5.74180378,-0.39747 -13.457967,-5.08835 -21.7576737,-13.0625 -8.382272,-8.05346 -17.208591,-18.64232 -26.882667,-26.55469 -9.755046,-7.977237 -20.98401,-12.964387 -32.693124,-10.556697 h -0.002 c -11.654604,2.39663 -21.09038,10.673067 -30.245456,19.896547 l 10.643947,10.5664 c 8.467792,-8.5305 16.654314,-14.54214 22.623041,-15.76953 5.914267,-1.21611 12.309501,1.04042 20.177556,7.47461 7.949216,6.50162 16.745164,16.88125 25.986183,25.75977 9.323566,8.95784 19.2308134,16.38645 31.1130903,17.20898 11.9096717,0.82588 22.4433247,-5.54349 31.9607507,-14.07812 9.436356,-8.46289 18.247402,-19.03765 26.435394,-26.38477 h 0.002 c 8.101035,-7.27083 15.186783,-10.66977 20.913953,-10.2793 5.728237,0.39049 13.448282,5.08872 21.751895,13.0625 8.38169,8.04878 17.20723,18.6341 26.87891,26.55079 9.76,7.98787 20.98996,12.95262 32.6875,10.56054 11.66776,-2.38598 21.10298,-10.67608 30.25586,-19.89648 L 185.3272,123.06165 c -8.4691,8.53159 -16.65901,14.54957 -22.61523,15.76758 -5.92645,1.21192 -12.31767,-1.03655 -20.18164,-7.47266 -7.95231,-6.5093 -16.74794,-16.88846 -25.99024,-25.76367 C 107.2197,96.642693 97.31664,89.194773 85.420999,88.383853 Z"
     id="path13" />
  <path
     style="color:#000000;display:none;fill:#ffffff;stroke:#a7a7a7;stroke-width:0.3;stroke-dasharray:none;stroke-opacity:1"
     d="m 35.150085,88.383853 c -11.896714,-0.81112 -22.434044,5.53691 -31.9548988,14.082097 -9.4358775,8.46686 -18.2478912,19.04171 -26.4334232,26.38281 -8.105535,7.26799 -15.196406,10.67733 -20.908085,10.28125 -5.741807,-0.39747 -13.457975,-5.08835 -21.757685,-13.0625 -8.382272,-8.05346 -17.208591,-18.64232 -26.882667,-26.55469 -9.755026,-7.977237 -20.984056,-12.964387 -32.693236,-10.556697 h -0.002 c -11.65467,2.39663 -21.0905,10.673067 -30.24562,19.896547 l 10.644,10.5664 c 8.46784,-8.5305 16.65441,-14.54214 22.62317,-15.76953 5.9143,-1.21611 12.30957,1.04042 20.17767,7.47461 7.949196,6.50162 16.745144,16.88125 25.986163,25.75977 9.323566,8.95784 19.230817,16.38645 31.113101,17.20898 11.909673,0.82588 22.443326,-5.54349 31.960752,-14.07812 9.4363496,-8.46289 18.2473903,-19.03765 26.435382,-26.38477 h 0.002 c 8.101035,-7.27083 15.186783,-10.66977 20.913953,-10.2793 5.728237,0.39049 13.448282,5.08872 21.751839,13.0625 8.381642,8.04878 17.207131,18.6341 26.878757,26.55079 9.759946,7.98787 20.989893,12.95262 32.687433,10.56054 11.66776,-2.38598 21.10298,-10.67608 30.25586,-19.89648 l -10.64649,-10.56641 c -8.4691,8.53159 -16.65901,14.54957 -22.61523,15.76758 -5.92645,1.21192 -12.31767,-1.03655 -20.181627,-7.47266 C 84.306938,124.84727 75.511359,114.46811 66.26911,105.5929 56.948774,96.642693 47.045776,89.194773 35.150135,88.383853 Z"
     id="path14" />
  <path
     style="color:#000000;display:none;fill:#ffffff;stroke:#a7a7a7;stroke-width:0.3;stroke-dasharray:none;stroke-opacity:1"
     d="m 339.95165,88.383853 c -11.89678,-0.81112 -22.43417,5.53691 -31.95508,14.082097 -9.43594,8.46686 -18.24801,19.04171 -26.43359,26.38281 -8.10558,7.26799 -15.19649,10.67733 -20.9082,10.28125 -5.74184,-0.39747 -13.45805,-5.08835 -21.75781,-13.0625 -8.38232,-8.05346 -17.20869,-18.64232 -26.88282,-26.55469 -9.7551,-7.977237 -20.98413,-12.964387 -32.69331,-10.556697 h -0.002 c -11.65467,2.39663 -21.0905,10.673067 -30.24564,19.896547 l 10.64402,10.5664 c 8.46784,-8.5305 16.65441,-14.54214 22.62317,-15.76953 5.9143,-1.21611 12.30957,1.04042 20.17767,7.47461 7.94926,6.50162 16.74526,16.88125 25.98633,25.75977 9.32362,8.95784 19.23093,16.38645 31.11328,17.20898 11.90974,0.82588 22.44345,-5.54349 31.96093,-14.07812 9.43641,-8.46289 18.24751,-19.03765 26.43555,-26.38477 h 0.002 c 8.10108,-7.27083 15.18687,-10.66977 20.91407,-10.2793 5.72827,0.39049 13.44836,5.08872 21.75195,13.0625 8.38169,8.04878 17.20723,18.6341 26.87891,26.55079 9.76,7.98787 20.98996,12.95262 32.6875,10.56054 11.66776,-2.38598 21.10298,-10.67608 30.25586,-19.89648 l -10.64649,-10.56641 c -8.4691,8.53159 -16.65901,14.54957 -22.61523,15.76758 -5.92645,1.21192 -12.31767,-1.03655 -20.18164,-7.47266 -7.95231,-6.5093 -16.74794,-16.88846 -25.99024,-25.76367 -9.32039,-8.950207 -19.22343,-16.398127 -31.11914,-17.209047 z"
     id="path15" />
  <path
     style="color:#000000;display:none;fill:none;stroke:#a7a7a7;stroke-width:0.3;stroke-dasharray:none;stroke-opacity:1"
     d="m 136.48579,88.383853 c -11.89678,-0.81112 -22.43417,5.53691 -31.95508,14.082097 -9.43593,8.46686 -18.247949,19.04171 -26.433481,26.38281 -8.105535,7.26799 -15.196406,10.67733 -20.908083,10.28125 -5.741807,-0.39747 -13.457975,-5.08835 -21.757687,-13.0625 C 27.049187,118.01405 18.222868,107.42519 8.5487917,99.51282 -1.2062489,91.535583 -12.435206,86.548433 -24.14432,88.956123 h -0.002 c -11.654604,2.39663 -21.09038,10.673067 -30.245465,19.896547 l 10.643956,10.5664 c 8.467792,-8.5305 16.654314,-14.54214 22.623041,-15.76953 5.914267,-1.21611 12.3094988,1.04042 20.17754913,7.47461 7.94921047,6.50162 16.74515887,16.88125 25.98617787,25.75977 9.323566,8.95784 19.230819,16.38645 31.113103,17.20898 11.909671,0.82588 22.443324,-5.54349 31.96075,-14.07812 9.436356,-8.46289 18.247458,-19.03765 26.435498,-26.38477 h 0.002 c 8.10108,-7.27083 15.18687,-10.66977 20.91407,-10.2793 5.72827,0.39049 13.44836,5.08872 21.75195,13.0625 8.38169,8.04878 17.20723,18.6341 26.87891,26.55079 9.76,7.98787 20.98996,12.95262 32.6875,10.56054 11.66776,-2.38598 21.10298,-10.67608 30.25586,-19.89648 l -10.64649,-10.56641 c -8.4691,8.53159 -16.65901,14.54957 -22.61523,15.76758 -5.92645,1.21192 -12.31767,-1.03655 -20.18164,-7.47266 -7.95231,-6.5093 -16.74794,-16.88846 -25.99024,-25.76367 -9.32039,-8.950207 -19.22343,-16.398127 -31.11914,-17.209047 z"
     id="path12" />
  <path
     style="color:#000000;display:none;fill:#ffffff;stroke:#020202;stroke-width:0.6;stroke-dasharray:none;stroke-opacity:1"
     d="m 187.61654,88.251561 c -11.89678,-0.811119 -22.43417,5.536877 -31.95508,14.082039 -9.43594,8.46686 -18.24801,19.04171 -26.43359,26.38281 -8.10558,7.26799 -15.19649,10.67733 -20.9082,10.28125 -5.74184,-0.39747 -13.457899,-5.08835 -21.757659,-13.0625 C 78.179694,117.8817 69.353319,107.29284 59.679198,99.380468 49.924051,91.403271 38.694954,86.416148 26.985839,88.823827 h -0.002 C 15.329235,91.220439 5.8934573,99.496838 -3.2622095,108.72032 l 10.6445312,10.5664 c 8.4677973,-8.5305 16.6543173,-14.54214 22.6230483,-15.76953 5.914267,-1.21611 12.309499,1.04042 20.177734,7.47461 7.949262,6.50162 16.745263,16.88125 25.986329,25.75977 9.323621,8.95784 19.230933,16.38645 31.113127,17.20898 11.90974,0.82588 22.44345,-5.54349 31.96093,-14.07812 9.43641,-8.46289 18.24751,-19.03765 26.43555,-26.38477 h 0.002 c 8.10108,-7.27083 15.18687,-10.66977 20.91407,-10.2793 5.72827,0.39049 13.44836,5.08872 21.75195,13.0625 8.38169,8.04878 17.20723,18.6341 26.87891,26.55079 9.76,7.98787 20.98996,12.95262 32.6875,10.56054 11.66776,-2.38598 21.10298,-10.67608 30.25586,-19.89648 L 287.52284,122.9293 c -8.4691,8.53159 -16.65901,14.54957 -22.61523,15.76758 -5.92645,1.21192 -12.31767,-1.03655 -20.18164,-7.47266 -7.95231,-6.5093 -16.74794,-16.88846 -25.99024,-25.76367 -9.32039,-8.950201 -19.22343,-16.398077 -31.11914,-17.208989 z"
     id="path6"
     inkscape:label="Orig_Sine" />
  <use
     x="0"
     y="0"
     xlink:href="#path6-4"
     id="use4"
     transform="translate(-50.933469)" />
  <path
     style="color:#000000;display:inline;fill:#e6e6e6;fill-opacity:0.99578059;stroke:#02e302;stroke-width:0.3;stroke-dasharray:none;stroke-opacity:1"
     d="M 83.826494,123.24473 C 78.997848,118.2838 66.050773,104.26273 59.700773,99.367949 49.945626,91.390752 38.716529,86.403629 27.007414,88.811308 h -0.002 c -7.120563,1.464248 -13.412884,5.123296 -19.3191102,9.852189 3.8071222,3.054963 6.0197362,5.113223 11.3929072,10.397673 4.073351,-2.95121 7.81585,-4.91247 10.947734,-5.5565 5.914267,-1.21611 12.309499,1.04042 20.177734,7.47461 6.92015,5.65992 14.420277,14.24332 22.358816,22.2323 2.977809,-2.20636 7.128009,-5.70843 11.262999,-9.96685 z"
     id="path6-4"
     sodipodi:nodetypes="cccccccccc"
     inkscape:label="Root_piece" />
  <use
     x="0"
     y="0"
     xlink:href="#path6-4"
     id="use1"
     transform="translate(50.932293)" />
  <use
     x="0"
     y="0"
     xlink:href="#path6-4"
     id="use2"
     transform="matrix(1,0,0,-1,25.470845,241.70791)" />
  <use
     x="0"
     y="0"
     xlink:href="#path6-4"
     id="use3"
     transform="matrix(1,0,0,-1,76.106338,242.10478)" />
  <use
     x="0"
     y="0"
     xlink:href="#path6-4"
     id="use5"
     transform="matrix(1,0,0,-1,-25.462469,241.70834)" />
</svg>
