<?xml version="1.0" encoding="UTF-8" standalone="no"?>
<svg
   width="3500"
   height="1000"
   viewBox="0 0 3281.2501 937.5"
   id="svg2335"
   sodipodi:version="0.32"
   inkscape:version="1.3 (0e150ed6c4, 2023-07-21)"
   sodipodi:docname="202311_New_Braid components.svg"
   version="1.1"
   xmlns:inkscape="http://www.inkscape.org/namespaces/inkscape"
   xmlns:sodipodi="http://sodipodi.sourceforge.net/DTD/sodipodi-0.dtd"
   xmlns:xlink="http://www.w3.org/1999/xlink"
   xmlns="http://www.w3.org/2000/svg"
   xmlns:svg="http://www.w3.org/2000/svg"
   xmlns:rdf="http://www.w3.org/1999/02/22-rdf-syntax-ns#"
   xmlns:cc="http://creativecommons.org/ns#"
   xmlns:dc="http://purl.org/dc/elements/1.1/">
  <metadata
     id="metadata2494">
    <rdf:RDF>
      <cc:Work
         rdf:about="">
        <dc:format>image/svg+xml</dc:format>
        <dc:type
           rdf:resource="http://purl.org/dc/dcmitype/StillImage" />
      </cc:Work>
    </rdf:RDF>
  </metadata>
  <sodipodi:namedview
     inkscape:window-height="986"
     inkscape:window-width="1920"
     inkscape:pageshadow="2"
     inkscape:pageopacity="0.0"
     guidetolerance="10.0"
     gridtolerance="10.0"
     objecttolerance="10.0"
     borderopacity="1.0"
     bordercolor="#666666"
     pagecolor="#ffffff"
     id="base"
     inkscape:zoom="2"
     inkscape:cx="1134.5"
     inkscape:cy="180.25"
     inkscape:window-x="-11"
     inkscape:window-y="-11"
     inkscape:current-layer="svg2335"
     showgrid="false"
     inkscape:window-maximized="1"
     inkscape:showpageshadow="2"
     inkscape:pagecheckerboard="0"
     inkscape:deskcolor="#d1d1d1"
     showguides="true">
    <inkscape:page
       x="0"
       y="0"
       width="3281.25"
       height="937.5"
       id="page1"
       margin="0"
       bleed="0" />
    <sodipodi:guide
       position="1119.0054,870.54834"
       orientation="0,-1"
       id="guide59"
       inkscape:locked="false" />
  </sodipodi:namedview>
  <desc
     id="desc2337">Produced by GNUPLOT 4.0 patchlevel 0 </desc>
  <defs
     id="defs2339">
    <circle
       id="gpDot"
       r="1"
       cx="0"
       cy="0" />
    <path
       id="gpPt0"
       style="stroke-width:0.133"
       d="M -1,0 H 1 M 0,-1 v 2"
       inkscape:connector-curvature="0" />
    <path
       id="gpPt1"
       style="stroke-width:0.133"
       d="M -1,-1 1,1 M 1,-1 -1,1"
       inkscape:connector-curvature="0" />
    <path
       id="gpPt2"
       style="stroke-width:0.133"
       d="M -1,0 H 1 M 0,-1 v 2 m -1,-2 2,2 m -2,0 2,-2"
       inkscape:connector-curvature="0" />
    <rect
       id="gpPt3"
       style="stroke-width:0.133"
       x="-1"
       y="-1"
       width="2"
       height="2" />
    <use
       xlink:href="#gpPt3"
       id="gpPt4"
       style="fill:currentColor;stroke:none"
       x="0"
       y="0"
       width="100%"
       height="100%" />
    <circle
       id="gpPt5"
       style="stroke-width:0.133"
       cx="0"
       cy="0"
       r="1" />
    <use
       xlink:href="#gpPt5"
       id="gpPt6"
       style="fill:currentColor;stroke:none"
       x="0"
       y="0"
       width="100%"
       height="100%" />
    <path
       id="gpPt7"
       style="stroke-width:0.133"
       d="m 0,-1.33 -1.33,2 h 2.66 z"
       inkscape:connector-curvature="0" />
    <use
       xlink:href="#gpPt7"
       id="gpPt8"
       style="fill:currentColor;stroke:none"
       x="0"
       y="0"
       width="100%"
       height="100%" />
    <use
       xlink:href="#gpPt7"
       id="gpPt9"
       transform="scale(-1)"
       x="0"
       y="0"
       width="100%"
       height="100%" />
    <use
       xlink:href="#gpPt9"
       id="gpPt10"
       style="fill:currentColor;stroke:none"
       x="0"
       y="0"
       width="100%"
       height="100%" />
    <use
       xlink:href="#gpPt3"
       id="gpPt11"
       transform="rotate(45)"
       x="0"
       y="0"
       width="100%"
       height="100%" />
    <use
       xlink:href="#gpPt11"
       id="gpPt12"
       style="fill:currentColor;stroke:none"
       x="0"
       y="0"
       width="100%"
       height="100%" />
    <circle
       r="1"
       id="gpDot-2"
       cx="0"
       cy="0" />
    <path
       d="M -1,0 H 1 M 0,-1 v 2"
       style="stroke-width:0.133"
       id="gpPt0-9" />
    <path
       d="M -1,-1 1,1 M 1,-1 -1,1"
       style="stroke-width:0.133"
       id="gpPt1-0" />
    <path
       d="M -1,0 H 1 M 0,-1 v 2 m -1,-2 2,2 m -2,0 2,-2"
       style="stroke-width:0.133"
       id="gpPt2-0" />
    <rect
       height="2"
       width="2"
       y="-1"
       x="-1"
       style="stroke-width:0.133"
       id="gpPt3-0" />
    <use
       style="fill:currentColor;stroke:none"
       id="gpPt4-3"
       xlink:href="#gpPt3-0" />
    <circle
       r="1"
       cy="0"
       cx="0"
       style="stroke-width:0.133"
       id="gpPt5-3" />
    <use
       style="fill:currentColor;stroke:none"
       id="gpPt6-1"
       xlink:href="#gpPt5-3" />
    <path
       d="m 0,-1.33 -1.33,2 h 2.66 z"
       style="stroke-width:0.133"
       id="gpPt7-4" />
    <use
       style="fill:currentColor;stroke:none"
       id="gpPt8-1"
       xlink:href="#gpPt7-4" />
    <use
       transform="scale(-1)"
       id="gpPt9-2"
       xlink:href="#gpPt7-4" />
    <use
       style="fill:currentColor;stroke:none"
       id="gpPt10-2"
       xlink:href="#gpPt9-2" />
    <use
       transform="rotate(45)"
       id="gpPt11-0"
       xlink:href="#gpPt3-0" />
    <use
       style="fill:currentColor;stroke:none"
       id="gpPt12-4"
       xlink:href="#gpPt11-0" />
  </defs>
  <g
     id="g59"
     style="stroke:#bcbcbc;stroke-opacity:1">
    <path
       style="fill:none;stroke:#bcbcbc;stroke-width:0.9375px;stroke-linecap:butt;stroke-linejoin:miter;stroke-opacity:1"
       d="m 914.75983,160.48929 c 38.03,-72.21537 91.81917,-159.72209 213.75987,-160.02 121.9407,-0.29791 186.7106,123.01489 214.7861,160.87757 23.1143,34.0308 61.2062,89.9335 129.7978,89.21832 55.6583,-0.58033 100.4558,-38.76742 127.7134,-90.07573"
       id="path4"
       sodipodi:nodetypes="czcsc" />
    <use
       x="0"
       y="0"
       xlink:href="#path4"
       id="use5"
       transform="rotate(180,1298.9927,161.46408)"
       style="stroke:#bcbcbc;stroke-opacity:1" />
    <path
       style="fill:none;stroke:#bcbcbc;stroke-width:0.9375px;stroke-linecap:butt;stroke-linejoin:miter;stroke-opacity:1"
       d="m 1600.7528,160.48929 c 38.03,-72.21537 91.8192,-159.72209 213.7599,-160.02 121.9407,-0.29791 186.7106,123.01489 214.7861,160.87757 23.1143,34.0308 61.2062,89.9335 129.7978,89.21832 55.6583,-0.58033 100.4558,-38.76742 127.7134,-90.07573"
       id="path58"
       sodipodi:nodetypes="czcsc" />
    <use
       x="0"
       y="0"
       xlink:href="#path4"
       id="use59"
       transform="rotate(180,1641.9891,161.46408)"
       style="stroke:#bcbcbc;stroke-opacity:1" />
    <path
       style="fill:none;stroke:#bcbcbc;stroke-width:0.9375px;stroke-linecap:butt;stroke-linejoin:miter;stroke-opacity:1"
       d="m 228.66704,160.48929 c 38.03,-72.21537 91.8192,-159.72209 213.7599,-160.02 121.9407,-0.29791 186.7106,123.01489 214.7861,160.87757 23.1143,34.0308 61.2062,89.9335 129.7978,89.21832 55.6583,-0.58033 100.4558,-38.76742 127.7134,-90.07573"
       id="path57"
       sodipodi:nodetypes="czcsc" />
    <use
       x="0"
       y="0"
       xlink:href="#path4"
       id="use58"
       transform="rotate(180,955.94627,161.46408)"
       style="stroke:#bcbcbc;stroke-opacity:1" />
    <path
       style="fill:none;stroke:#bcbcbc;stroke-width:0.9375px;stroke-linecap:butt;stroke-linejoin:miter;stroke-opacity:1"
       d="m 1143.5098,160.48929 c 38.03,-72.21537 91.8192,-159.72209 213.7599,-160.02 121.9407,-0.29791 186.7106,123.01489 214.7861,160.87757 23.1143,34.0308 61.2062,89.9335 129.7978,89.21832 55.6583,-0.58033 100.4558,-38.76742 127.7134,-90.07573"
       id="path50"
       sodipodi:nodetypes="czcsc" />
    <use
       x="0"
       y="0"
       xlink:href="#path4"
       id="use51"
       transform="rotate(180,1413.3677,161.46408)"
       style="stroke:#bcbcbc;stroke-opacity:1" />
    <path
       style="fill:none;stroke:#bcbcbc;stroke-width:0.9375px;stroke-linecap:butt;stroke-linejoin:miter;stroke-opacity:1"
       d="m 1829.5028,160.48929 c 38.03,-72.21537 91.8192,-159.72209 213.7599,-160.02 121.9407,-0.29791 186.7106,123.01489 214.7861,160.87757 23.1143,34.0308 61.2062,89.9335 129.7978,89.21832 55.6583,-0.58033 100.4558,-38.76742 127.7134,-90.07573"
       id="path55"
       sodipodi:nodetypes="czcsc" />
    <use
       x="0"
       y="0"
       xlink:href="#path4"
       id="use56"
       transform="rotate(180,1756.3641,161.46408)"
       style="stroke:#bcbcbc;stroke-opacity:1" />
    <path
       style="fill:none;stroke:#bcbcbc;stroke-width:0.9375px;stroke-linecap:butt;stroke-linejoin:miter;stroke-opacity:1"
       d="m 457.41704,160.48929 c 38.03,-72.21537 91.8192,-159.72209 213.7599,-160.02 121.9407,-0.29791 186.7106,123.01489 214.7861,160.87757 23.1143,34.0308 61.2062,89.9335 129.79776,89.21832 55.6583,-0.58033 100.4558,-38.76742 127.7134,-90.07573"
       id="path56"
       sodipodi:nodetypes="czcsc" />
    <use
       x="0"
       y="0"
       xlink:href="#path4"
       id="use57"
       transform="rotate(180,1070.3213,161.46408)"
       style="stroke:#bcbcbc;stroke-opacity:1" />
    <path
       style="fill:none;stroke:#bcbcbc;stroke-width:0.9375px;stroke-linecap:butt;stroke-linejoin:miter;stroke-opacity:1"
       d="m 686.50755,160.48929 c 38.03,-72.21537 91.8192,-159.72209 213.7599,-160.02 121.94075,-0.29791 186.71065,123.01489 214.78615,160.87757 23.1142,34.0308 61.2062,89.9335 129.7978,89.21832 55.6583,-0.58033 100.4558,-38.76742 127.7134,-90.07573"
       id="path47"
       sodipodi:nodetypes="czcsc" />
    <use
       x="0"
       y="0"
       xlink:href="#path4"
       id="use48"
       transform="rotate(180,1184.8665,161.46408)"
       style="stroke:#bcbcbc;stroke-opacity:1" />
    <path
       style="fill:none;stroke:#bcbcbc;stroke-width:0.9375px;stroke-linecap:butt;stroke-linejoin:miter;stroke-opacity:1"
       d="m 1372.5005,160.48929 c 38.03,-72.21537 91.8192,-159.72209 213.7599,-160.02 121.9407,-0.29791 186.7106,123.01489 214.7861,160.87757 23.1143,34.0308 61.2062,89.9335 129.7978,89.21832 55.6583,-0.58033 100.4558,-38.76742 127.7134,-90.07573"
       id="path53"
       sodipodi:nodetypes="czcsc" />
    <use
       x="0"
       y="0"
       xlink:href="#path4"
       id="use54"
       transform="rotate(180,1527.863,161.46408)"
       style="stroke:#bcbcbc;stroke-opacity:1" />
    <path
       style="fill:none;stroke:#bcbcbc;stroke-width:0.9375px;stroke-linecap:butt;stroke-linejoin:miter;stroke-opacity:1"
       d="M 0.4148,160.48929 C 38.4448,88.27392 92.234,0.7672 214.1747,0.46929 336.1154,0.17138 400.8853,123.48418 428.9608,161.34686 c 23.1143,34.0308 61.2062,89.9335 129.7978,89.21832 55.6583,-0.58033 100.4558,-38.76742 127.7134,-90.07573"
       id="path54"
       sodipodi:nodetypes="czcsc" />
    <use
       x="0"
       y="0"
       xlink:href="#path4"
       id="use55"
       transform="rotate(180,841.82015,161.46408)"
       style="stroke:#bcbcbc;stroke-opacity:1" />
  </g>
  <path
     style="fill:none;stroke:#000000;stroke-width:0.28125;stroke-linecap:butt;stroke-linejoin:miter;stroke-dasharray:none;stroke-opacity:1"
     d="m 1063.6547,89.640001 c 34.6396,-22.860468 88.4731,-22.779585 123.1659,-0.285 -20.1149,24.525899 -46.7907,79.427239 -56.819,93.143089 -10.046,-13.755 -45.6418,-68.55157 -66.3469,-92.858089 z"
     id="path59"
     sodipodi:nodetypes="cccc" />
  <path
     style="fill:none;stroke:#000000;stroke-width:0.28125;stroke-linecap:butt;stroke-linejoin:miter;stroke-dasharray:none;stroke-opacity:1"
     d="m 1011.0021,139.68647 c 19.743,-27.63929 37.4784,-41.180081 52.5584,-50.027906 13.2954,13.633666 36.3216,50.427096 67.6824,94.598436 39.751,55.98899 101.3285,88.94684 174.9856,49.0937 11.6091,13.89283 28.5468,33.18826 54.0487,52.02922 -70.4317,50.27444 -169.0655,51.49932 -239.8264,-8.93149 -48.3868,-41.32297 -92.4552,-115.52187 -109.4487,-136.76196 z"
     id="path60"
     sodipodi:nodetypes="ccsccsc" />
  <use
     x="0"
     y="0"
     xlink:href="#path60"
     id="use60"
     transform="matrix(1,0,0,-1,-120.9375,322.10052)" />
  <use
     x="0"
     y="0"
     xlink:href="#path59"
     id="use61"
     transform="matrix(1,0,0,-1,-118.59375,322.58066)" />
</svg>
