<?xml version="1.0" encoding="UTF-8" standalone="no"?>
<svg
   xmlns:dc="http://purl.org/dc/elements/1.1/"
   xmlns:cc="http://creativecommons.org/ns#"
   xmlns:rdf="http://www.w3.org/1999/02/22-rdf-syntax-ns#"
   xmlns:svg="http://www.w3.org/2000/svg"
   xmlns="http://www.w3.org/2000/svg"
   xmlns:xlink="http://www.w3.org/1999/xlink"
   xmlns:sodipodi="http://sodipodi.sourceforge.net/DTD/sodipodi-0.dtd"
   xmlns:inkscape="http://www.inkscape.org/namespaces/inkscape"
   width="1066.6666"
   height="800"
   viewBox="0 0 1000 750"
   id="svg2335"
   sodipodi:version="0.32"
   inkscape:version="0.92.4 (5da689c313, 2019-01-14)"
   sodipodi:docname="Braid components.svg"
   version="1.1">
  <metadata
     id="metadata2494">
    <rdf:RDF>
      <cc:Work
         rdf:about="">
        <dc:format>image/svg+xml</dc:format>
        <dc:type
           rdf:resource="http://purl.org/dc/dcmitype/StillImage" />
        <dc:title></dc:title>
      </cc:Work>
    </rdf:RDF>
  </metadata>
  <sodipodi:namedview
     inkscape:window-height="706"
     inkscape:window-width="1366"
     inkscape:pageshadow="2"
     inkscape:pageopacity="0.0"
     guidetolerance="10.0"
     gridtolerance="10.0"
     objecttolerance="10.0"
     borderopacity="1.0"
     bordercolor="#666666"
     pagecolor="#ffffff"
     id="base"
     inkscape:zoom="1.0074671"
     inkscape:cx="569.73957"
     inkscape:cy="316.30693"
     inkscape:window-x="-8"
     inkscape:window-y="-8"
     inkscape:current-layer="svg2335"
     showgrid="false"
     inkscape:window-maximized="1" />
  <desc
     id="desc2337">Produced by GNUPLOT 4.0 patchlevel 0 </desc>
  <defs
     id="defs2339">
    <circle
       id="gpDot"
       r="1"
       cx="0"
       cy="0" />
    <path
       id="gpPt0"
       style="stroke-width:0.133"
       d="M -1,0 H 1 M 0,-1 v 2"
       inkscape:connector-curvature="0" />
    <path
       id="gpPt1"
       style="stroke-width:0.133"
       d="M -1,-1 1,1 M 1,-1 -1,1"
       inkscape:connector-curvature="0" />
    <path
       id="gpPt2"
       style="stroke-width:0.133"
       d="M -1,0 H 1 M 0,-1 v 2 m -1,-2 2,2 m -2,0 2,-2"
       inkscape:connector-curvature="0" />
    <rect
       id="gpPt3"
       style="stroke-width:0.133"
       x="-1"
       y="-1"
       width="2"
       height="2" />
    <use
       xlink:href="#gpPt3"
       id="gpPt4"
       style="fill:currentColor;stroke:none"
       x="0"
       y="0"
       width="100%"
       height="100%" />
    <circle
       id="gpPt5"
       style="stroke-width:0.133"
       cx="0"
       cy="0"
       r="1" />
    <use
       xlink:href="#gpPt5"
       id="gpPt6"
       style="fill:currentColor;stroke:none"
       x="0"
       y="0"
       width="100%"
       height="100%" />
    <path
       id="gpPt7"
       style="stroke-width:0.133"
       d="m 0,-1.33 -1.33,2 h 2.66 z"
       inkscape:connector-curvature="0" />
    <use
       xlink:href="#gpPt7"
       id="gpPt8"
       style="fill:currentColor;stroke:none"
       x="0"
       y="0"
       width="100%"
       height="100%" />
    <use
       xlink:href="#gpPt7"
       id="gpPt9"
       transform="scale(-1)"
       x="0"
       y="0"
       width="100%"
       height="100%" />
    <use
       xlink:href="#gpPt9"
       id="gpPt10"
       style="fill:currentColor;stroke:none"
       x="0"
       y="0"
       width="100%"
       height="100%" />
    <use
       xlink:href="#gpPt3"
       id="gpPt11"
       transform="rotate(45)"
       x="0"
       y="0"
       width="100%"
       height="100%" />
    <use
       xlink:href="#gpPt11"
       id="gpPt12"
       style="fill:currentColor;stroke:none"
       x="0"
       y="0"
       width="100%"
       height="100%" />
  </defs>
  <g
     style="color:#000000;fill:none;stroke:currentColor;stroke-width:1"
     id="g2355" />
  <g
     style="color:#ff0000;fill:none;stroke:#0003ff;stroke-width:10;stroke-linecap:round;stroke-linejoin:round;stroke-miterlimit:4;stroke-dasharray:none;stroke-opacity:1"
     id="g2485"
     transform="matrix(1,0,0,0.744359,-1.8800134,15.286173)" />
  <g
     transform="matrix(1,0,0,0.744359,4.6338474,28.313894)"
     id="g4877"
     style="color:#ff0000;fill:none;stroke:#0003ff;stroke-width:10;stroke-linecap:round;stroke-linejoin:round;stroke-miterlimit:4;stroke-dasharray:none;stroke-opacity:1" />
  <g
     style="color:#ff0000;fill:none;stroke:#0003ff;stroke-width:10;stroke-linecap:round;stroke-linejoin:round;stroke-miterlimit:4;stroke-dasharray:none;stroke-opacity:1"
     id="g4887"
     transform="matrix(1,0,0,-0.75024918,513.536,846.04031)">
    <path
       id="path4885"
       style="stroke:#000000;stroke-width:0.36445895;stroke-linecap:round;stroke-linejoin:round;stroke-miterlimit:4;stroke-dasharray:none;stroke-opacity:1"
       d="m 498.72181,566.49193 c -4.22313,-5.73255 -8.89449,-10.63404 -13.28,-16.07742 -21.70868,-26.63403 -48.18075,-54.27257 -77.99673,-47.90852 -33.76665,8.38924 -58.17713,47.01572 -83.99245,76.79756 -22.15317,26.66312 -48.63283,52.62139 -79.27146,51.50071 -32.59347,-7.12387 -61.88103,-45.13728 -86.37471,-74.45192 -22.50241,-27.13117 -42.61355,-56.2111 -73.453121,-54.73443 -31.742866,2.97343 -56.272233,36.65082 -79.644849,64.87402 m 0,-42.65241 c 23.372616,-28.2232 47.901983,-61.90058 79.644849,-64.87401 30.839571,-1.47668 55.958401,29.58709 78.460801,56.71826 24.49368,29.31464 48.77356,65.34422 81.36703,72.46808 30.63863,5.19921 57.11829,-24.11187 79.27146,-51.5007 25.81532,-29.78185 50.2258,-68.40832 83.99245,-76.79757 29.81598,-6.36404 56.28805,21.27449 77.99673,47.90853 4.38551,5.44338 9.05687,10.34486 13.28,16.07741 m 0,42.65241 c -4.22313,-5.73255 -8.89449,-10.63404 -13.28,-16.07742 -21.70868,-26.63403 -48.18075,-54.27257 -77.99673,-47.90852 -33.76665,8.38924 -58.17713,47.01572 -83.99245,76.79756 -22.15317,26.66312 -48.63283,52.62139 -79.27146,51.50071 -32.59347,-7.12387 -61.88103,-45.13728 -86.37471,-74.45192 -22.50241,-27.13117 -42.61355,-56.2111 -73.453121,-54.73443 -31.742866,2.97343 -56.272233,36.65082 -79.644849,64.87402 m 0,-42.65241 c 23.372616,-28.2232 47.901983,-61.90058 79.644849,-64.87401 30.839571,-1.47668 55.958401,29.58709 78.460801,56.71826 24.49368,29.31464 48.77356,65.34422 81.36703,72.46808 30.63863,5.19921 57.11829,-24.11187 79.27146,-51.5007 25.81532,-29.78185 50.2258,-68.40832 83.99245,-76.79757 29.81598,-6.36404 56.28805,21.27449 77.99673,47.90853 4.38551,5.44338 9.05687,10.34486 13.28,16.07741 M 4.7084874,524.17438 c -4.22313,5.68754 -8.89449,10.55055 -13.28,15.9512 -21.7086804,26.42492 -48.1807504,53.84648 -77.9967304,47.53239 -33.766647,-8.32338 -58.177127,-46.6466 -83.992447,-76.19463 -22.15317,-26.45378 -48.63283,-52.20826 -79.27146,-51.09638 -32.59347,7.06795 -61.88103,44.78291 -86.37471,73.86741 -22.50241,26.91816 -42.61355,55.76978 -73.45312,54.30471 -31.74287,-2.95009 -56.27224,-36.36308 -79.64485,-64.3647 m 0,42.31755 c 23.37261,28.00162 47.90198,61.4146 79.64485,64.36468 30.83957,1.46509 55.9584,-29.3548 78.4608,-56.27296 24.49368,-29.08449 48.77356,-64.83121 81.36703,-71.89914 30.63863,-5.15839 57.11829,23.92257 79.27146,51.09637 25.81532,29.54804 50.2258,67.87125 83.992447,76.19464 29.81598,6.31407 56.28805,-21.10747 77.9967304,-47.5324 4.38551,-5.40065 9.05687,-10.26365 13.28,-15.95119 m 0,-42.31755 c -4.22313,5.68754 -8.89449,10.55055 -13.28,15.9512 -21.7086804,26.42492 -48.1807504,53.84648 -77.9967304,47.53239 -33.766647,-8.32338 -58.177127,-46.6466 -83.992447,-76.19463 -22.15317,-26.45378 -48.63283,-52.20826 -79.27146,-51.09638 -32.59347,7.06795 -61.88103,44.78291 -86.37471,73.86741 -22.50241,26.91816 -42.61355,55.76978 -73.45312,54.30471 -31.74287,-2.95009 -56.27224,-36.36308 -79.64485,-64.3647 m 0,42.31755 c 23.37261,28.00162 47.90198,61.4146 79.64485,64.36468 30.83957,1.46509 55.9584,-29.3548 78.4608,-56.27296 24.49368,-29.08449 48.77356,-64.83121 81.36703,-71.89914 30.63863,-5.15839 57.11829,23.92257 79.27146,51.09637 25.81532,29.54804 50.2258,67.87125 83.992447,76.19464 29.81598,6.31407 56.28805,-21.10747 77.9967304,-47.5324 4.38551,-5.40065 9.05687,-10.26365 13.28,-15.95119"
       inkscape:connector-curvature="0" />
  </g>
  <g
     transform="matrix(1,0,0,-0.75024918,411.17533,845.10976)"
     id="g4892"
     style="color:#ff0000;fill:none;stroke:#0003ff;stroke-width:10;stroke-linecap:round;stroke-linejoin:round;stroke-miterlimit:4;stroke-dasharray:none;stroke-opacity:1">
    <path
       d="m 498.72181,566.49193 c -4.22313,-5.73255 -8.89449,-10.63404 -13.28,-16.07742 -21.70868,-26.63403 -48.18075,-54.27257 -77.99673,-47.90852 -33.76665,8.38924 -58.17713,47.01572 -83.99245,76.79756 -22.15317,26.66312 -48.63283,52.62139 -79.27146,51.50071 -32.59347,-7.12387 -61.88103,-45.13728 -86.37471,-74.45192 -22.50241,-27.13117 -42.61355,-56.2111 -73.453121,-54.73443 -31.742866,2.97343 -56.272233,36.65082 -79.644849,64.87402 m 0,-42.65241 c 23.372616,-28.2232 47.901983,-61.90058 79.644849,-64.87401 30.839571,-1.47668 55.958401,29.58709 78.460801,56.71826 24.49368,29.31464 48.77356,65.34422 81.36703,72.46808 30.63863,5.19921 57.11829,-24.11187 79.27146,-51.5007 25.81532,-29.78185 50.2258,-68.40832 83.99245,-76.79757 29.81598,-6.36404 56.28805,21.27449 77.99673,47.90853 4.38551,5.44338 9.05687,10.34486 13.28,16.07741 m 0,42.65241 c -4.22313,-5.73255 -8.89449,-10.63404 -13.28,-16.07742 -21.70868,-26.63403 -48.18075,-54.27257 -77.99673,-47.90852 -33.76665,8.38924 -58.17713,47.01572 -83.99245,76.79756 -22.15317,26.66312 -48.63283,52.62139 -79.27146,51.50071 -32.59347,-7.12387 -61.88103,-45.13728 -86.37471,-74.45192 -22.50241,-27.13117 -42.61355,-56.2111 -73.453121,-54.73443 -31.742866,2.97343 -56.272233,36.65082 -79.644849,64.87402 m 0,-42.65241 c 23.372616,-28.2232 47.901983,-61.90058 79.644849,-64.87401 30.839571,-1.47668 55.958401,29.58709 78.460801,56.71826 24.49368,29.31464 48.77356,65.34422 81.36703,72.46808 30.63863,5.19921 57.11829,-24.11187 79.27146,-51.5007 25.81532,-29.78185 50.2258,-68.40832 83.99245,-76.79757 29.81598,-6.36404 56.28805,21.27449 77.99673,47.90853 4.38551,5.44338 9.05687,10.34486 13.28,16.07741 M 4.7084874,524.17438 c -4.22313,5.68754 -8.89449,10.55055 -13.28,15.9512 -21.7086804,26.42492 -48.1807504,53.84648 -77.9967304,47.53239 -33.766647,-8.32338 -58.177127,-46.6466 -83.992447,-76.19463 -22.15317,-26.45378 -48.63283,-52.20826 -79.27146,-51.09638 -32.59347,7.06795 -61.88103,44.78291 -86.37471,73.86741 -22.50241,26.91816 -42.61355,55.76978 -73.45312,54.30471 -31.74287,-2.95009 -56.27224,-36.36308 -79.64485,-64.3647 m 0,42.31755 c 23.37261,28.00162 47.90198,61.4146 79.64485,64.36468 30.83957,1.46509 55.9584,-29.3548 78.4608,-56.27296 24.49368,-29.08449 48.77356,-64.83121 81.36703,-71.89914 30.63863,-5.15839 57.11829,23.92257 79.27146,51.09637 25.81532,29.54804 50.2258,67.87125 83.992447,76.19464 29.81598,6.31407 56.28805,-21.10747 77.9967304,-47.5324 4.38551,-5.40065 9.05687,-10.26365 13.28,-15.95119 m 0,-42.31755 c -4.22313,5.68754 -8.89449,10.55055 -13.28,15.9512 -21.7086804,26.42492 -48.1807504,53.84648 -77.9967304,47.53239 -33.766647,-8.32338 -58.177127,-46.6466 -83.992447,-76.19463 -22.15317,-26.45378 -48.63283,-52.20826 -79.27146,-51.09638 -32.59347,7.06795 -61.88103,44.78291 -86.37471,73.86741 -22.50241,26.91816 -42.61355,55.76978 -73.45312,54.30471 -31.74287,-2.95009 -56.27224,-36.36308 -79.64485,-64.3647 m 0,42.31755 c 23.37261,28.00162 47.90198,61.4146 79.64485,64.36468 30.83957,1.46509 55.9584,-29.3548 78.4608,-56.27296 24.49368,-29.08449 48.77356,-64.83121 81.36703,-71.89914 30.63863,-5.15839 57.11829,23.92257 79.27146,51.09637 25.81532,29.54804 50.2258,67.87125 83.992447,76.19464 29.81598,6.31407 56.28805,-21.10747 77.9967304,-47.5324 4.38551,-5.40065 9.05687,-10.26365 13.28,-15.95119"
       style="stroke:#000000;stroke-width:0.36445895;stroke-linecap:round;stroke-linejoin:round;stroke-miterlimit:4;stroke-dasharray:none;stroke-opacity:1"
       id="path4890"
       inkscape:connector-curvature="0" />
  </g>
  <g
     style="color:#ff0000;fill:none;stroke:#0003ff;stroke-width:10;stroke-linecap:round;stroke-linejoin:round;stroke-miterlimit:4;stroke-dasharray:none;stroke-opacity:1"
     id="g4896"
     transform="matrix(1,0,0,-0.75024918,619.61887,846.97086)">
    <path
       inkscape:connector-curvature="0"
       id="path4894"
       style="stroke:#000000;stroke-width:0.36445895;stroke-linecap:round;stroke-linejoin:round;stroke-miterlimit:4;stroke-dasharray:none;stroke-opacity:1"
       d="m 498.72181,566.49193 c -4.22313,-5.73255 -8.89449,-10.63404 -13.28,-16.07742 -21.70868,-26.63403 -48.18075,-54.27257 -77.99673,-47.90852 -33.76665,8.38924 -58.17713,47.01572 -83.99245,76.79756 -22.15317,26.66312 -48.63283,52.62139 -79.27146,51.50071 -32.59347,-7.12387 -61.88103,-45.13728 -86.37471,-74.45192 -22.50241,-27.13117 -42.61355,-56.2111 -73.453121,-54.73443 -31.742866,2.97343 -56.272233,36.65082 -79.644849,64.87402 m 0,-42.65241 c 23.372616,-28.2232 47.901983,-61.90058 79.644849,-64.87401 30.839571,-1.47668 55.958401,29.58709 78.460801,56.71826 24.49368,29.31464 48.77356,65.34422 81.36703,72.46808 30.63863,5.19921 57.11829,-24.11187 79.27146,-51.5007 25.81532,-29.78185 50.2258,-68.40832 83.99245,-76.79757 29.81598,-6.36404 56.28805,21.27449 77.99673,47.90853 4.38551,5.44338 9.05687,10.34486 13.28,16.07741 m 0,42.65241 c -4.22313,-5.73255 -8.89449,-10.63404 -13.28,-16.07742 -21.70868,-26.63403 -48.18075,-54.27257 -77.99673,-47.90852 -33.76665,8.38924 -58.17713,47.01572 -83.99245,76.79756 -22.15317,26.66312 -48.63283,52.62139 -79.27146,51.50071 -32.59347,-7.12387 -61.88103,-45.13728 -86.37471,-74.45192 -22.50241,-27.13117 -42.61355,-56.2111 -73.453121,-54.73443 -31.742866,2.97343 -56.272233,36.65082 -79.644849,64.87402 m 0,-42.65241 c 23.372616,-28.2232 47.901983,-61.90058 79.644849,-64.87401 30.839571,-1.47668 55.958401,29.58709 78.460801,56.71826 24.49368,29.31464 48.77356,65.34422 81.36703,72.46808 30.63863,5.19921 57.11829,-24.11187 79.27146,-51.5007 25.81532,-29.78185 50.2258,-68.40832 83.99245,-76.79757 29.81598,-6.36404 56.28805,21.27449 77.99673,47.90853 4.38551,5.44338 9.05687,10.34486 13.28,16.07741 M 4.7084874,524.17438 c -4.22313,5.68754 -8.89449,10.55055 -13.28,15.9512 -21.7086804,26.42492 -48.1807504,53.84648 -77.9967304,47.53239 -33.766647,-8.32338 -58.177127,-46.6466 -83.992447,-76.19463 -22.15317,-26.45378 -48.63283,-52.20826 -79.27146,-51.09638 -32.59347,7.06795 -61.88103,44.78291 -86.37471,73.86741 -22.50241,26.91816 -42.61355,55.76978 -73.45312,54.30471 -31.74287,-2.95009 -56.27224,-36.36308 -79.64485,-64.3647 m 0,42.31755 c 23.37261,28.00162 47.90198,61.4146 79.64485,64.36468 30.83957,1.46509 55.9584,-29.3548 78.4608,-56.27296 24.49368,-29.08449 48.77356,-64.83121 81.36703,-71.89914 30.63863,-5.15839 57.11829,23.92257 79.27146,51.09637 25.81532,29.54804 50.2258,67.87125 83.992447,76.19464 29.81598,6.31407 56.28805,-21.10747 77.9967304,-47.5324 4.38551,-5.40065 9.05687,-10.26365 13.28,-15.95119 m 0,-42.31755 c -4.22313,5.68754 -8.89449,10.55055 -13.28,15.9512 -21.7086804,26.42492 -48.1807504,53.84648 -77.9967304,47.53239 -33.766647,-8.32338 -58.177127,-46.6466 -83.992447,-76.19463 -22.15317,-26.45378 -48.63283,-52.20826 -79.27146,-51.09638 -32.59347,7.06795 -61.88103,44.78291 -86.37471,73.86741 -22.50241,26.91816 -42.61355,55.76978 -73.45312,54.30471 -31.74287,-2.95009 -56.27224,-36.36308 -79.64485,-64.3647 m 0,42.31755 c 23.37261,28.00162 47.90198,61.4146 79.64485,64.36468 30.83957,1.46509 55.9584,-29.3548 78.4608,-56.27296 24.49368,-29.08449 48.77356,-64.83121 81.36703,-71.89914 30.63863,-5.15839 57.11829,23.92257 79.27146,51.09637 25.81532,29.54804 50.2258,67.87125 83.992447,76.19464 29.81598,6.31407 56.28805,-21.10747 77.9967304,-47.5324 4.38551,-5.40065 9.05687,-10.26365 13.28,-15.95119" />
  </g>
</svg>
