<?xml version="1.0" encoding="UTF-8" standalone="no"?>
<svg
   xmlns:dc="http://purl.org/dc/elements/1.1/"
   xmlns:cc="http://creativecommons.org/ns#"
   xmlns:rdf="http://www.w3.org/1999/02/22-rdf-syntax-ns#"
   xmlns:svg="http://www.w3.org/2000/svg"
   xmlns="http://www.w3.org/2000/svg"
   xmlns:xlink="http://www.w3.org/1999/xlink"
   xmlns:sodipodi="http://sodipodi.sourceforge.net/DTD/sodipodi-0.dtd"
   xmlns:inkscape="http://www.inkscape.org/namespaces/inkscape"
   width="1066.6666"
   height="800"
   viewBox="0 0 1000 750"
   id="svg2335"
   sodipodi:version="0.32"
   inkscape:version="0.92.4 (5da689c313, 2019-01-14)"
   sodipodi:docname="Braid components.svg"
   version="1.1">
  <metadata
     id="metadata2494">
    <rdf:RDF>
      <cc:Work
         rdf:about="">
        <dc:format>image/svg+xml</dc:format>
        <dc:type
           rdf:resource="http://purl.org/dc/dcmitype/StillImage" />
      </cc:Work>
    </rdf:RDF>
  </metadata>
  <sodipodi:namedview
     inkscape:window-height="706"
     inkscape:window-width="1366"
     inkscape:pageshadow="2"
     inkscape:pageopacity="0.0"
     guidetolerance="10.0"
     gridtolerance="10.0"
     objecttolerance="10.0"
     borderopacity="1.0"
     bordercolor="#666666"
     pagecolor="#ffffff"
     id="base"
     inkscape:zoom="0.76508705"
     inkscape:cx="702.16423"
     inkscape:cy="396.88862"
     inkscape:window-x="-8"
     inkscape:window-y="-8"
     inkscape:current-layer="svg2335"
     showgrid="false"
     inkscape:window-maximized="1" />
  <desc
     id="desc2337">Produced by GNUPLOT 4.0 patchlevel 0 </desc>
  <defs
     id="defs2339">
    <circle
       id="gpDot"
       r="1"
       cx="0"
       cy="0" />
    <path
       id="gpPt0"
       style="stroke-width:0.133"
       d="M -1,0 H 1 M 0,-1 v 2"
       inkscape:connector-curvature="0" />
    <path
       id="gpPt1"
       style="stroke-width:0.133"
       d="M -1,-1 1,1 M 1,-1 -1,1"
       inkscape:connector-curvature="0" />
    <path
       id="gpPt2"
       style="stroke-width:0.133"
       d="M -1,0 H 1 M 0,-1 v 2 m -1,-2 2,2 m -2,0 2,-2"
       inkscape:connector-curvature="0" />
    <rect
       id="gpPt3"
       style="stroke-width:0.133"
       x="-1"
       y="-1"
       width="2"
       height="2" />
    <use
       xlink:href="#gpPt3"
       id="gpPt4"
       style="fill:currentColor;stroke:none"
       x="0"
       y="0"
       width="100%"
       height="100%" />
    <circle
       id="gpPt5"
       style="stroke-width:0.133"
       cx="0"
       cy="0"
       r="1" />
    <use
       xlink:href="#gpPt5"
       id="gpPt6"
       style="fill:currentColor;stroke:none"
       x="0"
       y="0"
       width="100%"
       height="100%" />
    <path
       id="gpPt7"
       style="stroke-width:0.133"
       d="m 0,-1.33 -1.33,2 h 2.66 z"
       inkscape:connector-curvature="0" />
    <use
       xlink:href="#gpPt7"
       id="gpPt8"
       style="fill:currentColor;stroke:none"
       x="0"
       y="0"
       width="100%"
       height="100%" />
    <use
       xlink:href="#gpPt7"
       id="gpPt9"
       transform="scale(-1)"
       x="0"
       y="0"
       width="100%"
       height="100%" />
    <use
       xlink:href="#gpPt9"
       id="gpPt10"
       style="fill:currentColor;stroke:none"
       x="0"
       y="0"
       width="100%"
       height="100%" />
    <use
       xlink:href="#gpPt3"
       id="gpPt11"
       transform="rotate(45)"
       x="0"
       y="0"
       width="100%"
       height="100%" />
    <use
       xlink:href="#gpPt11"
       id="gpPt12"
       style="fill:currentColor;stroke:none"
       x="0"
       y="0"
       width="100%"
       height="100%" />
    <circle
       r="1"
       id="gpDot-2" />
    <path
       d="M-1,0 h2 M0,-1 v2"
       style="stroke-width:0.133"
       id="gpPt0-9" />
    <path
       d="M-1,-1 L1,1 M1,-1 L-1,1"
       style="stroke-width:0.133"
       id="gpPt1-0" />
    <path
       d="M-1,0 L1,0 M0,-1 L0,1 M-1,-1 L1,1 M-1,1 L1,-1"
       style="stroke-width:0.133"
       id="gpPt2-0" />
    <rect
       height="2"
       width="2"
       y="-1"
       x="-1"
       style="stroke-width:0.133"
       id="gpPt3-0" />
    <use
       style="fill:currentColor; stroke:none"
       id="gpPt4-3"
       xlink:href="#gpPt3-0" />
    <circle
       r="1"
       cy="0"
       cx="0"
       style="stroke-width:0.133"
       id="gpPt5-3" />
    <use
       style="fill:currentColor; stroke:none"
       id="gpPt6-1"
       xlink:href="#gpPt5-3" />
    <path
       d="M0,-1.33 L-1.33,0.67 L1.33,0.67 z"
       style="stroke-width:0.133"
       id="gpPt7-4" />
    <use
       style="fill:currentColor; stroke:none"
       id="gpPt8-1"
       xlink:href="#gpPt7-4" />
    <use
       transform="rotate(180)"
       id="gpPt9-2"
       xlink:href="#gpPt7-4" />
    <use
       style="fill:currentColor; stroke:none"
       id="gpPt10-2"
       xlink:href="#gpPt9-2" />
    <use
       transform="rotate(45)"
       id="gpPt11-0"
       xlink:href="#gpPt3-0" />
    <use
       style="fill:currentColor; stroke:none"
       id="gpPt12-4"
       xlink:href="#gpPt11-0" />
  </defs>
  <g
     style="color:#000000;fill:none;stroke:currentColor;stroke-width:1"
     id="g2355" />
  <g
     style="color:#ff0000;fill:none;stroke:#0003ff;stroke-width:10;stroke-linecap:round;stroke-linejoin:round;stroke-miterlimit:4;stroke-dasharray:none;stroke-opacity:1"
     id="g2485"
     transform="matrix(1,0,0,0.744359,-1.8800134,15.286173)" />
  <g
     transform="matrix(1,0,0,0.744359,4.6338474,28.313894)"
     id="g4877"
     style="color:#ff0000;fill:none;stroke:#0003ff;stroke-width:10;stroke-linecap:round;stroke-linejoin:round;stroke-miterlimit:4;stroke-dasharray:none;stroke-opacity:1" />
  <g
     style="color:#ff0000;fill:none;stroke:#0003ff;stroke-width:10;stroke-linecap:round;stroke-linejoin:round;stroke-miterlimit:4;stroke-dasharray:none;stroke-opacity:1"
     id="g4887"
     transform="matrix(1,0,0,-0.75024918,519.161,846.04031)" />
  <g
     transform="matrix(1,0,0,-0.75024918,409.30033,845.10976)"
     id="g4892"
     style="color:#ff0000;fill:none;stroke:#0003ff;stroke-width:10;stroke-linecap:round;stroke-linejoin:round;stroke-miterlimit:4;stroke-dasharray:none;stroke-opacity:1" />
  <g
     style="color:#ff0000;fill:none;stroke:#0003ff;stroke-width:10;stroke-linecap:round;stroke-linejoin:round;stroke-miterlimit:4;stroke-dasharray:none;stroke-opacity:1"
     id="g4896"
     transform="matrix(1,0,0,-0.75024918,491.66992,553.83705)">
    <path
       id="path4894"
       style="stroke:#000000;stroke-width:0.36445895;stroke-linecap:round;stroke-linejoin:round;stroke-miterlimit:4;stroke-dasharray:none;stroke-opacity:1"
       d="m 498.72181,566.49193 c -4.22313,-5.73255 -8.29302,-11.67861 -13.28,-16.07742 -23.87278,-21.05717 -49.47265,-51.13709 -77.99673,-47.90852 -33.82998,3.82913 -54.65402,54.02202 -83.99245,76.79756 -25.40134,19.71916 -49.92925,53.86017 -79.27146,51.50071 -34.2252,-2.75211 -56.99975,-50.8805 -86.37471,-74.45192 C 133.77455,537.06835 112.39892,500.89303 84.353339,501.61791 53.24607,502.42193 28.081106,538.26873 4.70849,566.49193 m 0,-42.65241 c 23.372616,-28.2232 48.542088,-63.80418 79.644849,-64.87401 29.742481,-1.02304 52.987981,36.22726 78.460801,56.71826 27.92798,22.466 48.82187,69.52401 81.36703,72.46808 29.32809,2.65305 53.87012,-31.78154 79.27146,-51.5007 29.33844,-22.77554 50.16247,-72.96844 83.99245,-76.79757 28.52408,-3.22857 54.12395,26.85137 77.99673,47.90853 4.98698,4.3988 9.05687,10.34486 13.28,16.07741 m 0,42.65241 c -4.22313,-5.73255 -8.29302,-11.67861 -13.28,-16.07742 -23.87278,-21.05717 -49.47265,-51.13709 -77.99673,-47.90852 -33.82998,3.82913 -54.65402,54.02202 -83.99245,76.79756 -25.40134,19.71916 -49.92925,53.86017 -79.27146,51.50071 -34.2252,-2.75211 -56.99975,-50.8805 -86.37471,-74.45192 C 133.77455,537.06835 112.39892,500.89303 84.353339,501.61791 53.24607,502.42193 28.081106,538.26873 4.70849,566.49193 m 0,-42.65241 c 23.372616,-28.2232 48.542088,-63.80418 79.644849,-64.87401 29.742481,-1.02304 52.987981,36.22726 78.460801,56.71826 27.92798,22.466 48.82187,69.52401 81.36703,72.46808 29.32809,2.65305 53.87012,-31.78154 79.27146,-51.5007 29.33844,-22.77554 50.16247,-72.96844 83.99245,-76.79757 28.52408,-3.22857 54.12395,26.85137 77.99673,47.90853 4.98698,4.3988 9.05687,10.34486 13.28,16.07741 M 4.7084874,524.17438 c -4.22313,5.68754 -8.2993457,11.59088 -13.28,15.9512 -23.8944174,20.9184 -49.5109264,50.74357 -77.9967304,47.53239 -33.746197,-3.80418 -54.670007,-53.60829 -83.992447,-76.19463 -25.41302,-19.57502 -49.9729,-53.4427 -79.27146,-51.09638 -34.14669,2.73457 -57.00653,50.48606 -86.37471,73.86741 -24.03708,19.13701 -45.53138,51.54211 -73.45312,54.30471 -14.7617,1.46053 -28.4257,-9.76301 -41.58792,-20.75295 m -1.43742,38.96415 c 23.77757,24.22323 27.48583,25.09843 43.02534,24.10633 29.66545,-1.89396 54.26139,-33.32377 78.4608,-56.27296 26.75832,-25.3759 48.89993,-68.97384 81.36703,-71.89914 29.28456,-2.63855 53.85844,31.52136 79.27146,51.09637 29.32244,22.58635 50.24625,72.39046 83.992447,76.19464 28.485805,3.21118 54.10231,-26.614 77.9967304,-47.5324 4.9806533,-4.36032 9.05687,-10.26365 13.28,-15.95119 m 274.3197826,2.48064 c -4.22313,-5.73255 -8.29302,-11.67861 -13.28,-16.07742 -23.87278,-21.05717 -49.47265,-51.13709 -77.99673,-47.90852 -33.82998,3.82913 -54.65402,54.02202 -83.99245,76.79756 -25.401336,19.71916 -49.929253,53.86017 -79.27146,51.50071 -34.2252027,-2.75211 -56.99975,-50.88049 -86.37471,-74.45192 -24.031914,-19.28399 -45.40754,-55.45931 -73.45312,-54.73443 -31.10727,0.80402 -56.27223,36.65082 -79.64485,64.87402 m 0,-42.65241 c 23.37262,-28.2232 48.54209,-63.80418 79.64485,-64.87401 29.74248,-1.02304 52.987984,36.22726 78.4608,56.71826 27.927975,22.466 48.8218719,69.52401 81.36703,72.46808 29.328087,2.65305 53.870125,-31.78154 79.27146,-51.5007 29.33844,-22.77554 50.16247,-72.96844 83.99245,-76.79757 28.52408,-3.22857 54.12395,26.85137 77.99673,47.90853 4.98698,4.3988 9.05687,10.34486 13.28,16.07741 m 0,42.65241 c -4.22313,-5.73255 -8.29302,-11.67861 -13.28,-16.07742 -23.87278,-21.05717 -49.47265,-51.13709 -77.99673,-47.90852 -33.82998,3.82913 -54.65402,54.02202 -83.99245,76.79756 -25.401336,19.71916 -49.929253,53.86017 -79.27146,51.50071 -34.2252027,-2.75211 -56.99975,-50.88049 -86.37471,-74.45192 -24.031914,-19.28399 -45.40754,-55.45931 -73.45312,-54.73443 -31.10727,0.80402 -56.27223,36.65082 -79.64485,64.87402 m 0,-42.65241 c 23.37262,-28.2232 48.54209,-63.80418 79.64485,-64.87401 29.74248,-1.02304 52.987984,36.22726 78.4608,56.71826 27.927975,22.466 48.8218719,69.52401 81.36703,72.46808 29.328087,2.65305 53.870125,-31.78154 79.27146,-51.5007 29.33844,-22.77554 50.16247,-72.96844 83.99245,-76.79757 28.52408,-3.22857 54.12395,26.85137 77.99673,47.90853 4.98698,4.3988 9.05687,10.34486 13.28,16.07741 m -494.01332,0.33486 c -4.22313,5.68754 -8.29935,11.59088 -13.28,15.9512 -23.89442,20.9184 -49.51093,50.74357 -77.99673,47.53239 -33.7462,-3.80418 -56.52645,-49.58734 -83.99245,-76.19463 -23.74295,-23.00063 -48.63283,-52.20826 -79.27146,-51.09638 m 0,42.31755 c 30.63863,-5.15839 55.53708,28.08004 79.27146,51.09637 28.39422,27.5352 50.24625,72.39046 83.99245,76.19464 28.4858,3.21118 54.10231,-26.614 77.99673,-47.5324 4.98065,-4.36032 9.05687,-10.26365 13.28,-15.95119 m 603.87399,-1.24032 c -4.22313,-5.73255 -8.29302,-11.67861 -13.28,-16.07742 -23.87278,-21.05717 -49.47265,-51.13709 -77.99673,-47.90852 -33.82998,3.82913 -54.65402,54.02202 -83.99245,76.79756 -25.40134,19.71916 -49.92925,53.86017 -79.27146,51.50071 -34.2252,-2.75211 -56.99975,-50.8805 -86.37471,-74.45192 -24.031914,-19.28399 -45.4075448,-55.45931 -73.453121,-54.73443 -31.107269,0.80402 -56.272233,36.65082 -79.644849,64.87402 m 0,-42.65241 c 23.372616,-28.2232 48.542088,-63.80418 79.644849,-64.87401 29.7424845,-1.02304 52.987985,36.22726 78.460801,56.71826 27.927975,22.466 48.82187,69.52401 81.36703,72.46808 29.32809,2.65305 53.87012,-31.78154 79.27146,-51.5007 29.33844,-22.77554 50.16247,-72.96844 83.99245,-76.79757 28.52408,-3.22857 54.12395,26.85137 77.99673,47.90853 4.98698,4.3988 9.05687,10.34486 13.28,16.07741 m 0,42.65241 c -4.22313,-5.73255 -8.29302,-11.67861 -13.28,-16.07742 -23.87278,-21.05717 -49.47265,-51.13709 -77.99673,-47.90852 -33.82998,3.82913 -54.65402,54.02202 -83.99245,76.79756 -25.40134,19.71916 -49.92925,53.86017 -79.27146,51.50071 -34.2252,-2.75211 -56.99975,-50.8805 -86.37471,-74.45192 -24.031914,-19.28399 -45.4075448,-55.45931 -73.453121,-54.73443 -31.107269,0.80402 -56.272233,36.65082 -79.644849,64.87402 m 0,-42.65241 c 23.372616,-28.2232 48.542088,-63.80418 79.644849,-64.87401 29.7424845,-1.02304 52.987985,36.22726 78.460801,56.71826 27.927975,22.466 48.82187,69.52401 81.36703,72.46808 29.32809,2.65305 53.87012,-31.78154 79.27146,-51.5007 29.33844,-22.77554 50.16247,-72.96844 83.99245,-76.79757 28.52408,-3.22857 54.12395,26.85137 77.99673,47.90853 4.98698,4.3988 9.05687,10.34486 13.28,16.07741 m -494.01332,0.33486 c -4.22313,5.68754 -8.29935,11.59088 -13.28,15.9512 -23.89442,20.9184 -49.51093,50.74357 -77.99673,47.53239 -33.7462,-3.80418 -54.67001,-53.60829 -83.99245,-76.19463 -25.41302,-19.57502 -49.9729,-53.4427 -79.27146,-51.09638 -34.14669,2.73457 -61.88103,44.78291 -86.37471,73.86741 m 5.00768,40.34928 c 24.49368,-29.08449 48.89993,-68.97384 81.36703,-71.89914 29.28456,-2.63855 53.85844,31.52136 79.27146,51.09637 29.32244,22.58635 50.24625,72.39046 83.99245,76.19464 28.4858,3.21118 54.10231,-26.614 77.99673,-47.5324 4.98065,-4.36032 9.05687,-10.26365 13.28,-15.95119"
       inkscape:connector-curvature="0"
       sodipodi:nodetypes="caaaaaaccaaaaaaccaaaaaaccaaaaaaccaaaaaaccasaaaaccaaaaaaccaaaaaaccaaaaaaccaaaaaaccaasccsaaccaaaaaaccaaaaaaccaaaaaaccaaaaaaccaaaaccaaaac" />
  </g>
  <text
     style="color:#000000;font-size:18.75px;font-family:'Times New Roman';text-anchor:end;fill:#000000;stroke:none;stroke-width:0.9375"
     id="text2367"
     x="18.327467"
     y="738.08978" />
  <text
     style="color:#000000;font-size:18.75px;font-family:'Times New Roman';text-anchor:end;fill:#000000;stroke:none;stroke-width:0.9375"
     id="text2379"
     x="18.327467"
     y="521.52728" />
  <text
     style="color:#000000;font-size:18.75px;font-family:'Times New Roman';text-anchor:end;fill:#000000;stroke:none;stroke-width:0.9375"
     id="text2391"
     x="18.327467"
     y="304.96478" />
  <text
     style="color:#000000;font-size:18.75px;font-family:'Times New Roman';text-anchor:middle;fill:#000000;stroke:none;stroke-width:0.9375"
     id="text2403"
     x="30.514967"
     y="874.96478" />
  <text
     style="color:#000000;font-size:18.75px;font-family:'Times New Roman';text-anchor:middle;fill:#000000;stroke:none;stroke-width:0.9375"
     id="text2415"
     x="173.95247"
     y="874.96478" />
  <text
     style="color:#000000;font-size:18.75px;font-family:'Times New Roman';text-anchor:middle;fill:#000000;stroke:none;stroke-width:0.9375"
     id="text2427"
     x="317.38998"
     y="874.96478" />
  <text
     style="color:#000000;font-size:18.75px;font-family:'Times New Roman';text-anchor:middle;fill:#000000;stroke:none;stroke-width:0.9375"
     id="text2439"
     x="460.82748"
     y="874.96478" />
  <text
     style="color:#000000;font-size:18.75px;font-family:'Times New Roman';text-anchor:middle;fill:#000000;stroke:none;stroke-width:0.9375"
     id="text2451"
     x="604.26495"
     y="874.96478" />
  <text
     style="color:#000000;font-size:18.75px;font-family:'Times New Roman';text-anchor:middle;fill:#000000;stroke:none;stroke-width:0.9375"
     id="text2463"
     x="747.70245"
     y="874.96478" />
  <path
     style="color:#000000;fill:none;stroke:#000000;stroke-width:0.9375"
     id="path2471"
     d="m 891.13999,840.2773 m 0,-650.62501"
     inkscape:connector-curvature="0" />
  <text
     style="color:#000000;font-size:18.75px;font-family:'Times New Roman';text-anchor:middle;fill:#000000;stroke:none;stroke-width:0.9375"
     id="text2475"
     x="891.14001"
     y="874.96478" />
  <path
     sodipodi:nodetypes="ccccccccc"
     inkscape:connector-curvature="0"
     id="path5287"
     d="m 324.03491,444.44155 c -19.70419,12.01045 -34.14342,21.16555 -58.48414,23.27288 -28.28107,1.19961 -53.2538,-13.40536 -73.32164,-29.72314 -31.3246,-25.75016 -62.33482,-51.8096 -94.08433,-77.14942 l -35.415612,28.7234 c 46.641572,33.83388 82.086792,72.90242 133.646642,101.19269 28.37697,14.45791 62.81596,21.2728 95.00044,14.68778 24.93675,-7.05854 45.51516,-20.98732 65.59605,-35.57635 z"
     style="color:#ff0000;fill:none;stroke:#000000;stroke-width:0.59310293;stroke-linecap:round;stroke-linejoin:round;stroke-miterlimit:4;stroke-dasharray:none;stroke-opacity:1" />
  <path
     style="color:#ff0000;fill:none;stroke:#000000;stroke-width:0.59310293;stroke-linecap:round;stroke-linejoin:round;stroke-miterlimit:4;stroke-dasharray:none;stroke-opacity:1"
     d="m 517.76583,444.44155 c -19.70419,12.01045 -34.14341,21.16555 -58.48413,23.27288 -28.28108,1.19961 -53.25381,-13.40536 -73.32165,-29.72314 -31.32459,-25.75016 -62.33481,-51.8096 -94.08432,-77.14942 l -35.41561,28.7234 c 46.64157,33.83388 82.08678,72.90242 133.64664,101.19269 28.37696,14.45791 62.81595,21.2728 95.00043,14.68778 24.93675,-7.05854 45.51516,-20.98732 65.59606,-35.57635 z"
     id="path5295"
     inkscape:connector-curvature="0"
     sodipodi:nodetypes="ccccccccc" />
  <path
     sodipodi:nodetypes="ccccccccc"
     inkscape:connector-curvature="0"
     id="path5297"
     d="m 711.49675,444.44155 c -19.70418,12.01045 -34.14341,21.16555 -58.48413,23.27288 -28.28108,1.19961 -53.25381,-13.40536 -73.32165,-29.72314 -31.32459,-25.75016 -62.33481,-51.8096 -94.08432,-77.14942 l -35.41561,28.7234 c 46.64158,33.83388 82.08679,72.90242 133.64664,101.19269 28.37697,14.45791 62.81595,21.2728 95.00043,14.68778 24.93675,-7.05854 45.51516,-20.98732 65.59606,-35.57635 z"
     style="color:#ff0000;fill:none;stroke:#000000;stroke-width:0.59310293;stroke-linecap:round;stroke-linejoin:round;stroke-miterlimit:4;stroke-dasharray:none;stroke-opacity:1" />
  <path
     style="color:#ff0000;fill:none;stroke:#000000;stroke-width:0.59310293;stroke-linecap:round;stroke-linejoin:round;stroke-miterlimit:4;stroke-dasharray:none;stroke-opacity:1"
     d="m 420.98835,356.35016 c -19.70419,-12.01046 -34.14341,-21.16555 -58.48414,-23.27288 -28.28107,-1.19962 -53.2538,13.40536 -73.32164,29.72313 -31.32459,25.75016 -62.33481,51.80961 -94.08432,77.14942 l -35.41561,-28.7234 c 46.64157,-33.83388 82.08678,-72.90241 133.64664,-101.19268 28.37696,-14.45791 62.81595,-21.2728 95.00043,-14.68778 24.93675,7.05853 45.51516,20.98732 65.59605,35.57634 z"
     id="path5299"
     inkscape:connector-curvature="0"
     sodipodi:nodetypes="ccccccccc" />
  <path
     sodipodi:nodetypes="ccccccccc"
     inkscape:connector-curvature="0"
     id="path5301"
     d="m 614.71927,356.35016 c -19.70419,-12.01046 -34.14341,-21.16555 -58.48413,-23.27288 -28.28108,-1.19962 -53.25381,13.40536 -73.32165,29.72313 -31.32459,25.75016 -62.33481,51.80961 -94.08432,77.14942 l -35.41561,-28.7234 c 46.64157,-33.83388 82.08679,-72.90241 133.64664,-101.19268 28.37697,-14.45791 62.81595,-21.2728 95.00043,-14.68778 24.93675,7.05853 45.51516,20.98732 65.59606,35.57634 z"
     style="color:#ff0000;fill:none;stroke:#000000;stroke-width:0.59310293;stroke-linecap:round;stroke-linejoin:round;stroke-miterlimit:4;stroke-dasharray:none;stroke-opacity:1" />
  <path
     style="color:#ff0000;fill:none;stroke:#000000;stroke-width:0.59310293;stroke-linecap:round;stroke-linejoin:round;stroke-miterlimit:4;stroke-dasharray:none;stroke-opacity:1"
     d="m 808.45019,356.35016 c -19.70418,-12.01046 -34.14341,-21.16555 -58.48413,-23.27288 -28.28108,-1.19962 -53.25381,13.40536 -73.32164,29.72313 -31.3246,25.75016 -62.33482,51.80961 -94.08433,77.14942 l -35.41561,-28.7234 c 46.64158,-33.83388 82.08679,-72.90241 133.64664,-101.19268 28.37697,-14.45791 62.81595,-21.2728 95.00043,-14.68778 24.93675,7.05853 45.51516,20.98732 65.59606,35.57634 z"
     id="path5303"
     inkscape:connector-curvature="0"
     sodipodi:nodetypes="ccccccccc" />
  <path
     style="color:#ff0000;fill:none;stroke:#000000;stroke-width:0.59310293;stroke-linecap:round;stroke-linejoin:round;stroke-miterlimit:4;stroke-dasharray:none;stroke-opacity:1"
     d="m 905.22767,444.44155 c -19.70418,12.01045 -34.14341,21.16555 -58.48413,23.27288 -28.28108,1.19961 -53.25381,-13.40536 -73.32164,-29.72314 -31.3246,-25.75016 -62.33482,-51.8096 -94.08433,-77.14942 l -35.41561,28.7234 c 46.64158,33.83388 82.08679,72.90242 133.64664,101.19269 28.37697,14.45791 62.81596,21.2728 95.00043,14.68778 24.93675,-7.05854 45.51516,-20.98732 65.59606,-35.57635 z"
     id="path5305"
     inkscape:connector-curvature="0"
     sodipodi:nodetypes="ccccccccc" />
</svg>
