<?xml version="1.0" encoding="UTF-8" standalone="no"?>
<!-- Created with Inkscape (http://www.inkscape.org/) -->

<svg
   xmlns:dc="http://purl.org/dc/elements/1.1/"
   xmlns:cc="http://creativecommons.org/ns#"
   xmlns:rdf="http://www.w3.org/1999/02/22-rdf-syntax-ns#"
   xmlns:svg="http://www.w3.org/2000/svg"
   xmlns="http://www.w3.org/2000/svg"
   xmlns:sodipodi="http://sodipodi.sourceforge.net/DTD/sodipodi-0.dtd"
   xmlns:inkscape="http://www.inkscape.org/namespaces/inkscape"
   width="199.17407mm"
   height="258.02609mm"
   viewBox="0 0 199.17407 258.02608"
   version="1.1"
   id="svg8"
   inkscape:version="0.92.1 r15371"
   sodipodi:docname="BMan_02.svg"
   inkscape:export-filename="C:\Users\l501665\Documents\Misc_Graphics\BrokenMan\BMan_02.png"
   inkscape:export-xdpi="96"
   inkscape:export-ydpi="96">
  <defs
     id="defs2" />
  <sodipodi:namedview
     id="base"
     pagecolor="#ffffff"
     bordercolor="#666666"
     borderopacity="1.0"
     inkscape:pageopacity="0.0"
     inkscape:pageshadow="2"
     inkscape:zoom="0.29400452"
     inkscape:cx="-220.6172"
     inkscape:cy="290.8377"
     inkscape:document-units="mm"
     inkscape:current-layer="layer1"
     showgrid="false"
     inkscape:window-width="1280"
     inkscape:window-height="737"
     inkscape:window-x="1272"
     inkscape:window-y="-8"
     inkscape:window-maximized="1"
     inkscape:snap-global="false"
     fit-margin-top="0"
     fit-margin-left="0"
     fit-margin-right="0"
     fit-margin-bottom="0" />
  <metadata
     id="metadata5">
    <rdf:RDF>
      <cc:Work
         rdf:about="">
        <dc:format>image/svg+xml</dc:format>
        <dc:type
           rdf:resource="http://purl.org/dc/dcmitype/StillImage" />
        <dc:title></dc:title>
      </cc:Work>
    </rdf:RDF>
  </metadata>
  <g
     inkscape:label="Layer 1"
     inkscape:groupmode="layer"
     id="layer1"
     style="display:inline;opacity:1"
     transform="translate(25.373478,24.452139)">
    <path
       style="display:inline;fill:#000000;fill-opacity:1;stroke:#000000;stroke-width:0.253277px;stroke-linecap:butt;stroke-linejoin:miter;stroke-opacity:1"
       d="M 88.733282,-24.169123 68.734552,8.9061415 49.600328,48.040771 42.983172,76.507704 -0.19468387,105.84178 -16.904047,118.16745 l -5.668066,6.95758 -2.674183,7.23819 0.233533,9.75618 8.151644,91.27709 3.363772,-1.27186 -7.231985,-88.67309 0.495893,-10.46912 1.504461,-6.52256 4.886154,-5.83117 L 1.8320395,107.92667 45.511957,78.07686 52.843696,48.525032 71.949767,10.75396 l 19.324942,-33.122207 3.227496,0.141207 2.790283,1.228538 1.193045,2.517398 -1.413338,2.866266 -32.33356,68.055004 -2.954061,-0.868879 -5.612627,-0.372125 4.712591,2.477847 2.375483,1.968348 -2.039132,14.016734 61.244801,-37.616153 5.91479,0.692372 14.41564,22.079051 -1.67638,5.314126 -9.10201,7.038955 -60.23108,31.2843 42.88157,22.118588 31.32125,15.79646 10.69879,12.59022 -2.59594,3.37299 -7.74209,1.27207 -10.67117,-11.0661 1.92714,-4.86893 -4.61833,2.78012 -56.772421,-23.33778 -16.90289,-10.8803 -40.796718,33.69636 -5.456491,-10.02398 -15.7453636,-5.17499 -4.0639659,0.0707 17.0663905,7.18498 4.564818,10.3903 11.820927,82.55743 4.07844,-0.33595 -10.964551,-80.13464 40.409945,-33.57635 14.482217,8.68572 57.393163,23.54193 13.07618,13.68413 10.77959,-2.24781 4.84186,-5.11301 -12.11446,-15.69984 -31.14233,-15.58384 -38.846704,-19.434027 56.389244,-30.007846 9.37705,-7.778833 0.53008,-5.320174 14.41417,-6.018722 6.21902,1.519529 1.22057,3.990978 6.79217,-1.834113 -1.67191,-4.989625 -14.08934,-2.728673 -14.35488,6.180763 -0.43233,-0.889961 9.28363,-5.893709 9.69576,-3.178788 -3.16321,-6.055078 -5.50842,0.648843 1.20822,4.110345 -5.59758,1.696345 -8.20259,5.109174 -0.72868,-1.188737 10.243,-6.804897 3.9767,-5.623922 6.83901,0.142962 0.79407,-2.82661 -9.96924,-1.266989 -5.85389,6.991986 -8.77892,4.954741 -0.63956,-0.977821 11.98489,-9.610063 2.33245,-4.006614 1.98205,-6.748601 -6.0402,-0.730728 -1.61644,5.824896 -2.24575,3.67609 -9.34395,7.329162 -0.83578,-1.314551 8.97381,-7.125422 1.4762,-5.806182 -3.05829,-6.533615 -4.70787,2.118864 1.76759,4.878891 -1.6816,3.97217 -5.51284,4.137218 -8.31032,-0.667723 -57.652928,34.199149 3.179941,-10.18685 32.863197,-68.523169 0.93099,-3.20666 -1.14118,-4.241524 -4.305432,-2.439854 z M 112.7227,44.809781 c -1.7982,0.405984 -3.47178,1.196361 -4.40136,2.091085 -2.16205,2.144174 -4.33319,5.787885 -2.26582,7.933133 1.81144,1.879667 6.62399,1.861384 9.16783,0.501742 3.57385,-1.910163 5.81927,-6.917294 3.74132,-9.588638 -1.4116,-1.345751 -3.93001,-1.45931 -6.24197,-0.937322 z m -2.27311,3.950942 c 1.52309,-0.313055 3.36321,-0.338897 4.08156,1.7436 0.64891,1.881322 -1.31362,3.068569 -3.02207,3.283237 -1.45829,0.183232 -3.23306,-0.92664 -3.48517,-2.040463 -0.25864,-1.142683 0.95848,-2.684799 2.42568,-2.986374 z m -20.363718,5.51496 c -2.578618,0.572349 -3.726275,4.813298 -4.132032,7.195465 -0.550486,3.231892 1.043495,6.645426 3.271067,9.373884 2.164997,2.651811 5.441803,4.997458 9.251422,6.115085 3.505371,1.028364 10.376811,3.021274 11.318661,0.191325 0.7172,-2.154958 -5.37652,-1.600041 -7.71979,-2.847926 -3.04403,-1.621067 -6.103682,-3.466863 -8.014639,-5.909352 -1.798771,-2.299057 -2.422623,-5.092039 -2.885848,-7.76877 -0.362383,-2.093844 2.758522,-5.833924 0.106026,-6.354106 -0.428784,-0.08409 -0.826548,-0.07736 -1.194937,0.0044 z m 29.333768,4.028581 c -0.57235,0.124921 -1.09847,0.296632 -1.54911,0.512903 -2.9625,1.468324 -6.39639,4.52234 -5.34872,7.094981 0.91292,2.24188 5.38192,3.522215 8.34555,2.865113 4.02246,-0.891872 7.93326,-4.915966 7.16575,-7.989088 -1.0912,-2.46487 -5.52281,-3.158684 -8.61347,-2.483909 z m -1.55898,3.915509 c 0.28002,-0.07291 0.56406,-0.111961 0.84142,-0.109083 1.71066,0.01773 3.88458,0.572256 3.64053,2.732959 -0.22049,1.951968 -2.79616,2.572654 -4.56332,2.315069 -1.4223,-0.207312 -2.6167,-1.640443 -2.42534,-2.752378 0.15834,-0.920243 1.29331,-1.870642 2.50671,-2.186565 z"
       id="path3721-0"
       inkscape:connector-curvature="0"
       sodipodi:nodetypes="cccccccccccccccccccccccccccccccccccccccccccccccccccccccccccccccccccccccccccccccccccccccccccccccccccccccccccccccccccccsccccscccccccccccccccccccccccccc" />
    <g
       id="g3694"
       transform="matrix(0.65803275,0,0,1.2965476,1.5685368,-77.567984)">
      <text
         transform="scale(1.060779,0.94270346)"
         id="text14"
         y="201.11282"
         x="39.619102"
         style="font-style:normal;font-variant:normal;font-weight:normal;font-stretch:normal;font-size:26.71482468px;line-height:1.25;font-family:'Gill Sans Ultra Bold';-inkscape-font-specification:'Gill Sans Ultra Bold, Normal';font-variant-ligatures:normal;font-variant-caps:normal;font-variant-numeric:normal;font-feature-settings:normal;text-align:start;letter-spacing:0px;word-spacing:0px;writing-mode:lr-tb;text-anchor:start;fill:#000000;fill-opacity:1;stroke:none;stroke-width:0.59515446"
         xml:space="preserve"><tspan
           style="font-style:normal;font-variant:normal;font-weight:normal;font-stretch:normal;font-size:26.71482468px;font-family:'Gill Sans Ultra Bold';-inkscape-font-specification:'Gill Sans Ultra Bold, Normal';font-variant-ligatures:normal;font-variant-caps:normal;font-variant-numeric:normal;font-feature-settings:normal;text-align:start;writing-mode:lr-tb;text-anchor:start;stroke-width:0.59515446"
           y="201.11282"
           x="39.619102"
           id="tspan12"
           sodipodi:role="line">BROKEN</tspan></text>
      <text
         transform="scale(1.4500814,0.68961646)"
         id="text18"
         y="304.28363"
         x="27.907188"
         style="font-style:normal;font-variant:normal;font-weight:normal;font-stretch:normal;font-size:35.00138474px;line-height:1.25;font-family:'Gill Sans Ultra Bold';-inkscape-font-specification:'Gill Sans Ultra Bold, Normal';font-variant-ligatures:normal;font-variant-caps:normal;font-variant-numeric:normal;font-feature-settings:normal;text-align:start;letter-spacing:0px;word-spacing:0px;writing-mode:lr-tb;text-anchor:start;fill:#000000;fill-opacity:1;stroke:none;stroke-width:0.97030437"
         xml:space="preserve"><tspan
           style="font-style:normal;font-variant:normal;font-weight:normal;font-stretch:normal;font-size:35.00138474px;font-family:'Gill Sans Ultra Bold';-inkscape-font-specification:'Gill Sans Ultra Bold, Normal';font-variant-ligatures:normal;font-variant-caps:normal;font-variant-numeric:normal;font-feature-settings:normal;text-align:start;writing-mode:lr-tb;text-anchor:start;stroke-width:0.97030437"
           y="304.28363"
           x="27.907188"
           id="tspan16"
           sodipodi:role="line">MAN</tspan></text>
    </g>
  </g>
</svg>
