<?xml version="1.0" encoding="UTF-8" standalone="no"?>
<!-- Created with Inkscape (http://www.inkscape.org/) -->

<svg
   xmlns:dc="http://purl.org/dc/elements/1.1/"
   xmlns:cc="http://creativecommons.org/ns#"
   xmlns:rdf="http://www.w3.org/1999/02/22-rdf-syntax-ns#"
   xmlns:svg="http://www.w3.org/2000/svg"
   xmlns="http://www.w3.org/2000/svg"
   xmlns:sodipodi="http://sodipodi.sourceforge.net/DTD/sodipodi-0.dtd"
   xmlns:inkscape="http://www.inkscape.org/namespaces/inkscape"
   width="243.19101mm"
   height="257.34711mm"
   viewBox="0 0 243.19101 257.34709"
   version="1.1"
   id="svg8"
   inkscape:version="0.92.1 r15371"
   sodipodi:docname="BMan_01.svg"
   inkscape:export-filename="C:\Users\l501665\Documents\Misc_Graphics\BrokenMan\BMan_01.png"
   inkscape:export-xdpi="96"
   inkscape:export-ydpi="96">
  <defs
     id="defs2" />
  <sodipodi:namedview
     id="base"
     pagecolor="#ffffff"
     bordercolor="#666666"
     borderopacity="1.0"
     inkscape:pageopacity="0.0"
     inkscape:pageshadow="2"
     inkscape:zoom="0.29400452"
     inkscape:cx="653.05298"
     inkscape:cy="298.78871"
     inkscape:document-units="mm"
     inkscape:current-layer="layer1"
     showgrid="false"
     inkscape:window-width="1280"
     inkscape:window-height="737"
     inkscape:window-x="1272"
     inkscape:window-y="-8"
     inkscape:window-maximized="1"
     inkscape:snap-global="false"
     fit-margin-top="0"
     fit-margin-left="0"
     fit-margin-right="0"
     fit-margin-bottom="0" />
  <metadata
     id="metadata5">
    <rdf:RDF>
      <cc:Work
         rdf:about="">
        <dc:format>image/svg+xml</dc:format>
        <dc:type
           rdf:resource="http://purl.org/dc/dcmitype/StillImage" />
        <dc:title></dc:title>
      </cc:Work>
    </rdf:RDF>
  </metadata>
  <g
     inkscape:label="Layer 1"
     inkscape:groupmode="layer"
     id="layer1"
     style="display:inline;opacity:1"
     transform="translate(59.447492,21.669443)">
    <path
       style="display:inline;fill:#000000;fill-opacity:1;stroke:#000000;stroke-width:0.2416354px;stroke-linecap:butt;stroke-linejoin:miter;stroke-opacity:1"
       d="M 136.52376,-13.21835 110.5398,16.218303 83.50316,52.093887 69.814425,79.876958 25.939289,100.10636 8.6771887,108.9375 l -6.6622664,5.8546 -4.2925191,6.8352 -2.643384,10.0997 -19.8456732,95.86942 3.123653,-0.53248 19.8420805,-92.97567 3.4477463,-10.66527 3.1268785,-6.36858 5.6947937,-4.87539 16.524444,-9.45768 44.436046,-20.644443 14.589015,-28.735077 26.617417,-34.47806 25.44593,-29.640653 2.60151,0.8910391 1.92764,1.9096368 0.2454,2.8677395 -1.98996,2.6248138 -46.246345,62.6048858 -2.166222,-1.577139 -4.487279,-1.679845 3.138562,3.640131 1.373063,2.575571 -5.742025,13.961648 61.073936,-24.583305 4.64163,2.079405 5.38805,26.064772 -2.91654,5.084554 -9.49749,5.145046 -58.404262,18.29773 28.683342,32.68191 21.05505,23.50139 5.10175,15.43561 -3.10545,2.87337 -6.70852,-0.47882 -5.52195,-13.85988 2.9925,-4.56821 -4.58905,1.79567 -39.70239,-37.14648 -10.678224,-15.10827 -43.192987,25.27127 -1.555161,-11.5821 -11.388127,-8.9662 -3.347932,-0.86618 11.885741,11.34105 0.718665,11.75328 -14.307976,87.73868 3.436876,0.59631 14.305213,-85.04612 42.841443,-25.23705 9.333893,12.28931 40.151316,37.50009 6.73043,17.11124 9.47899,0.17586 5.44988,-4.14615 -5.35737,-18.96459 -20.97034,-23.24112 -26.159725,-28.98551 54.887855,-17.870961 9.93765,-5.84334 1.97974,-5.355615 13.55046,-2.867271 4.65039,3.001395 -0.16019,4.391416 6.09405,-0.319365 0.0808,-5.523975 -10.74299,-6.064693 -13.54899,3.047821 -0.0954,-1.016254 9.31344,-3.923853 8.86208,-1.033138 -0.83065,-6.965581 -4.69859,-0.6045 -0.20499,4.511472 -5.07594,0.453491 -8.20039,3.365784 -0.25124,-1.392366 10.36369,-4.640438 4.88995,-4.87211 5.55797,1.727209 1.47141,-2.727048 -7.79431,-3.607771 -6.8244,5.847093 -8.6274,3.073616 -0.23955,-1.154599 12.60489,-7.126438 3.07381,-3.586667 3.58359,-6.490986 -4.73317,-2.147873 -3.01586,5.624334 -2.9068,3.266361 -9.77989,5.387973 -0.30237,-1.546655 9.41764,-5.263699 2.8956,-5.637463 -0.60571,-7.434081 -4.47023,1.094102 0.0297,5.432057 -2.53092,3.701563 -5.71573,2.986389 -6.61016,-2.607461 -57.140268,21.89471 5.563329,-9.754535 46.816019,-62.96458269 1.69393,-3.08674771 0.29798,-4.6310593 -2.81623,-3.5069433 z m -0.39975,76.568406 c -1.59025,0.0026 -3.19015,0.42979 -4.21121,1.136309 -2.39318,1.708317 -5.22947,4.958579 -4.16008,7.645118 0.93701,2.353948 4.88265,3.446958 7.36048,2.634661 3.48111,-1.141196 6.77436,-5.778181 5.84915,-9.008876 -0.76476,-1.711811 -2.79374,-2.410564 -4.83834,-2.407212 z m -3.00905,3.543053 c 1.338,0.02953 2.85213,0.428042 2.83523,2.738305 -0.0153,2.087077 -1.9671,2.856157 -3.42828,2.682496 -1.24722,-0.148233 -2.37787,-1.701068 -2.26067,-2.906193 0.12023,-1.236352 1.56481,-2.543049 2.85372,-2.514608 z m -18.27534,0.974047 c -2.27757,-0.0064 -4.4494,4.095279 -5.47374,6.454407 -1.38972,3.200635 -1.07641,7.083737 -0.0453,10.407806 1.00215,3.23069 3.00356,6.402992 5.79801,8.43392 2.57128,1.868727 7.61831,5.508281 9.21168,2.811933 1.21333,-2.053221 -3.9372,-2.889657 -5.49321,-4.715941 -2.02134,-2.372435 -3.99018,-4.979881 -4.84515,-7.936347 -0.80479,-2.78286 -0.50409,-5.802864 -0.10566,-8.666058 0.31165,-2.239708 3.95358,-5.369775 1.93299,-6.518188 -0.32664,-0.185649 -0.65427,-0.270618 -0.97964,-0.271532 z m 22.84685,10.925078 c -0.50491,-0.0036 -0.98556,0.05166 -1.41737,0.170237 -2.85219,0.827482 -6.55104,3.178816 -6.44072,6.069851 0.0961,2.519328 3.38315,4.870129 6.00057,4.878207 3.55256,0.01096 7.92374,-3.229062 8.18821,-6.57071 -0.17728,-2.790124 -3.60413,-4.528359 -6.33069,-4.547585 z m -2.41405,3.671552 c 0.25045,-0.01038 0.49436,0.01503 0.72061,0.08207 1.39547,0.413467 3.01428,1.486689 2.18668,3.655137 -0.74766,1.958963 -3.03685,2.003019 -4.40889,1.329525 -1.10429,-0.542057 -1.66583,-2.293662 -1.18609,-3.394391 0.39702,-0.910972 1.60241,-1.627371 2.68769,-1.672339 z"
       id="path3721-0"
       inkscape:connector-curvature="0"
       sodipodi:nodetypes="cccccccccccccccccccccccccccccccccccccccccccccccccccccccccccccccccccccccccccccccccccccccccccccccccccccccccccccccccccccsccccscccccccccccccccccccccccccc" />
    <text
       xml:space="preserve"
       style="font-style:normal;font-variant:normal;font-weight:normal;font-stretch:normal;font-size:80.81202698px;line-height:1.25;font-family:'Informal Roman';-inkscape-font-specification:'Informal Roman, Normal';font-variant-ligatures:normal;font-variant-caps:normal;font-variant-numeric:normal;font-feature-settings:normal;text-align:start;letter-spacing:0px;word-spacing:0px;writing-mode:lr-tb;text-anchor:start;fill:#000000;fill-opacity:1;stroke:none;stroke-width:4.95202827"
       x="-106.85351"
       y="72.802681"
       id="text4497"
       transform="matrix(0.71193005,-0.62296238,0.637975,0.84638312,0,0)"><tspan
         sodipodi:role="line"
         id="tspan4495"
         x="-106.85351"
         y="72.802681"
         style="font-style:normal;font-variant:normal;font-weight:normal;font-stretch:normal;font-size:80.81202698px;font-family:'Informal Roman';-inkscape-font-specification:'Informal Roman, Normal';font-variant-ligatures:normal;font-variant-caps:normal;font-variant-numeric:normal;font-feature-settings:normal;text-align:start;writing-mode:lr-tb;text-anchor:start;stroke-width:4.95202827">Broken</tspan></text>
    <text
       xml:space="preserve"
       style="font-style:normal;font-variant:normal;font-weight:normal;font-stretch:normal;font-size:75.97275543px;line-height:1.25;font-family:'Informal Roman';-inkscape-font-specification:'Informal Roman, Normal';font-variant-ligatures:normal;font-variant-caps:normal;font-variant-numeric:normal;font-feature-settings:normal;text-align:start;letter-spacing:0px;word-spacing:0px;writing-mode:lr-tb;text-anchor:start;fill:#000000;fill-opacity:1;stroke:none;stroke-width:4.65548563"
       x="95.805595"
       y="156.68172"
       id="text4501"
       transform="matrix(0.84585807,0.32025376,-0.30944188,1.0650724,0,0)"><tspan
         sodipodi:role="line"
         id="tspan4499"
         x="95.805595"
         y="156.68172"
         style="font-style:normal;font-variant:normal;font-weight:normal;font-stretch:normal;font-size:75.97275543px;font-family:'Informal Roman';-inkscape-font-specification:'Informal Roman, Normal';font-variant-ligatures:normal;font-variant-caps:normal;font-variant-numeric:normal;font-feature-settings:normal;text-align:start;writing-mode:lr-tb;text-anchor:start;stroke-width:4.65548563">Man</tspan></text>
  </g>
</svg>
