<?xml version="1.0" encoding="UTF-8" standalone="no"?>
<svg
   xmlns:dc="http://purl.org/dc/elements/1.1/"
   xmlns:cc="http://creativecommons.org/ns#"
   xmlns:rdf="http://www.w3.org/1999/02/22-rdf-syntax-ns#"
   xmlns:svg="http://www.w3.org/2000/svg"
   xmlns="http://www.w3.org/2000/svg"
   xmlns:sodipodi="http://sodipodi.sourceforge.net/DTD/sodipodi-0.dtd"
   xmlns:inkscape="http://www.inkscape.org/namespaces/inkscape"
   sodipodi:docname="BittenBagel.svg"
   inkscape:version="1.0 (4035a4fb49, 2020-05-01)"
   id="svg952"
   version="1.1"
   viewBox="0 0 210 297"
   height="297mm"
   width="210mm">
  <defs
     id="defs946" />
  <sodipodi:namedview
     inkscape:window-maximized="1"
     inkscape:window-y="-11"
     inkscape:window-x="-11"
     inkscape:window-height="986"
     inkscape:window-width="1920"
     inkscape:snap-global="false"
     inkscape:snap-others="false"
     showgrid="false"
     inkscape:document-rotation="0"
     inkscape:current-layer="layer1"
     inkscape:document-units="mm"
     inkscape:cy="634.40155"
     inkscape:cx="442.39346"
     inkscape:zoom="12.24"
     inkscape:pageshadow="2"
     inkscape:pageopacity="0.0"
     borderopacity="1.0"
     bordercolor="#666666"
     pagecolor="#ffffff"
     id="base" />
  <metadata
     id="metadata949">
    <rdf:RDF>
      <cc:Work
         rdf:about="">
        <dc:format>image/svg+xml</dc:format>
        <dc:type
           rdf:resource="http://purl.org/dc/dcmitype/StillImage" />
        <dc:title></dc:title>
      </cc:Work>
    </rdf:RDF>
  </metadata>
  <g
     id="layer1"
     inkscape:groupmode="layer"
     inkscape:label="Layer 1">
    <path
       sodipodi:nodetypes="scccccccssssccsccccsccsccssssccsssssscacssssssssssssssssccssscssssssssssssccccccssssccscssss"
       id="path2017"
       d="m 92.333984,97.414062 c -6.686357,-0.352583 -13.655998,1.396479 -19.537109,3.033208 -0.499317,0.13706 -0.817384,0.72359 -0.806641,1.18558 0.04741,0.61224 1.026658,1.04318 1.442518,1.38086 0.895488,0.58356 0.428904,1.23693 0.502795,2.15821 0.0483,0.62032 0.27208,0.88755 0.678289,1.60586 0.227715,0.39946 1.278452,0.71546 1.611489,0.91411 0.592679,0.29669 0.26538,1.42514 0.349002,1.94012 0.0667,0.41973 0.479211,0.44112 0.761401,1.03991 0.407553,0.8648 0.687562,1.08645 1.140942,1.56143 0.45338,0.47499 0.72208,0.59431 0.740736,0.87814 0.01126,0.17133 -0.06556,1.01212 -0.388175,1.46277 -0.321066,0.44849 -0.788805,0.95262 -1.052734,1.7207 -0.59207,1.18716 0.55218,2.73161 -0.169866,3.36328 -0.317871,0.27549 -1.182188,0.6289 -1.42734,1.34961 -0.301329,0.88588 0.144139,1.93113 0.27299,2.4327 0.220639,1.28285 -1.613871,0.9864 -2.291015,1.65625 -0.637755,0.65674 -1.271336,1.11278 -1.383923,1.65324 -0.131894,1.18156 0.281963,1.79172 -0.558747,1.92198 -0.812845,0.12334 -2.879157,0.20334 -3.825911,0.80469 -0.755667,0.47998 -1.53313,0.72057 -1.832139,1.18349 -0.791656,1.38886 -2.460566,1.15945 -3.572266,1.47265 -0.50844,0.14849 -0.922522,0.22464 -1.639568,0.40865 -0.717046,0.18401 -1.780914,0.44427 -1.977619,0.42534 -1.25353,-0.5556 -2.315349,-1.57465 -3.513783,-1.88064 -0.944607,-0.22358 -1.641133,-0.29047 -2.328014,-0.12913 -0.686881,0.16181 -1.235802,0.27208 -1.628906,0.20703 -0.471005,-0.0779 -1.424165,-0.70441 -2.333985,-1.33594 -0.45491,-0.31576 -0.906064,-0.62521 -1.433594,-0.83398 -0.527529,-0.20877 -1.306843,-0.30708 -1.923828,0.13672 -3.246189,5.78871 -3.33223,12.87022 -3.236461,18.80329 0.08869,6.95409 1.559252,16.57392 3.941407,23.07162 2.24493,6.1234 4.500815,11.44332 9.216926,16.23854 4.582097,4.65895 10.797157,7.21675 16.539063,9.69336 6.1174,2.63856 13.699619,5.63775 20.657942,5.72656 6.88855,0.088 12.48596,-2.49012 18.57644,-5.19593 5.94255,-2.64008 12.2442,-5.37985 16.80492,-10.2417 4.58655,-4.88939 6.73474,-11.18187 9.07165,-17.26367 2.93557,-7.28795 4.1413,-13.80548 4.29447,-20.92383 0.12961,-6.02355 -0.97594,-12.48871 -2.86899,-17.8457 -2.33646,-6.51796 -5.28609,-12.68518 -10.24152,-17.7872 -4.71041,-4.84977 -11.59922,-7.37353 -17.60729,-9.90884 -6.15384,-2.59682 -12.219094,-5.724447 -19.02356,-6.083258 -2.7e-5,-10e-7 2.6e-5,-7.9e-5 -10e-7,-8e-5 z m -0.105468,1.466927 c 6.433952,0.339273 12.291644,3.010991 18.351694,5.568231 5.97605,2.5218 12.59884,4.77113 16.95104,9.25208 4.6193,4.75595 7.78733,11.74744 10.08813,18.16589 2.08505,5.81661 3.15899,12.04206 3.02906,18.15039 -0.13852,6.51185 -1.51046,13.04723 -3.88562,19.22851 -2.3096,6.0107 -4.96705,12.58373 -9.24342,17.14246 -4.26121,4.54256 -10.5862,6.91841 -16.4276,9.51355 -6.02454,2.67651 -12.429687,5.37255 -18.796878,5.29126 -6.392507,-0.0816 -12.78838,-2.47378 -18.931091,-5.12326 -5.758219,-2.48364 -11.738241,-5.42863 -15.938172,-9.69901 -4.367597,-4.44086 -6.949782,-10.93552 -9.16394,-16.97498 -2.314331,-6.3127 -3.471086,-9.94468 -3.556396,-16.63365 -0.479863,-2.19223 0.420575,-23.95494 2.830557,-22.51459 0.850666,0.59047 2.196377,1.84787 3.505978,2.06455 0.937982,0.1552 2.279116,0.057 2.946423,-0.10019 0.667308,-0.1572 1.180526,-0.23952 1.548828,-0.15235 0.318245,0.0753 0.780392,0.43652 1.337891,0.93555 0.557499,0.49903 1.235728,1.32853 2.302734,1.43119 0.785054,0.0756 1.55427,-0.11671 2.347657,-0.32031 0.793386,-0.2036 1.56605,-0.66531 2.023437,-0.79889 0.7261,-0.21205 1.746782,-0.0726 2.949219,-0.64648 0.896625,-0.42792 1.402505,-0.38896 1.742187,-0.91485 0.339683,-0.52589 0.550111,-0.84983 0.798828,-1.00781 0.422247,-0.2682 1.133857,-0.3848 1.996094,-0.51562 0.862237,-0.13083 1.91638,-0.29187 2.777344,-1.08594 0.683143,-0.63007 0.806358,-1.42399 0.921875,-1.97852 0.115517,-0.55452 0.232213,-0.88555 0.330078,-0.98632 0.0142,-0.0146 0.292371,-0.13057 0.806641,-0.23829 0.51427,-0.10771 1.347447,-0.25817 1.847656,-1.06445 0.520181,-0.83846 0.280883,-1.69252 0.138672,-2.24609 -0.142212,-0.55358 -0.18055,-0.90501 -0.158203,-0.97071 0.552866,-0.61753 1.311186,-1.1835 1.470703,-1.83398 l 0.02344,-0.11133 c 0.162751,-0.92149 -0.585922,-1.99813 -0.343972,-2.75781 -0.440604,2.41016 0.120522,-0.34771 1.074481,-1.63352 0.388952,-0.54332 0.590508,-1.52615 0.527123,-2.49047 -0.06966,-1.05985 -0.42834,-1.10416 -0.952904,-1.65372 -0.524565,-0.54957 -1.244219,-1.00023 -1.410711,-1.35352 -0.09397,-0.1994 0.111004,-0.55941 0.03571,-1.0332 -0.07529,-0.47379 -0.172365,-1.08503 -0.589844,-1.66797 -0.471887,-0.59612 -1.036492,-0.98236 -1.732667,-1.13672 -0.02183,-0.12334 -0.414883,-1.01675 -0.456445,-1.55045 -0.04955,-0.63631 0.232936,-0.81562 -0.120038,-1.5765 -0.218183,-0.47033 -1.420265,-1.45845 -1.69679,-1.68067 5.528121,-1.499435 12.906579,-2.597424 18.701253,-2.291861 6.030252,0.317985 -1.67e-4,3.63e-4 -4.2e-5,3.7e-4 z"
       style="color:#000000;font-style:normal;font-variant:normal;font-weight:normal;font-stretch:normal;font-size:medium;line-height:normal;font-family:sans-serif;font-variant-ligatures:normal;font-variant-position:normal;font-variant-caps:normal;font-variant-numeric:normal;font-variant-alternates:normal;font-variant-east-asian:normal;font-feature-settings:normal;font-variation-settings:normal;text-indent:0;text-align:start;text-decoration:none;text-decoration-line:none;text-decoration-style:solid;text-decoration-color:#000000;letter-spacing:normal;word-spacing:normal;text-transform:none;writing-mode:lr-tb;direction:ltr;text-orientation:mixed;dominant-baseline:auto;baseline-shift:baseline;text-anchor:start;white-space:normal;shape-padding:0;shape-margin:0;inline-size:0;clip-rule:nonzero;display:inline;overflow:visible;visibility:visible;opacity:1;isolation:auto;mix-blend-mode:normal;color-interpolation:sRGB;color-interpolation-filters:linearRGB;solid-color:#000000;solid-opacity:1;vector-effect:none;fill:#000000;fill-opacity:1;fill-rule:nonzero;stroke:none;stroke-width:2;stroke-linecap:butt;stroke-linejoin:miter;stroke-miterlimit:4;stroke-dasharray:none;stroke-dashoffset:0;stroke-opacity:1;color-rendering:auto;image-rendering:auto;shape-rendering:auto;text-rendering:auto;enable-background:accumulate;stop-color:#000000;stop-opacity:1" />
    <path
       sodipodi:nodetypes="csccccsccssssssacccacccsssssscascacsscc"
       id="path2013"
       d="m 86.798828,131.48828 c -2.334379,0.4127 -5.153318,-0.0437 -7.77539,1.57617 -2.534968,1.56604 -3.481274,3.9438 -4.867188,5.86133 v 0.002 c -1.959844,2.71315 -2.07051,5.61695 -2.320066,7.9659 -0.01969,4.45488 0.116524,6.76114 0.413816,10.88781 0.101948,1.31572 0.334664,2.76014 1.232422,4.07227 1.606157,2.34752 3.824588,3.76332 5.992187,5.22265 5.597637,3.76731 9.338821,4.7499 16.392579,3.46875 2.505592,-0.44249 5.417252,-0.63358 7.919922,-2.17969 2.53496,-1.56606 3.48126,-5.07127 4.86719,-6.98881 1.4853,-2.05503 2.5442,-3.24337 3.16921,-6.19478 0.35406,-1.67191 0.37709,-3.25285 -0.11932,-4.66797 -0.49645,-1.41512 -0.18355,-2.71874 -0.40461,-3.76367 -0.21105,-0.99762 -0.58254,-2.19039 -0.56413,-3.50391 0.0184,-1.31351 -0.90885,-2.95643 -1.80549,-4.18164 -1.46235,-1.99822 -4.06129,-3.94159 -5.60994,-4.86936 -2.64315,-1.57495 -5.479533,-2.96722 -7.513669,-3.63281 l -0.0625,-0.0215 c 0,0 -0.0412,-0.0126 -0.0625,-0.0137 -2.973775,-0.16077 -2.378015,-0.23321 -8.882523,0.96096 z m 8.896395,0.44273 c 1.704251,0.5665 4.490267,1.41825 6.985407,2.905 2.51534,1.4988 4.78015,4.72364 5.41747,5.6093 0.49988,0.73742 1.02774,2.17002 1.01152,3.33052 -0.0163,1.16594 0.33176,1.9871 0.64674,3.47612 0.305,1.44171 0.28228,2.79202 0.72867,4.06446 0.4464,1.27243 -0.1546,3.95973 -0.35612,4.91137 -0.48615,2.29567 -1.65595,3.38305 -3.14839,5.44793 -1.59179,2.20238 -2.15418,4.26145 -3.95028,5.37105 -1.18159,0.48055 -4.922128,2.4763 -7.596687,2.61671 -4.950637,0.25991 -9.104539,0.28094 -14.491424,-3.34453 -2.188414,-1.47334 -5.005515,-3.97858 -6.274026,-5.83261 -0.314646,-1.16731 -1.169009,-4.32704 -1.393811,-6.5469 -0.252939,-2.4977 -0.144762,-5.20777 0.05961,-7.53119 0.194185,-1.82777 0.490769,-4.82414 2.330932,-7.37205 1.59179,-2.20238 2.609756,-3.94008 4.405823,-5.04965 1.70896,-1.05576 4.370339,-1.03361 7.206986,-1.53511 2.847168,-0.19667 5.983618,-0.95162 8.41758,-0.52042 z"
       style="color:#000000;font-style:normal;font-variant:normal;font-weight:normal;font-stretch:normal;font-size:medium;line-height:normal;font-family:sans-serif;font-variant-ligatures:normal;font-variant-position:normal;font-variant-caps:normal;font-variant-numeric:normal;font-variant-alternates:normal;font-variant-east-asian:normal;font-feature-settings:normal;font-variation-settings:normal;text-indent:0;text-align:start;text-decoration:none;text-decoration-line:none;text-decoration-style:solid;text-decoration-color:#000000;letter-spacing:normal;word-spacing:normal;text-transform:none;writing-mode:lr-tb;direction:ltr;text-orientation:mixed;dominant-baseline:auto;baseline-shift:baseline;text-anchor:start;white-space:normal;shape-padding:0;shape-margin:0;inline-size:0;clip-rule:nonzero;display:inline;overflow:visible;visibility:visible;opacity:1;isolation:auto;mix-blend-mode:normal;color-interpolation:sRGB;color-interpolation-filters:linearRGB;solid-color:#000000;solid-opacity:1;vector-effect:none;fill:#000000;fill-opacity:1;fill-rule:nonzero;stroke:none;stroke-width:2.42414;stroke-linecap:butt;stroke-linejoin:miter;stroke-miterlimit:4;stroke-dasharray:none;stroke-dashoffset:0;stroke-opacity:1;color-rendering:auto;image-rendering:auto;shape-rendering:auto;text-rendering:auto;enable-background:accumulate;stop-color:#000000;stop-opacity:1" />
    <path
       sodipodi:nodetypes="sssccsssssssssccscsss"
       id="path2009"
       d="m 52.417969,139.24219 c -0.281839,0.0724 -0.538348,0.20706 -0.75,0.32812 -0.457411,0.26161 -0.907332,0.68377 -1.125,1.31836 -0.246704,0.71922 0.190895,1.30884 0.329946,1.70703 0.16366,0.51901 0.386478,0.86572 0.855601,1.06856 0.468866,0.19658 1.03491,0.26556 1.560546,-0.0351 0.438382,-0.25073 0.835708,-0.50435 1.060744,-1.16042 0.232407,-0.67755 0.129023,-1.35891 -0.04505,-1.85742 -0.169048,-0.48412 -0.375961,-0.9596 -0.980534,-1.21309 -0.315858,-0.13243 -0.624412,-0.22843 -0.90625,-0.15605 z M 53,140.06445 c 0.245821,0.10307 0.396316,0.38551 0.548828,0.82227 0.147486,0.42237 0.242542,0.9394 0.115234,1.31055 -0.134667,0.39261 -0.436381,0.64287 -0.791015,0.8457 -0.267381,0.15293 -0.438785,0.11504 -0.820313,-0.0449 -0.294361,-0.13224 -0.374082,-0.43542 -0.458984,-0.67774 -0.182511,-0.52264 -0.372772,-0.83071 -0.259766,-1.16015 0.142036,-0.41409 0.238945,-0.8468 0.574546,-1.03873 0.369719,-0.21148 0.872793,-0.14866 1.09147,-0.057 z"
       style="color:#000000;font-style:normal;font-variant:normal;font-weight:normal;font-stretch:normal;font-size:medium;line-height:normal;font-family:sans-serif;font-variant-ligatures:normal;font-variant-position:normal;font-variant-caps:normal;font-variant-numeric:normal;font-variant-alternates:normal;font-variant-east-asian:normal;font-feature-settings:normal;font-variation-settings:normal;text-indent:0;text-align:start;text-decoration:none;text-decoration-line:none;text-decoration-style:solid;text-decoration-color:#000000;letter-spacing:normal;word-spacing:normal;text-transform:none;writing-mode:lr-tb;direction:ltr;text-orientation:mixed;dominant-baseline:auto;baseline-shift:baseline;text-anchor:start;white-space:normal;shape-padding:0;shape-margin:0;inline-size:0;clip-rule:nonzero;display:inline;overflow:visible;visibility:visible;opacity:1;isolation:auto;mix-blend-mode:normal;color-interpolation:sRGB;color-interpolation-filters:linearRGB;solid-color:#000000;solid-opacity:1;vector-effect:none;fill:#000000;fill-opacity:1;fill-rule:nonzero;stroke:none;stroke-width:0.836927;stroke-linecap:butt;stroke-linejoin:miter;stroke-miterlimit:4;stroke-dasharray:none;stroke-dashoffset:0;stroke-opacity:1;color-rendering:auto;image-rendering:auto;shape-rendering:auto;text-rendering:auto;enable-background:accumulate;stop-color:#000000;stop-opacity:1" />
    <path
       sodipodi:nodetypes="acsccsssaaacsscsccsacc"
       id="path2005"
       d="m 115.48047,184.22709 c -0.79793,0.53455 -1.63548,1.23099 -1.30034,2.57118 0.0585,0.22752 0.17211,0.79201 0.31081,1.02151 0.1387,0.2295 0.25628,0.38153 0.55989,0.48203 0.63713,0.2107 1.23756,-0.25232 1.68568,-0.51446 0.47524,-0.27793 0.79944,-0.40789 1.08501,-1.01782 0.15961,-0.34087 0.2098,-0.68504 0.15847,-0.95898 -0.0513,-0.27395 -0.12037,-0.49095 -0.16588,-0.66797 -0.0554,-0.21531 -0.12492,-0.45882 -0.2737,-0.63477 -0.15616,-0.18468 -0.3748,-0.33462 -0.60925,-0.394 -0.47019,-0.11909 -1.04772,-0.15668 -1.45069,0.11328 z m 1.46875,0.64165 c 0.0383,0.0629 0.23351,0.26696 0.28803,0.47892 0.0643,0.25022 0.10159,0.44807 0.13255,0.61328 0.031,0.16521 -0.0767,0.45827 -0.15888,0.63387 -0.19801,0.42291 -0.52986,0.54525 -0.90821,0.76652 -0.40543,0.23716 -0.81233,0.37458 -0.99414,0.31445 -0.26715,-0.13174 -0.33931,-0.42989 -0.42201,-0.67187 -0.0984,-0.38254 -0.25196,-0.95203 -0.071,-1.33855 0.18951,-0.40474 0.60443,-0.8779 1.07892,-1.01225 0.34527,-0.0978 0.76873,-8.5e-4 1.05472,0.21563 z"
       style="color:#000000;font-style:normal;font-variant:normal;font-weight:normal;font-stretch:normal;font-size:medium;line-height:normal;font-family:sans-serif;font-variant-ligatures:normal;font-variant-position:normal;font-variant-caps:normal;font-variant-numeric:normal;font-variant-alternates:normal;font-variant-east-asian:normal;font-feature-settings:normal;font-variation-settings:normal;text-indent:0;text-align:start;text-decoration:none;text-decoration-line:none;text-decoration-style:solid;text-decoration-color:#000000;letter-spacing:normal;word-spacing:normal;text-transform:none;writing-mode:lr-tb;direction:ltr;text-orientation:mixed;dominant-baseline:auto;baseline-shift:baseline;text-anchor:start;white-space:normal;shape-padding:0;shape-margin:0;inline-size:0;clip-rule:nonzero;display:inline;overflow:visible;visibility:visible;opacity:1;isolation:auto;mix-blend-mode:normal;color-interpolation:sRGB;color-interpolation-filters:linearRGB;solid-color:#000000;solid-opacity:1;vector-effect:none;fill:#000000;fill-opacity:1;fill-rule:nonzero;stroke:none;stroke-width:0.819058;stroke-linecap:butt;stroke-linejoin:miter;stroke-miterlimit:4;stroke-dasharray:none;stroke-dashoffset:0;stroke-opacity:1;color-rendering:auto;image-rendering:auto;shape-rendering:auto;text-rendering:auto;enable-background:accumulate;stop-color:#000000;stop-opacity:1" />
    <path
       sodipodi:nodetypes="caaaaccaaccccccaaacc"
       id="path2001"
       d="m 92.324219,180.10152 c -0.224142,0.0175 -0.463019,-0.01 -0.669922,0.0781 -0.243494,0.10351 -0.481408,0.27453 -0.613281,0.5039 -0.255745,0.44483 -0.347195,1.01648 -0.246094,1.51953 0.119101,0.59261 0.459246,1.19901 0.958984,1.53907 0.479371,0.3262 1.122765,0.22968 1.710938,0.31386 0.264911,-0.0364 0.534105,-0.0171 0.742234,-0.0996 0.266419,-0.11049 0.503846,-0.31888 0.607726,-0.57857 0.182164,-0.4554 0.07866,-1.0029 -0.07197,-1.46967 -0.154071,-0.47741 -0.458235,-0.91401 -0.818968,-1.26263 -0.578167,-0.41347 -0.948309,-0.68411 -1.599643,-0.54399 z m 0.956889,0.8124 c 0.341459,0.27105 0.779757,0.74122 0.917809,1.15475 0.109986,0.32946 0.217155,0.51687 0.157904,0.77314 -0.174853,0.46136 -0.468636,0.58554 -0.905642,0.58002 -0.409547,-0.0295 -0.959387,-0.0484 -1.322409,-0.32032 -0.350031,-0.26216 -0.576522,-0.70651 -0.65505,-1.13672 -0.05809,-0.31827 -0.04377,-0.70363 0.15625,-0.95793 0.158806,-0.20189 0.508065,-0.28926 0.709928,-0.29972 0.371466,0.0729 0.632105,0.0651 0.94121,0.20678 z"
       style="color:#000000;font-style:normal;font-variant:normal;font-weight:normal;font-stretch:normal;font-size:medium;line-height:normal;font-family:sans-serif;font-variant-ligatures:normal;font-variant-position:normal;font-variant-caps:normal;font-variant-numeric:normal;font-variant-alternates:normal;font-variant-east-asian:normal;font-feature-settings:normal;font-variation-settings:normal;text-indent:0;text-align:start;text-decoration:none;text-decoration-line:none;text-decoration-style:solid;text-decoration-color:#000000;letter-spacing:normal;word-spacing:normal;text-transform:none;writing-mode:lr-tb;direction:ltr;text-orientation:mixed;dominant-baseline:auto;baseline-shift:baseline;text-anchor:start;white-space:normal;shape-padding:0;shape-margin:0;inline-size:0;clip-rule:nonzero;display:inline;overflow:visible;visibility:visible;opacity:1;isolation:auto;mix-blend-mode:normal;color-interpolation:sRGB;color-interpolation-filters:linearRGB;solid-color:#000000;solid-opacity:1;vector-effect:none;fill:#000000;fill-opacity:1;fill-rule:nonzero;stroke:none;stroke-width:0.819058;stroke-linecap:butt;stroke-linejoin:miter;stroke-miterlimit:4;stroke-dasharray:none;stroke-dashoffset:0;stroke-opacity:1;color-rendering:auto;image-rendering:auto;shape-rendering:auto;text-rendering:auto;enable-background:accumulate;stop-color:#000000;stop-opacity:1" />
    <path
       sodipodi:nodetypes="aaccaccaccacccc"
       id="path1997"
       d="m 77.130663,170.64811 c -0.437413,0.27181 -0.727835,0.79831 -0.830013,1.30306 -0.111494,0.55077 -0.06058,1.1965 0.281381,1.66218 0.607544,0.50561 1.453318,0.89388 2.208985,0.9084 0.829234,-0.0187 1.480045,-0.60749 1.748046,-1.27761 0.216189,-0.54057 -0.06201,-1.30002 -0.310546,-1.71875 -0.435813,-0.44162 -0.942668,-0.87577 -1.539063,-1.04687 -0.916949,-0.25091 -1.114855,-0.10627 -1.55879,0.16959 z m 1.431575,0.37773 c 0.436019,0.17673 0.789827,0.61838 1.070425,0.88839 0.175509,0.3435 0.457227,0.81612 0.323957,1.21275 -0.119478,0.35559 -0.655078,0.54756 -0.888017,0.69128 -0.543157,0.0314 -1.587186,-0.26135 -1.892578,-0.62874 -0.234609,-0.30019 -0.158071,-0.74227 -0.117384,-1.12109 0.174631,-0.85995 0.698446,-1.31061 1.503597,-1.04259 z"
       style="color:#000000;font-style:normal;font-variant:normal;font-weight:normal;font-stretch:normal;font-size:medium;line-height:normal;font-family:sans-serif;font-variant-ligatures:normal;font-variant-position:normal;font-variant-caps:normal;font-variant-numeric:normal;font-variant-alternates:normal;font-variant-east-asian:normal;font-feature-settings:normal;font-variation-settings:normal;text-indent:0;text-align:start;text-decoration:none;text-decoration-line:none;text-decoration-style:solid;text-decoration-color:#000000;letter-spacing:normal;word-spacing:normal;text-transform:none;writing-mode:lr-tb;direction:ltr;text-orientation:mixed;dominant-baseline:auto;baseline-shift:baseline;text-anchor:start;white-space:normal;shape-padding:0;shape-margin:0;inline-size:0;clip-rule:nonzero;display:inline;overflow:visible;visibility:visible;opacity:1;isolation:auto;mix-blend-mode:normal;color-interpolation:sRGB;color-interpolation-filters:linearRGB;solid-color:#000000;solid-opacity:1;vector-effect:none;fill:#000000;fill-opacity:1;fill-rule:nonzero;stroke:none;stroke-width:0.836927;stroke-linecap:butt;stroke-linejoin:miter;stroke-miterlimit:4;stroke-dasharray:none;stroke-dashoffset:0;stroke-opacity:1;color-rendering:auto;image-rendering:auto;shape-rendering:auto;text-rendering:auto;enable-background:accumulate;stop-color:#000000;stop-opacity:1" />
    <path
       sodipodi:nodetypes="csccsccssssccccccccc"
       id="path1993"
       d="m 67.492188,154.64453 c -0.461389,-0.10811 -0.966914,-0.14187 -1.5,0.0781 -0.470835,0.19433 -1.005172,0.46041 -1.339844,0.96484 -0.393408,0.45158 -0.351377,0.80649 -0.113283,1.47852 0.06354,0.17443 0.147993,0.37525 0.306641,0.56054 0.158648,0.18529 0.39786,0.33859 0.6875,0.40625 0.60292,0.1407 1.170828,-0.0856 1.630859,-0.27539 0.48442,-0.19995 0.979951,-0.49102 1.300782,-0.97461 0.187706,-0.2829 0.205269,-0.62524 0.142578,-0.86133 -0.06269,-0.23608 -0.160386,-0.39731 -0.199219,-0.5039 -0.05757,-0.15798 -0.115832,-0.33803 -0.267578,-0.51367 -0.151746,-0.17565 -0.382439,-0.29725 -0.648437,-0.35938 z m 0.25755,0.98858 c 0.07464,0.20488 0.08328,0.73358 0.105599,0.81763 -0.05863,0.36669 -0.632184,0.69541 -0.945315,0.83008 -0.421789,0.17405 -1.045674,0.18583 -1.288735,0.12911 -0.414549,-0.13817 -0.530139,-1.04166 -0.367191,-1.32389 0.164887,-0.24853 0.651377,-0.54901 1.062303,-0.71862 0.552846,-0.0675 1.233606,-0.20072 1.433339,0.26569 z"
       style="color:#000000;font-style:normal;font-variant:normal;font-weight:normal;font-stretch:normal;font-size:medium;line-height:normal;font-family:sans-serif;font-variant-ligatures:normal;font-variant-position:normal;font-variant-caps:normal;font-variant-numeric:normal;font-variant-alternates:normal;font-variant-east-asian:normal;font-feature-settings:normal;font-variation-settings:normal;text-indent:0;text-align:start;text-decoration:none;text-decoration-line:none;text-decoration-style:solid;text-decoration-color:#000000;letter-spacing:normal;word-spacing:normal;text-transform:none;writing-mode:lr-tb;direction:ltr;text-orientation:mixed;dominant-baseline:auto;baseline-shift:baseline;text-anchor:start;white-space:normal;shape-padding:0;shape-margin:0;inline-size:0;clip-rule:nonzero;display:inline;overflow:visible;visibility:visible;opacity:1;isolation:auto;mix-blend-mode:normal;color-interpolation:sRGB;color-interpolation-filters:linearRGB;solid-color:#000000;solid-opacity:1;vector-effect:none;fill:#000000;fill-opacity:1;fill-rule:nonzero;stroke:none;stroke-width:0.85;stroke-linecap:butt;stroke-linejoin:miter;stroke-miterlimit:4;stroke-dasharray:none;stroke-dashoffset:0;stroke-opacity:1;color-rendering:auto;image-rendering:auto;shape-rendering:auto;text-rendering:auto;enable-background:accumulate;stop-color:#000000;stop-opacity:1" />
    <path
       sodipodi:nodetypes="caaaccsssccsccscccs"
       id="path1989"
       d="m 86.363281,193.52704 c -0.496647,0.0861 -0.906474,0.30702 -1.265033,0.60742 -0.185616,0.15552 -0.386854,0.35044 -0.424276,0.58968 -0.04035,0.25793 0.09588,0.52833 0.241435,0.74506 0.202548,0.3016 0.270573,0.51943 0.83264,0.70328 0.579064,0.1893 1.175575,0.0488 1.662109,-0.0356 0.509396,-0.0883 0.871654,-0.15638 1.248655,-0.54132 0.231335,-0.23619 0.34401,-0.48581 0.271181,-0.70884 -0.07283,-0.22303 -0.15056,-0.42067 -0.188253,-0.50631 -0.06135,-0.13934 -0.184512,-0.28186 -0.336385,-0.4402 -0.529796,-0.4731 -1.426371,-0.51221 -2.042073,-0.41317 z m 0.146485,0.43902 c 0.381946,-0.0663 0.850762,0.046 1.272829,0.18405 0.344646,0.13352 0.39097,0.52615 0.545673,0.83096 -0.158134,0.15423 -0.64199,0.51087 -1.062643,0.58383 -0.450506,0.0782 -0.93395,0.24927 -1.253906,0.14468 -0.336953,-0.11022 -0.401175,-0.30845 -0.505107,-0.52899 -0.08938,-0.20482 -0.143473,-0.43596 -0.09345,-0.60997 0.249572,-0.28363 0.656147,-0.52817 1.0966,-0.60456 z"
       style="color:#000000;font-style:normal;font-variant:normal;font-weight:normal;font-stretch:normal;font-size:medium;line-height:normal;font-family:sans-serif;font-variant-ligatures:normal;font-variant-position:normal;font-variant-caps:normal;font-variant-numeric:normal;font-variant-alternates:normal;font-variant-east-asian:normal;font-feature-settings:normal;font-variation-settings:normal;text-indent:0;text-align:start;text-decoration:none;text-decoration-line:none;text-decoration-style:solid;text-decoration-color:#000000;letter-spacing:normal;word-spacing:normal;text-transform:none;writing-mode:lr-tb;direction:ltr;text-orientation:mixed;dominant-baseline:auto;baseline-shift:baseline;text-anchor:start;white-space:normal;shape-padding:0;shape-margin:0;inline-size:0;clip-rule:nonzero;display:inline;overflow:visible;visibility:visible;opacity:1;isolation:auto;mix-blend-mode:normal;color-interpolation:sRGB;color-interpolation-filters:linearRGB;solid-color:#000000;solid-opacity:1;vector-effect:none;fill:#000000;fill-opacity:1;fill-rule:nonzero;stroke:none;stroke-width:0.85;stroke-linecap:butt;stroke-linejoin:miter;stroke-miterlimit:4;stroke-dasharray:none;stroke-dashoffset:0;stroke-opacity:1;color-rendering:auto;image-rendering:auto;shape-rendering:auto;text-rendering:auto;enable-background:accumulate;stop-color:#000000;stop-opacity:1" />
    <path
       sodipodi:nodetypes="assssccccassssssccs"
       id="path1985"
       d="m 65.480508,169.98169 c -0.481499,-0.0391 -1.019024,0.21677 -1.385226,0.42604 -0.21304,0.12174 -0.414534,0.23249 -0.597656,0.40821 -0.183122,0.17571 -0.395562,0.35504 -0.458853,0.64661 -0.107878,0.49683 0.06923,1.07114 0.460609,1.53321 0.326383,0.38536 0.523397,0.59788 1.20951,0.69961 0.623495,-0.006 1.117413,-0.0939 1.631184,-0.38292 0.445215,-0.25441 0.970305,-0.45725 1.109375,-1.09792 0.145346,-0.6694 -0.18885,-1.13387 -0.504037,-1.50599 -0.744568,-0.86683 -0.921593,-0.68269 -1.464906,-0.72685 z m -0.05287,0.58249 c 0.43301,0.0642 0.734514,0.32015 0.984375,0.61517 0.275292,0.32502 0.516979,0.6257 0.466665,0.85742 -0.05653,0.26043 -0.37748,0.5301 -0.779165,0.75964 -0.38842,0.22195 -0.879449,0.26877 -1.267578,0.2112 -0.410548,-0.0609 -0.710572,-0.24111 -0.97461,-0.55287 -0.199085,-0.23505 -0.265385,-0.41018 -0.177603,-0.81445 0.07741,-0.31333 0.431339,-0.55378 0.654166,-0.68144 0.480638,-0.27467 0.749224,-0.44576 1.09375,-0.39467 z"
       style="color:#000000;font-style:normal;font-variant:normal;font-weight:normal;font-stretch:normal;font-size:medium;line-height:normal;font-family:sans-serif;font-variant-ligatures:normal;font-variant-position:normal;font-variant-caps:normal;font-variant-numeric:normal;font-variant-alternates:normal;font-variant-east-asian:normal;font-feature-settings:normal;font-variation-settings:normal;text-indent:0;text-align:start;text-decoration:none;text-decoration-line:none;text-decoration-style:solid;text-decoration-color:#000000;letter-spacing:normal;word-spacing:normal;text-transform:none;writing-mode:lr-tb;direction:ltr;text-orientation:mixed;dominant-baseline:auto;baseline-shift:baseline;text-anchor:start;white-space:normal;shape-padding:0;shape-margin:0;inline-size:0;clip-rule:nonzero;display:inline;overflow:visible;visibility:visible;opacity:1;isolation:auto;mix-blend-mode:normal;color-interpolation:sRGB;color-interpolation-filters:linearRGB;solid-color:#000000;solid-opacity:1;vector-effect:none;fill:#000000;fill-opacity:1;fill-rule:nonzero;stroke:none;stroke-width:0.836927;stroke-linecap:butt;stroke-linejoin:miter;stroke-miterlimit:4;stroke-dasharray:none;stroke-dashoffset:0;stroke-opacity:1;color-rendering:auto;image-rendering:auto;shape-rendering:auto;text-rendering:auto;enable-background:accumulate;stop-color:#000000;stop-opacity:1" />
    <path
       sodipodi:nodetypes="ssscassccscccsssssc"
       id="path1981"
       d="m 77.388672,182.88841 c -0.64295,0.0505 -1.070806,0.38336 -1.420053,0.75976 -0.3233,0.34843 -0.666876,0.70949 -0.578256,1.37136 0.08502,0.63495 0.522447,0.91627 0.925847,1.20332 0.429876,0.42423 1.037183,0.49107 1.584181,0.44754 0.607933,-0.0484 1.325053,-0.40879 1.659828,-0.7696 0.401165,-0.43234 0.440046,-0.77931 0.373046,-1.2797 -0.0389,-0.29055 -0.259484,-0.64942 -0.419725,-0.83769 -0.440182,-0.22643 -0.817632,-0.54133 -1.199087,-0.7834 -0.240982,-0.15102 -0.558408,-0.14042 -0.925781,-0.11159 z m 0.0625,0.67214 c 0.411924,0.0164 0.693505,0.0869 0.984375,0.29538 0.245967,0.23414 0.711268,0.61873 0.794397,0.87259 0.0554,0.41375 -0.167999,0.67774 -0.372654,0.8983 -0.271025,0.29211 -0.638803,0.44681 -1.019399,0.4767 -0.357289,0.028 -0.840849,-0.19005 -1.191341,-0.43946 -0.36282,-0.25818 -0.550572,-0.47274 -0.587956,-0.75195 -0.03378,-0.25229 0.154959,-0.54511 0.4375,-0.84961 0.256552,-0.2765 0.551188,-0.47024 0.955078,-0.50195 z"
       style="color:#000000;font-style:normal;font-variant:normal;font-weight:normal;font-stretch:normal;font-size:medium;line-height:normal;font-family:sans-serif;font-variant-ligatures:normal;font-variant-position:normal;font-variant-caps:normal;font-variant-numeric:normal;font-variant-alternates:normal;font-variant-east-asian:normal;font-feature-settings:normal;font-variation-settings:normal;text-indent:0;text-align:start;text-decoration:none;text-decoration-line:none;text-decoration-style:solid;text-decoration-color:#000000;letter-spacing:normal;word-spacing:normal;text-transform:none;writing-mode:lr-tb;direction:ltr;text-orientation:mixed;dominant-baseline:auto;baseline-shift:baseline;text-anchor:start;white-space:normal;shape-padding:0;shape-margin:0;inline-size:0;clip-rule:nonzero;display:inline;overflow:visible;visibility:visible;opacity:1;isolation:auto;mix-blend-mode:normal;color-interpolation:sRGB;color-interpolation-filters:linearRGB;solid-color:#000000;solid-opacity:1;vector-effect:none;fill:#000000;fill-opacity:1;fill-rule:nonzero;stroke:none;stroke-width:0.814883;stroke-linecap:butt;stroke-linejoin:miter;stroke-miterlimit:4;stroke-dasharray:none;stroke-dashoffset:0;stroke-opacity:1;color-rendering:auto;image-rendering:auto;shape-rendering:auto;text-rendering:auto;enable-background:accumulate;stop-color:#000000;stop-opacity:1" />
    <path
       sodipodi:nodetypes="sssssssssssssscssssssss"
       id="path1977"
       d="m 121.03315,159.48308 c -0.6563,0.15284 -1.03832,0.68841 -1.31641,1.11328 -0.29625,0.45255 -0.52591,1.02241 -0.44336,1.65625 0.0476,0.36599 0.25717,0.64481 0.4668,0.82422 0.20963,0.17941 0.42036,0.29337 0.56445,0.40039 0.17655,0.13114 0.34641,0.26179 0.57813,0.34765 0.23172,0.0859 0.50968,0.099 0.80078,0.0312 0.50823,-0.11835 1.01906,-0.33773 1.35156,-0.8457 0.28612,-0.43711 0.57589,-1.00732 0.49024,-1.66602 -0.007,-0.0564 -0.0676,-0.0639 -0.0801,-0.11718 -0.13897,-0.59261 -0.53061,-1.04216 -0.88672,-1.30664 -0.3738,-0.27763 -0.89379,-0.58457 -1.52539,-0.4375 z m 0.18555,0.79882 c 0.3054,-0.0711 0.52497,0.0543 0.85156,0.29688 0.31224,0.2319 0.59983,0.54276 0.64258,0.87109 0.0459,0.35331 -0.12172,0.7423 -0.36329,1.11133 -0.19521,0.29824 -0.42277,0.3982 -0.85156,0.49805 -0.17738,0.0413 -0.24521,0.0295 -0.33008,-0.002 -0.0849,-0.0314 -0.20135,-0.10928 -0.375,-0.23828 -0.20608,-0.15304 -0.39846,-0.26162 -0.51953,-0.36523 -0.12106,-0.10361 -0.16928,-0.16861 -0.1875,-0.30859 -0.0492,-0.37808 0.0849,-0.74598 0.31641,-1.09961 0.24959,-0.38134 0.53574,-0.69831 0.81641,-0.76368 z"
       style="color:#000000;font-style:normal;font-variant:normal;font-weight:normal;font-stretch:normal;font-size:medium;line-height:normal;font-family:sans-serif;font-variant-ligatures:normal;font-variant-position:normal;font-variant-caps:normal;font-variant-numeric:normal;font-variant-alternates:normal;font-variant-east-asian:normal;font-feature-settings:normal;font-variation-settings:normal;text-indent:0;text-align:start;text-decoration:none;text-decoration-line:none;text-decoration-style:solid;text-decoration-color:#000000;letter-spacing:normal;word-spacing:normal;text-transform:none;writing-mode:lr-tb;direction:ltr;text-orientation:mixed;dominant-baseline:auto;baseline-shift:baseline;text-anchor:start;white-space:normal;shape-padding:0;shape-margin:0;inline-size:0;clip-rule:nonzero;display:inline;overflow:visible;visibility:visible;opacity:1;isolation:auto;mix-blend-mode:normal;color-interpolation:sRGB;color-interpolation-filters:linearRGB;solid-color:#000000;solid-opacity:1;vector-effect:none;fill:#000000;fill-opacity:1;fill-rule:nonzero;stroke:none;stroke-width:0.819058;stroke-linecap:butt;stroke-linejoin:miter;stroke-miterlimit:4;stroke-dasharray:none;stroke-dashoffset:0;stroke-opacity:1;color-rendering:auto;image-rendering:auto;shape-rendering:auto;text-rendering:auto;enable-background:accumulate;stop-color:#000000;stop-opacity:1" />
    <path
       sodipodi:nodetypes="aaaaaaaaaaaaaaaaaaaaaaa"
       id="path1973"
       d="m 131.21094,153.0625 c -0.26157,0.0335 -0.53412,0.0729 -0.76563,0.19922 -0.20588,0.1123 -0.36703,0.29674 -0.51758,0.47656 -0.3608,0.43095 -0.81856,0.86672 -0.90625,1.42188 -0.0889,0.56275 0.10899,1.18339 0.42969,1.65429 0.3064,0.4499 0.77721,0.92448 1.32031,0.96094 0.53595,0.036 1.04104,-0.38292 1.41797,-0.76562 0.42747,-0.43401 0.66875,-1.0376 0.84375,-1.6211 0.0711,-0.23697 0.12971,-0.49673 0.0762,-0.73828 -0.0771,-0.34807 -0.28709,-0.67592 -0.54883,-0.91797 -0.36874,-0.341 -0.86063,-0.55524 -1.34961,-0.66992 -1e-5,0 -1e-5,0 -2e-5,0 z m -0.0371,0.81445 c 0.14139,0.21519 0.53757,0.11451 0.70898,0.30664 0.25996,0.29139 0.38025,0.7327 0.33985,1.1211 -0.0452,0.43499 -0.33274,0.8304 -0.63086,1.15039 -0.21223,0.22779 -0.4747,0.52921 -0.78516,0.50586 -0.29944,-0.0225 -0.5177,-0.3404 -0.67578,-0.59571 -0.20359,-0.32882 -0.36967,-0.74089 -0.29883,-1.12109 0.072,-0.38623 0.43444,-0.65763 0.69336,-0.95312 0.11017,-0.12572 0.21642,-0.26586 0.36328,-0.34571 0.0859,-0.0467 0.2084,-0.12892 0.28516,-0.0684 10e-6,1e-5 -1e-5,3e-5 0,4e-5 z"
       style="color:#000000;font-style:normal;font-variant:normal;font-weight:normal;font-stretch:normal;font-size:medium;line-height:normal;font-family:sans-serif;font-variant-ligatures:normal;font-variant-position:normal;font-variant-caps:normal;font-variant-numeric:normal;font-variant-alternates:normal;font-variant-east-asian:normal;font-feature-settings:normal;font-variation-settings:normal;text-indent:0;text-align:start;text-decoration:none;text-decoration-line:none;text-decoration-style:solid;text-decoration-color:#000000;letter-spacing:normal;word-spacing:normal;text-transform:none;writing-mode:lr-tb;direction:ltr;text-orientation:mixed;dominant-baseline:auto;baseline-shift:baseline;text-anchor:start;white-space:normal;shape-padding:0;shape-margin:0;inline-size:0;clip-rule:nonzero;display:inline;overflow:visible;visibility:visible;opacity:1;isolation:auto;mix-blend-mode:normal;color-interpolation:sRGB;color-interpolation-filters:linearRGB;solid-color:#000000;solid-opacity:1;vector-effect:none;fill:#000000;fill-opacity:1;fill-rule:nonzero;stroke:none;stroke-width:0.814883;stroke-linecap:butt;stroke-linejoin:miter;stroke-miterlimit:4;stroke-dasharray:none;stroke-dashoffset:0;stroke-opacity:1;color-rendering:auto;image-rendering:auto;shape-rendering:auto;text-rendering:auto;enable-background:accumulate;stop-color:#000000;stop-opacity:1" />
    <path
       sodipodi:nodetypes="aaaaaacaaaaaaaaaaaaaaaa"
       id="path1969"
       d="m 125.4335,171.20339 c -0.4852,0.10754 -0.8814,0.53274 -1.14648,0.95312 -0.28156,0.44651 -0.46876,1.01341 -0.38867,1.53516 0.0751,0.48915 0.39425,0.95279 0.77929,1.26367 0.19882,0.16053 0.4748,0.19369 0.72266,0.25586 0.31459,0.0789 0.65376,0.24782 0.96191,0.14662 0.40048,-0.13152 0.60056,-0.47409 0.89375,-0.89462 0.26729,-0.42334 0.29175,-1.00054 0.1875,-1.49023 -0.0929,-0.43628 -0.40729,-0.80229 -0.69336,-1.14453 -0.13253,-0.15855 -0.28203,-0.31381 -0.46484,-0.41016 -0.25898,-0.1365 -0.56808,-0.14178 -0.85157,-0.21484 -6e-5,-2e-5 -1.3e-4,-6e-5 -1.9e-4,-5e-5 z m 0.18164,0.83007 c 0.033,-0.0492 0.11389,0.0369 0.16407,0.0684 0.15933,0.10007 0.2992,0.23234 0.42187,0.375 0.16048,0.18662 0.34317,0.38023 0.40235,0.61914 0.0761,0.30712 0.0473,0.65834 -0.0859,0.94532 -0.11671,0.25137 -0.3113,0.54234 -0.58399,0.59179 -0.2548,0.0462 -0.50851,-0.15758 -0.70507,-0.32617 -0.22423,-0.19232 -0.44552,-0.44628 -0.49024,-0.73828 -0.052,-0.33971 0.10643,-0.69789 0.28711,-0.99023 0.14073,-0.2277 0.58455,-0.27731 0.58984,-0.54493 0,-2e-5 -5e-5,-2e-5 -4e-5,-4e-5 z"
       style="color:#000000;font-style:normal;font-variant:normal;font-weight:normal;font-stretch:normal;font-size:medium;line-height:normal;font-family:sans-serif;font-variant-ligatures:normal;font-variant-position:normal;font-variant-caps:normal;font-variant-numeric:normal;font-variant-alternates:normal;font-variant-east-asian:normal;font-feature-settings:normal;font-variation-settings:normal;text-indent:0;text-align:start;text-decoration:none;text-decoration-line:none;text-decoration-style:solid;text-decoration-color:#000000;letter-spacing:normal;word-spacing:normal;text-transform:none;writing-mode:lr-tb;direction:ltr;text-orientation:mixed;dominant-baseline:auto;baseline-shift:baseline;text-anchor:start;white-space:normal;shape-padding:0;shape-margin:0;inline-size:0;clip-rule:nonzero;display:inline;overflow:visible;visibility:visible;opacity:1;isolation:auto;mix-blend-mode:normal;color-interpolation:sRGB;color-interpolation-filters:linearRGB;solid-color:#000000;solid-opacity:1;vector-effect:none;fill:#000000;fill-opacity:1;fill-rule:nonzero;stroke:none;stroke-width:0.85;stroke-linecap:butt;stroke-linejoin:miter;stroke-miterlimit:4;stroke-dasharray:none;stroke-dashoffset:0;stroke-opacity:1;color-rendering:auto;image-rendering:auto;shape-rendering:auto;text-rendering:auto;enable-background:accumulate;stop-color:#000000;stop-opacity:1" />
    <path
       sodipodi:nodetypes="sssscsccssscssssssssssssss"
       id="path1965"
       d="m 120.49414,148.21875 c -0.45599,-0.14788 -1.0669,-0.24075 -1.72461,0.0156 -0.0587,0.0229 -0.0731,0.0825 -0.12891,0.10937 -0.58611,0.28223 -1.05727,0.7351 -1.36328,1.13672 -0.32752,0.42985 -0.7,0.93572 -0.59375,1.56641 0.0559,0.33159 0.26953,0.58637 0.49414,0.74414 0.22462,0.15776 0.46639,0.24729 0.68555,0.31836 v -0.002 c 0.47829,0.15516 1.07849,0.19294 1.71875,-0.0566 0.70898,-0.27638 1.00316,-0.87989 1.28516,-1.25 0.15825,-0.20769 0.3021,-0.39197 0.4082,-0.61914 0.1061,-0.22717 0.15703,-0.5062 0.10938,-0.78906 -0.0395,-0.23416 -0.10011,-0.46791 -0.24024,-0.68555 -0.14013,-0.21764 -0.37132,-0.39778 -0.65039,-0.48828 z m -1.42773,0.7793 c 0.44388,-0.17303 0.81792,-0.11606 1.17578,0 0.12786,0.0415 0.16841,0.0802 0.21484,0.15234 0.0464,0.0721 0.0885,0.197 0.11914,0.37891 0.0224,0.13321 0.009,0.19343 -0.043,0.30468 -0.052,0.11126 -0.16163,0.26502 -0.31836,0.47071 -0.34792,0.45664 -0.53709,0.83133 -0.92968,0.98437 -0.46132,0.17983 -0.83244,0.14986 -1.16797,0.041 -0.18779,-0.0609 -0.3615,-0.13365 -0.46875,-0.20899 -0.10726,-0.0753 -0.14201,-0.12646 -0.15625,-0.21093 -0.0339,-0.20148 0.13313,-0.53671 0.43554,-0.9336 0.29479,-0.38689 0.71221,-0.81226 1.13868,-0.97851 z"
       style="color:#000000;font-style:normal;font-variant:normal;font-weight:normal;font-stretch:normal;font-size:medium;line-height:normal;font-family:sans-serif;font-variant-ligatures:normal;font-variant-position:normal;font-variant-caps:normal;font-variant-numeric:normal;font-variant-alternates:normal;font-variant-east-asian:normal;font-feature-settings:normal;font-variation-settings:normal;text-indent:0;text-align:start;text-decoration:none;text-decoration-line:none;text-decoration-style:solid;text-decoration-color:#000000;letter-spacing:normal;word-spacing:normal;text-transform:none;writing-mode:lr-tb;direction:ltr;text-orientation:mixed;dominant-baseline:auto;baseline-shift:baseline;text-anchor:start;white-space:normal;shape-padding:0;shape-margin:0;inline-size:0;clip-rule:nonzero;display:inline;overflow:visible;visibility:visible;opacity:1;isolation:auto;mix-blend-mode:normal;color-interpolation:sRGB;color-interpolation-filters:linearRGB;solid-color:#000000;solid-opacity:1;vector-effect:none;fill:#000000;fill-opacity:1;fill-rule:nonzero;stroke:none;stroke-width:0.819058;stroke-linecap:butt;stroke-linejoin:miter;stroke-miterlimit:4;stroke-dasharray:none;stroke-dashoffset:0;stroke-opacity:1;color-rendering:auto;image-rendering:auto;shape-rendering:auto;text-rendering:auto;enable-background:accumulate;stop-color:#000000;stop-opacity:1" />
    <path
       sodipodi:nodetypes="aaaaaaaaaaaaaaaaaaaaaa"
       id="path1961"
       d="m 109.15175,172.03898 c -0.5938,0.22871 -1.06498,0.74458 -1.42729,1.26769 -0.3141,0.4535 -0.67002,0.99843 -0.59375,1.54479 0.0379,0.27157 0.28665,0.4784 0.49414,0.65767 0.19069,0.16476 0.41697,0.31144 0.66393,0.3616 0.54997,0.1117 1.16867,0.0762 1.67552,-0.16468 0.52169,-0.24799 0.89237,-0.75484 1.22031,-1.23035 0.26572,-0.38529 0.55902,-0.81096 0.58047,-1.2785 0.0111,-0.24167 -0.0956,-0.49016 -0.23828,-0.68555 -0.15986,-0.21894 -0.39284,-0.40366 -0.65039,-0.48828 -0.54618,-0.17946 -1.18817,-0.19103 -1.72466,0.0156 z m 1.47266,0.7637 c 0.0831,0.0267 0.16152,0.0818 0.21289,0.15234 0.0781,0.10718 0.10983,0.24679 0.12109,0.37891 0.009,0.10284 -0.006,0.21034 -0.043,0.30664 -0.0679,0.17624 -0.20528,0.31746 -0.31836,0.46875 -0.26528,0.3549 -0.45542,0.81325 -0.84321,1.0276 -0.36947,0.20422 -0.84124,0.23601 -1.2564,0.15946 -0.19761,-0.0364 -0.45275,-0.0994 -0.53164,-0.2842 -0.16702,-0.39129 0.11583,-0.87006 0.34414,-1.22905 0.2688,-0.42264 0.66911,-0.80617 1.13868,-0.98047 0.36744,-0.13639 0.80262,-0.11975 1.17581,2e-5 z"
       style="color:#000000;font-style:normal;font-variant:normal;font-weight:normal;font-stretch:normal;font-size:medium;line-height:normal;font-family:sans-serif;font-variant-ligatures:normal;font-variant-position:normal;font-variant-caps:normal;font-variant-numeric:normal;font-variant-alternates:normal;font-variant-east-asian:normal;font-feature-settings:normal;font-variation-settings:normal;text-indent:0;text-align:start;text-decoration:none;text-decoration-line:none;text-decoration-style:solid;text-decoration-color:#000000;letter-spacing:normal;word-spacing:normal;text-transform:none;writing-mode:lr-tb;direction:ltr;text-orientation:mixed;dominant-baseline:auto;baseline-shift:baseline;text-anchor:start;white-space:normal;shape-padding:0;shape-margin:0;inline-size:0;clip-rule:nonzero;display:inline;overflow:visible;visibility:visible;opacity:1;isolation:auto;mix-blend-mode:normal;color-interpolation:sRGB;color-interpolation-filters:linearRGB;solid-color:#000000;solid-opacity:1;vector-effect:none;fill:#000000;fill-opacity:1;fill-rule:nonzero;stroke:none;stroke-width:0.819058;stroke-linecap:butt;stroke-linejoin:miter;stroke-miterlimit:4;stroke-dasharray:none;stroke-dashoffset:0;stroke-opacity:1;color-rendering:auto;image-rendering:auto;shape-rendering:auto;text-rendering:auto;enable-background:accumulate;stop-color:#000000;stop-opacity:1" />
    <path
       sodipodi:nodetypes="ccccsscsssccsscccsssss"
       id="path1957"
       d="m 117.7168,136.72852 c -0.082,0.0215 -0.0999,0.10244 -0.17578,0.13281 l -0.0156,-0.0254 -0.15625,0.15625 c -0.45362,0.24313 -0.89091,0.53895 -1.13476,0.86133 -0.30934,0.40896 -0.65915,0.93242 -0.53516,1.57617 0.12953,0.67263 0.71233,1.00638 1.14844,1.22461 0.47124,0.23586 1.07183,0.37744 1.7207,0.20703 0.73541,-0.19313 1.02291,-0.82768 1.27734,-1.16406 0.14805,-0.19571 0.2894,-0.37582 0.38868,-0.60938 0.0993,-0.23356 0.13259,-0.51759 0.0762,-0.81055 -0.52341,-1.07286 -1.3902,-1.89084 -2.59381,-1.54881 z m 0.21093,0.80859 c 0.40146,-0.10544 0.77726,0.009 1.14258,0.19141 0.27547,0.13785 0.33974,0.30078 0.41797,0.70703 0.0522,0.31812 -0.15601,0.55305 -0.31056,0.75781 -0.33396,0.44152 -0.48539,0.76895 -0.82226,0.85742 -0.42342,0.11121 -0.78709,0.0285 -1.13281,-0.14453 -0.3809,-0.1906 -0.65634,-0.40194 -0.70118,-0.63477 -0.0504,-0.26173 0.0998,-0.54313 0.37891,-0.9121 0.2699,-0.35681 0.64783,-0.7226 1.02734,-0.82227 z"
       style="color:#000000;font-style:normal;font-variant:normal;font-weight:normal;font-stretch:normal;font-size:medium;line-height:normal;font-family:sans-serif;font-variant-ligatures:normal;font-variant-position:normal;font-variant-caps:normal;font-variant-numeric:normal;font-variant-alternates:normal;font-variant-east-asian:normal;font-feature-settings:normal;font-variation-settings:normal;text-indent:0;text-align:start;text-decoration:none;text-decoration-line:none;text-decoration-style:solid;text-decoration-color:#000000;letter-spacing:normal;word-spacing:normal;text-transform:none;writing-mode:lr-tb;direction:ltr;text-orientation:mixed;dominant-baseline:auto;baseline-shift:baseline;text-anchor:start;white-space:normal;shape-padding:0;shape-margin:0;inline-size:0;clip-rule:nonzero;display:inline;overflow:visible;visibility:visible;opacity:1;isolation:auto;mix-blend-mode:normal;color-interpolation:sRGB;color-interpolation-filters:linearRGB;solid-color:#000000;solid-opacity:1;vector-effect:none;fill:#000000;fill-opacity:1;fill-rule:nonzero;stroke:none;stroke-width:0.836927;stroke-linecap:butt;stroke-linejoin:miter;stroke-miterlimit:4;stroke-dasharray:none;stroke-dashoffset:0;stroke-opacity:1;color-rendering:auto;image-rendering:auto;shape-rendering:auto;text-rendering:auto;enable-background:accumulate;stop-color:#000000;stop-opacity:1" />
    <path
       sodipodi:nodetypes="scccccssssscssccac"
       id="path1953"
       d="m 104.32031,186.15625 c -0.45599,-0.14787 -0.96053,-0.0812 -1.61824,0.17515 -0.52311,0.30416 -1.15195,0.74875 -1.51878,1.19291 -0.32753,0.42985 -0.64682,0.82936 -0.54056,1.46004 0.16396,0.6174 0.51639,0.69061 1.04672,0.87636 1.39136,0.34022 1.8252,0.13826 2.62897,-0.93632 0.15825,-0.20769 0.67704,-0.68448 0.78314,-0.91165 0.1061,-0.22716 0.15508,-0.39983 0.10742,-0.68269 -0.0395,-0.23416 -0.0981,-0.4679 -0.23828,-0.68555 -0.14012,-0.21764 -0.37131,-0.39779 -0.65039,-0.48828 z m 0.039,1.61523 c -0.052,0.11125 -0.16164,0.26502 -0.31836,0.47071 -0.34792,0.45663 -0.53708,0.83131 -0.92969,0.98437 -0.46133,0.17982 -0.83433,0.1498 -1.16992,0.041 -0.85158,-0.26636 -0.55885,-0.85873 -0.1875,-1.35156 0.2948,-0.38691 1.13634,-1.45406 1.88323,-1.29957 0.44467,0.092 0.77571,0.39388 0.72224,1.15505 z"
       style="color:#000000;font-style:normal;font-variant:normal;font-weight:normal;font-stretch:normal;font-size:medium;line-height:normal;font-family:sans-serif;font-variant-ligatures:normal;font-variant-position:normal;font-variant-caps:normal;font-variant-numeric:normal;font-variant-alternates:normal;font-variant-east-asian:normal;font-feature-settings:normal;font-variation-settings:normal;text-indent:0;text-align:start;text-decoration:none;text-decoration-line:none;text-decoration-style:solid;text-decoration-color:#000000;letter-spacing:normal;word-spacing:normal;text-transform:none;writing-mode:lr-tb;direction:ltr;text-orientation:mixed;dominant-baseline:auto;baseline-shift:baseline;text-anchor:start;white-space:normal;shape-padding:0;shape-margin:0;inline-size:0;clip-rule:nonzero;display:inline;overflow:visible;visibility:visible;opacity:1;isolation:auto;mix-blend-mode:normal;color-interpolation:sRGB;color-interpolation-filters:linearRGB;solid-color:#000000;solid-opacity:1;vector-effect:none;fill:#000000;fill-opacity:1;fill-rule:nonzero;stroke:none;stroke-width:0.819058;stroke-linecap:butt;stroke-linejoin:miter;stroke-miterlimit:4;stroke-dasharray:none;stroke-dashoffset:0;stroke-opacity:1;color-rendering:auto;image-rendering:auto;shape-rendering:auto;text-rendering:auto;enable-background:accumulate;stop-color:#000000;stop-opacity:1" />
    <path
       sodipodi:nodetypes="cccssssscsccscsss"
       id="path1949"
       d="m 64.102219,183.41341 c -1.028862,0.55282 -1.915971,1.26474 -1.7349,2.35026 0.129542,0.67263 0.782519,0.9362 1.218619,1.15443 0.471237,0.23586 1.034789,0.41254 1.683659,0.24212 0.73541,-0.19313 0.952726,-0.79258 1.207162,-1.12897 0.148027,-0.19569 0.289388,-0.37582 0.388672,-0.60937 0.09928,-0.23356 0.09751,-0.51758 0.04108,-0.81055 -0.09614,-0.49923 -0.288621,-0.95766 -0.830143,-1.22865 -0.451648,-0.22605 -1.303321,-0.14545 -1.97415,0.0307 z m 0.528706,0.45768 c 0.401459,-0.10543 0.775303,0.009 1.140625,0.19141 0.522036,0.51294 0.534011,0.9952 0.179557,1.46484 -0.333956,0.44153 -0.520493,0.9795 -0.857357,1.06797 -0.42342,0.1112 -0.999593,-0.14695 -1.34531,-0.31999 -0.380902,-0.1906 -0.586146,-0.437 -0.630991,-0.66985 -0.05041,-0.26174 0.136867,-0.7186 0.415951,-1.08756 0.269885,-0.35681 0.718023,-0.54716 1.097525,-0.64682 z"
       style="color:#000000;font-style:normal;font-variant:normal;font-weight:normal;font-stretch:normal;font-size:medium;line-height:normal;font-family:sans-serif;font-variant-ligatures:normal;font-variant-position:normal;font-variant-caps:normal;font-variant-numeric:normal;font-variant-alternates:normal;font-variant-east-asian:normal;font-feature-settings:normal;font-variation-settings:normal;text-indent:0;text-align:start;text-decoration:none;text-decoration-line:none;text-decoration-style:solid;text-decoration-color:#000000;letter-spacing:normal;word-spacing:normal;text-transform:none;writing-mode:lr-tb;direction:ltr;text-orientation:mixed;dominant-baseline:auto;baseline-shift:baseline;text-anchor:start;white-space:normal;shape-padding:0;shape-margin:0;inline-size:0;clip-rule:nonzero;display:inline;overflow:visible;visibility:visible;opacity:1;isolation:auto;mix-blend-mode:normal;color-interpolation:sRGB;color-interpolation-filters:linearRGB;solid-color:#000000;solid-opacity:1;vector-effect:none;fill:#000000;fill-opacity:1;fill-rule:nonzero;stroke:none;stroke-width:0.836927;stroke-linecap:butt;stroke-linejoin:miter;stroke-miterlimit:4;stroke-dasharray:none;stroke-dashoffset:0;stroke-opacity:1;color-rendering:auto;image-rendering:auto;shape-rendering:auto;text-rendering:auto;enable-background:accumulate;stop-color:#000000;stop-opacity:1" />
    <path
       sodipodi:nodetypes="cccscscccscscccacs"
       id="path1945"
       d="m 54.103516,166.82637 c -0.881342,-0.10874 -1.67851,0.40264 -1.916213,1.17558 -0.15191,0.55665 0.08459,1.02084 0.339791,1.45508 0.213444,0.36316 0.284061,0.84733 0.984637,1.11947 0.616497,0.23947 1.218762,0.12578 1.703125,-0.0605 0.44734,-0.17189 0.910596,-0.23676 1.103777,-0.88711 0.185046,-0.623 -0.02672,-1.17528 -0.285286,-1.61524 -0.592384,-0.90166 -0.998863,-0.82738 -1.929831,-1.18729 z m 1.425519,1.60722 c 0.23369,0.39763 0.212658,0.76976 0.135027,1.03112 -0.0695,0.23397 -0.356877,0.33885 -0.746093,0.48841 -0.352154,0.13542 -0.745174,0.17973 -1.142513,0.0254 -0.313168,-0.12166 -0.465258,-0.46703 -0.744075,-0.94141 -0.202246,-0.26882 -0.180877,-0.54514 -0.154393,-0.79883 0.118274,-0.39814 0.200322,-0.5552 0.478516,-0.66211 0.372912,-0.14327 0.769988,-0.20374 1.11914,-0.0703 0.405511,0.15498 0.905889,0.70745 1.054391,0.92772 z"
       style="color:#000000;font-style:normal;font-variant:normal;font-weight:normal;font-stretch:normal;font-size:medium;line-height:normal;font-family:sans-serif;font-variant-ligatures:normal;font-variant-position:normal;font-variant-caps:normal;font-variant-numeric:normal;font-variant-alternates:normal;font-variant-east-asian:normal;font-feature-settings:normal;font-variation-settings:normal;text-indent:0;text-align:start;text-decoration:none;text-decoration-line:none;text-decoration-style:solid;text-decoration-color:#000000;letter-spacing:normal;word-spacing:normal;text-transform:none;writing-mode:lr-tb;direction:ltr;text-orientation:mixed;dominant-baseline:auto;baseline-shift:baseline;text-anchor:start;white-space:normal;shape-padding:0;shape-margin:0;inline-size:0;clip-rule:nonzero;display:inline;overflow:visible;visibility:visible;opacity:1;isolation:auto;mix-blend-mode:normal;color-interpolation:sRGB;color-interpolation-filters:linearRGB;solid-color:#000000;solid-opacity:1;vector-effect:none;fill:#000000;fill-opacity:1;fill-rule:nonzero;stroke:none;stroke-width:0.828667;stroke-linecap:butt;stroke-linejoin:miter;stroke-miterlimit:4;stroke-dasharray:none;stroke-dashoffset:0;stroke-opacity:1;color-rendering:auto;image-rendering:auto;shape-rendering:auto;text-rendering:auto;enable-background:accumulate;stop-color:#000000;stop-opacity:1" />
    <path
       sodipodi:nodetypes="sscsssssssssssccssss"
       id="path1941"
       d="m 65.365234,141.45117 c -0.507922,-0.0704 -1.135332,-0.11766 -1.636718,0.30469 -0.52391,0.44131 -0.530157,1.11247 -0.507813,1.59961 0.02439,0.52598 0.195238,1.11887 0.660156,1.60156 0.527464,0.54761 1.218953,0.48893 1.636719,0.54688 0.243047,0.0337 0.470349,0.0683 0.722656,0.041 0.252308,-0.0273 0.515963,-0.1359 0.744141,-0.32812 0.388832,-0.32756 0.73867,-0.78377 0.710937,-1.38868 -0.02313,-0.50447 -0.14384,-1.13325 -0.625,-1.63281 -0.03364,-0.0349 -0.07997,-0.0191 -0.115234,-0.0508 -0.485691,-0.43672 -1.102241,-0.62573 -1.589844,-0.69336 z m -0.04505,0.54935 c 0.443162,0.0615 0.94656,0.21349 1.21875,0.49609 0.287935,0.29895 0.477187,0.96052 0.495897,1.36862 0.01411,0.30772 -0.273111,0.58476 -0.589516,0.8513 -0.251265,0.20049 -0.558261,0.16963 -0.8125,0.1347 -0.548363,-0.0761 -1.01406,-0.22345 -1.255662,-0.47428 -0.303691,-0.3153 -0.372997,-0.67433 -0.39069,-1.06054 -0.01952,-0.42549 0.06469,-0.90949 0.246027,-1.06224 0.203865,-0.17173 0.629452,-0.31719 1.087694,-0.25365 z"
       style="color:#000000;font-style:normal;font-variant:normal;font-weight:normal;font-stretch:normal;font-size:medium;line-height:normal;font-family:sans-serif;font-variant-ligatures:normal;font-variant-position:normal;font-variant-caps:normal;font-variant-numeric:normal;font-variant-alternates:normal;font-variant-east-asian:normal;font-feature-settings:normal;font-variation-settings:normal;text-indent:0;text-align:start;text-decoration:none;text-decoration-line:none;text-decoration-style:solid;text-decoration-color:#000000;letter-spacing:normal;word-spacing:normal;text-transform:none;writing-mode:lr-tb;direction:ltr;text-orientation:mixed;dominant-baseline:auto;baseline-shift:baseline;text-anchor:start;white-space:normal;shape-padding:0;shape-margin:0;inline-size:0;clip-rule:nonzero;display:inline;overflow:visible;visibility:visible;opacity:1;isolation:auto;mix-blend-mode:normal;color-interpolation:sRGB;color-interpolation-filters:linearRGB;solid-color:#000000;solid-opacity:1;vector-effect:none;fill:#000000;fill-opacity:1;fill-rule:nonzero;stroke:none;stroke-width:0.836927;stroke-linecap:butt;stroke-linejoin:miter;stroke-miterlimit:4;stroke-dasharray:none;stroke-dashoffset:0;stroke-opacity:1;color-rendering:auto;image-rendering:auto;shape-rendering:auto;text-rendering:auto;enable-background:accumulate;stop-color:#000000;stop-opacity:1" />
    <path
       sodipodi:nodetypes="ccccssccscsssccs"
       id="path1937"
       d="m 53.37285,153.95898 c -0.325826,0.43798 -0.517045,0.93908 -0.404297,1.43946 0.117156,0.49473 0.260208,0.87154 0.812697,1.1194 0.731218,0.23528 1.272116,0.44824 1.826172,0.24583 0.615873,-0.23466 0.923235,-0.70759 1.20534,-1.11523 0.291785,-0.42167 0.652935,-0.95973 0.501888,-1.59766 -0.157832,-0.66657 -0.649015,-0.83386 -1.093947,-1.03347 -1.360298,-0.4958 -2.0707,-0.20892 -2.847853,0.94167 z m 1.367384,-0.41601 c 0.418364,-0.12899 0.785972,-0.0606 1.138672,0.0977 0.388608,0.17434 0.671929,0.37279 0.726563,0.60352 0.06142,0.25939 -0.0766,0.54731 -0.339844,0.92774 -0.254597,0.36789 -0.582139,0.92507 -0.957096,1.04068 -0.396643,0.12231 -1.02417,-0.15077 -1.39688,-0.31803 -0.37938,-0.41743 -0.284273,-0.98689 0.04343,-1.45898 0.315042,-0.45523 0.452357,-0.78995 0.785156,-0.89258 z"
       style="color:#000000;font-style:normal;font-variant:normal;font-weight:normal;font-stretch:normal;font-size:medium;line-height:normal;font-family:sans-serif;font-variant-ligatures:normal;font-variant-position:normal;font-variant-caps:normal;font-variant-numeric:normal;font-variant-alternates:normal;font-variant-east-asian:normal;font-feature-settings:normal;font-variation-settings:normal;text-indent:0;text-align:start;text-decoration:none;text-decoration-line:none;text-decoration-style:solid;text-decoration-color:#000000;letter-spacing:normal;word-spacing:normal;text-transform:none;writing-mode:lr-tb;direction:ltr;text-orientation:mixed;dominant-baseline:auto;baseline-shift:baseline;text-anchor:start;white-space:normal;shape-padding:0;shape-margin:0;inline-size:0;clip-rule:nonzero;display:inline;overflow:visible;visibility:visible;opacity:1;isolation:auto;mix-blend-mode:normal;color-interpolation:sRGB;color-interpolation-filters:linearRGB;solid-color:#000000;solid-opacity:1;vector-effect:none;fill:#000000;fill-opacity:1;fill-rule:nonzero;stroke:none;stroke-width:0.836927;stroke-linecap:butt;stroke-linejoin:miter;stroke-miterlimit:4;stroke-dasharray:none;stroke-dashoffset:0;stroke-opacity:1;color-rendering:auto;image-rendering:auto;shape-rendering:auto;text-rendering:auto;enable-background:accumulate;stop-color:#000000;stop-opacity:1" />
    <path
       sodipodi:nodetypes="ssssssssssssssssssssss"
       id="path1933"
       d="m 80.902286,124.89215 c -0.287798,-0.0129 -0.558586,0.0651 -0.765625,0.19922 -0.207039,0.13412 -0.354924,0.29918 -0.517578,0.47461 -0.279769,0.30174 -0.829495,0.6832 -0.90625,1.42383 -0.06826,0.65863 0.144327,1.22411 0.429687,1.6543 0.264651,0.39897 0.651916,0.93095 1.31836,0.96093 0.636127,0.0286 1.080076,-0.39905 1.419922,-0.76562 0.349903,-0.3774 0.771501,-0.92081 0.84375,-1.62109 0.02539,-0.2461 0.05078,-0.49219 0.07617,-0.73829 0.05862,-0.5682 -0.365483,-0.63657 -0.548828,-0.91796 -0.32276,-0.49536 -0.864767,-0.6481 -1.349608,-0.66993 z m -0.03711,0.81446 c 0.387438,0.0174 0.53711,0.0505 0.707032,0.30664 0.22294,0.33608 0.385736,0.69712 0.341797,1.12109 -0.04179,0.40321 -0.334203,0.83043 -0.63086,1.15039 -0.306694,0.33081 -0.549024,0.51647 -0.785156,0.50586 -0.205877,-0.009 -0.443698,-0.2458 -0.675781,-0.5957 -0.211386,-0.31865 -0.344945,-0.67628 -0.298828,-1.12109 0.03759,-0.36279 0.326567,-0.55753 0.693359,-0.95313 0.160646,-0.17327 0.27712,-0.28989 0.363281,-0.3457 0.08616,-0.0558 0.136815,-0.075 0.285156,-0.0684 1.3e-5,0 -1.3e-5,4e-5 0,4e-5 z"
       style="color:#000000;font-style:normal;font-variant:normal;font-weight:normal;font-stretch:normal;font-size:medium;line-height:normal;font-family:sans-serif;font-variant-ligatures:normal;font-variant-position:normal;font-variant-caps:normal;font-variant-numeric:normal;font-variant-alternates:normal;font-variant-east-asian:normal;font-feature-settings:normal;font-variation-settings:normal;text-indent:0;text-align:start;text-decoration:none;text-decoration-line:none;text-decoration-style:solid;text-decoration-color:#000000;letter-spacing:normal;word-spacing:normal;text-transform:none;writing-mode:lr-tb;direction:ltr;text-orientation:mixed;dominant-baseline:auto;baseline-shift:baseline;text-anchor:start;white-space:normal;shape-padding:0;shape-margin:0;inline-size:0;clip-rule:nonzero;display:inline;overflow:visible;visibility:visible;opacity:1;isolation:auto;mix-blend-mode:normal;color-interpolation:sRGB;color-interpolation-filters:linearRGB;solid-color:#000000;solid-opacity:1;vector-effect:none;fill:#000000;fill-opacity:1;fill-rule:nonzero;stroke:none;stroke-width:0.814882;stroke-linecap:butt;stroke-linejoin:miter;stroke-miterlimit:4;stroke-dasharray:none;stroke-dashoffset:0;stroke-opacity:1;color-rendering:auto;image-rendering:auto;shape-rendering:auto;text-rendering:auto;enable-background:accumulate;stop-color:#000000;stop-opacity:1" />
    <path
       sodipodi:nodetypes="ssssccsssssssssssssssssssss"
       id="path1929"
       d="m 105.26953,106.87695 c -0.25818,-0.0724 -0.57116,-0.076 -0.86133,0.0586 -0.60878,0.28242 -0.8019,0.92208 -0.94922,1.41992 -0.15623,0.52794 -0.22295,1.15283 -0.0137,1.79297 0.11697,0.35781 0.3493,0.61283 0.57422,0.77734 0.53066,0.19589 0.66934,0.54859 1.19531,0.6641 0.23822,0.0658 0.52744,0.0392 0.78907,-0.082 0.43798,-0.2028 0.86899,-0.54484 1.04297,-1.13281 0.12514,-0.42291 0.0867,-0.88454 0.043,-1.5 0,0 0.0774,-0.053 0.0781,-0.0937 0.0118,-0.66626 -0.68832,-1.23588 -1.22461,-1.58008 -0.19762,-0.12683 -0.41565,-0.25182 -0.67383,-0.32422 -4e-5,-1e-5 6e-5,-1.1e-4 2e-5,-1.2e-4 z m -0.2207,0.78711 c 0.12302,0.0345 0.28097,0.11799 0.45508,0.22852 0.33388,0.21196 0.68187,0.51826 0.81445,0.92383 0.13883,0.42471 0.0727,0.88899 -0.0566,1.32617 -0.10655,0.36028 -0.25646,0.4634 -0.60156,0.62304 -0.12974,0.0602 -0.15558,0.0528 -0.22657,0.0332 -0.071,-0.0196 -0.19799,-0.0898 -0.38281,-0.20703 -0.1225,-0.0777 5.6e-4,0.002 0,0.002 -0.21823,-0.13865 -0.41312,-0.23082 -0.54883,-0.33008 -0.1357,-0.0992 -0.21711,-0.18491 -0.27734,-0.36914 -0.14511,-0.44388 -0.10485,-0.88636 0.0195,-1.30664 0.13327,-0.4504 0.3341,-0.82956 0.50781,-0.91016 0.10113,-0.0469 0.17386,-0.0482 0.29688,-0.0137 0,0 -0.16345,-0.0459 -1e-5,-10e-6 z"
       style="color:#000000;font-style:normal;font-variant:normal;font-weight:normal;font-stretch:normal;font-size:medium;line-height:normal;font-family:sans-serif;font-variant-ligatures:normal;font-variant-position:normal;font-variant-caps:normal;font-variant-numeric:normal;font-variant-alternates:normal;font-variant-east-asian:normal;font-feature-settings:normal;font-variation-settings:normal;text-indent:0;text-align:start;text-decoration:none;text-decoration-line:none;text-decoration-style:solid;text-decoration-color:#000000;letter-spacing:normal;word-spacing:normal;text-transform:none;writing-mode:lr-tb;direction:ltr;text-orientation:mixed;dominant-baseline:auto;baseline-shift:baseline;text-anchor:start;white-space:normal;shape-padding:0;shape-margin:0;inline-size:0;clip-rule:nonzero;display:inline;overflow:visible;visibility:visible;opacity:1;isolation:auto;mix-blend-mode:normal;color-interpolation:sRGB;color-interpolation-filters:linearRGB;solid-color:#000000;solid-opacity:1;vector-effect:none;fill:#000000;fill-opacity:1;fill-rule:nonzero;stroke:none;stroke-width:0.819057;stroke-linecap:butt;stroke-linejoin:miter;stroke-miterlimit:4;stroke-dasharray:none;stroke-dashoffset:0;stroke-opacity:1;color-rendering:auto;image-rendering:auto;shape-rendering:auto;text-rendering:auto;enable-background:accumulate;stop-color:#000000;stop-opacity:1" />
    <path
       sodipodi:nodetypes="sccssssssssssssssssss"
       id="path1925"
       d="m 98.515625,123.6582 c -0.507162,-0.0356 -1.075276,0.0485 -1.476563,0.50196 -0.421947,1.30971 -0.695209,1.11058 -0.6895,1.6055 -0.0013,0.7163 0.382115,1.30644 0.707032,1.72266 0.315518,0.40417 0.732734,0.87595 1.386718,0.92188 0.683296,0.048 1.153381,-0.42968 1.476563,-0.79493 0.349195,-0.39465 0.642105,-0.93851 0.644525,-1.60937 0.003,-0.76035 -0.53539,-1.20074 -0.794916,-1.5332 -0.150981,-0.19342 -0.290115,-0.37713 -0.490234,-0.53321 -0.200119,-0.15607 -0.466049,-0.26034 -0.763672,-0.28125 -2.1e-5,0 6.8e-5,-4e-5 4.7e-5,-4e-5 z m -0.05859,0.83399 c 0.162287,0.0114 0.222345,0.0402 0.308594,0.10742 0.08625,0.0673 0.194631,0.19764 0.34375,0.38867 0.340654,0.4364 0.618438,0.66538 0.617187,1.01367 -0.0016,0.43778 -0.177404,0.76906 -0.433593,1.0586 -0.282197,0.31894 -0.554491,0.53029 -0.791016,0.51367 -0.265876,-0.0187 -0.500472,-0.23689 -0.785156,-0.60156 -0.275301,-0.35266 -0.530699,-0.8127 -0.529297,-1.20508 0.0015,-0.41509 0.207773,-0.7468 0.478516,-1.05274 0.204163,-0.2307 0.378337,-0.25164 0.791015,-0.22265 z"
       style="color:#000000;font-style:normal;font-variant:normal;font-weight:normal;font-stretch:normal;font-size:medium;line-height:normal;font-family:sans-serif;font-variant-ligatures:normal;font-variant-position:normal;font-variant-caps:normal;font-variant-numeric:normal;font-variant-alternates:normal;font-variant-east-asian:normal;font-feature-settings:normal;font-variation-settings:normal;text-indent:0;text-align:start;text-decoration:none;text-decoration-line:none;text-decoration-style:solid;text-decoration-color:#000000;letter-spacing:normal;word-spacing:normal;text-transform:none;writing-mode:lr-tb;direction:ltr;text-orientation:mixed;dominant-baseline:auto;baseline-shift:baseline;text-anchor:start;white-space:normal;shape-padding:0;shape-margin:0;inline-size:0;clip-rule:nonzero;display:inline;overflow:visible;visibility:visible;opacity:1;isolation:auto;mix-blend-mode:normal;color-interpolation:sRGB;color-interpolation-filters:linearRGB;solid-color:#000000;solid-opacity:1;vector-effect:none;fill:#000000;fill-opacity:1;fill-rule:nonzero;stroke:none;stroke-width:0.836927;stroke-linecap:butt;stroke-linejoin:miter;stroke-miterlimit:4;stroke-dasharray:none;stroke-dashoffset:0;stroke-opacity:1;color-rendering:auto;image-rendering:auto;shape-rendering:auto;text-rendering:auto;enable-background:accumulate;stop-color:#000000;stop-opacity:1" />
    <path
       sodipodi:nodetypes="sscsssccscssscsssscss"
       id="path1921"
       d="m 127.01562,124.19531 c -0.51169,-0.0333 -1.14199,-0.0359 -1.61132,0.42188 -0.49038,0.47825 -0.44632,1.14861 -0.38868,1.63281 0.0623,0.52321 0.2741,1.1027 0.77344,1.55078 0.56589,0.50783 1.25298,0.39837 1.67383,0.42578 0.24485,0.016 0.473,0.0339 0.72266,-0.0117 0.24966,-0.0456 0.50515,-0.17449 0.71875,-0.38281 0.36345,-0.35481 0.67906,-0.8349 0.60742,-1.43555 -0.0589,-0.49468 -0.23052,-1.0995 -0.73047,-1.56054 -0.007,-0.006 -0.003,-0.0152 -0.01,-0.0215 -0.5331,-0.47843 -1.22896,-0.58482 -1.75586,-0.61914 z m -0.0547,0.83594 c 0.44644,0.0291 0.95993,0.14418 1.25195,0.40625 0.3089,0.27719 0.42043,0.65293 0.46875,1.05859 0.0365,0.30583 -0.0651,0.44946 -0.36133,0.73829 -0.11646,0.11358 -0.17755,0.13855 -0.28515,0.1582 -0.1076,0.0196 -0.27574,0.0138 -0.51758,-0.002 -0.55245,-0.036 -0.91072,0.0197 -1.16992,-0.21289 -0.3258,-0.29235 -0.45622,-0.64343 -0.50196,-1.02734 -0.0503,-0.42298 -0.0252,-0.76806 0.14453,-0.93359 0.19079,-0.18607 0.50904,-0.2156 0.97071,-0.18555 z"
       style="color:#000000;font-style:normal;font-variant:normal;font-weight:normal;font-stretch:normal;font-size:medium;line-height:normal;font-family:sans-serif;font-variant-ligatures:normal;font-variant-position:normal;font-variant-caps:normal;font-variant-numeric:normal;font-variant-alternates:normal;font-variant-east-asian:normal;font-feature-settings:normal;font-variation-settings:normal;text-indent:0;text-align:start;text-decoration:none;text-decoration-line:none;text-decoration-style:solid;text-decoration-color:#000000;letter-spacing:normal;word-spacing:normal;text-transform:none;writing-mode:lr-tb;direction:ltr;text-orientation:mixed;dominant-baseline:auto;baseline-shift:baseline;text-anchor:start;white-space:normal;shape-padding:0;shape-margin:0;inline-size:0;clip-rule:nonzero;display:inline;overflow:visible;visibility:visible;opacity:1;isolation:auto;mix-blend-mode:normal;color-interpolation:sRGB;color-interpolation-filters:linearRGB;solid-color:#000000;solid-opacity:1;vector-effect:none;fill:#000000;fill-opacity:1;fill-rule:nonzero;stroke:none;stroke-width:0.836927;stroke-linecap:butt;stroke-linejoin:miter;stroke-miterlimit:4;stroke-dasharray:none;stroke-dashoffset:0;stroke-opacity:1;color-rendering:auto;image-rendering:auto;shape-rendering:auto;text-rendering:auto;enable-background:accumulate;stop-color:#000000;stop-opacity:1" />
    <path
       sodipodi:nodetypes="ssssscsscscssscssssssss"
       id="path1917"
       d="m 117.14844,114.0625 c -0.57307,0.13942 -0.91274,0.58277 -1.13282,1.03711 -0.12778,0.26382 -0.17046,0.53972 -0.14062,0.78516 0.0298,0.24543 0.11207,0.45109 0.19727,0.67187 0.0728,0.18881 0.13617,0.43448 0.2539,0.69336 0.11774,0.25888 0.31046,0.54019 0.63281,0.71875 0.56418,0.31247 1.1632,0.30888 1.66211,0.1875 0.46184,-0.11235 1.08392,-0.30134 1.375,-0.90234 0.27925,-0.57654 0.0982,-1.15912 -0.0801,-1.6211 -0.18367,-0.47607 -0.48087,-1.08868 -1.08594,-1.42383 -0.0387,-0.0214 -0.0724,0.008 -0.11133,-0.01 -0.54947,-0.25618 -1.12372,-0.24538 -1.57031,-0.13672 z m 0.1914,0.79297 c 0.38717,-0.0942 0.76174,-0.11856 1.09571,0.0664 0.31351,0.17365 0.56586,0.60255 0.7207,1.0039 0.16031,0.41541 0.22828,0.71911 0.10547,0.97266 -0.11095,0.22908 -0.42841,0.36861 -0.83203,0.46679 -0.3665,0.0892 -0.72177,0.0869 -1.07617,-0.10937 -0.13692,-0.0758 -0.21004,-0.17428 -0.28711,-0.34375 -0.0771,-0.16947 -0.13604,-0.39857 -0.23243,-0.64844 -0.0841,-0.21793 -0.13739,-0.37164 -0.15039,-0.47851 -0.013,-0.10688 -0.007,-0.17888 0.0664,-0.33008 0.18198,-0.3757 0.29749,-0.52849 0.58984,-0.59961 z"
       style="color:#000000;font-style:normal;font-variant:normal;font-weight:normal;font-stretch:normal;font-size:medium;line-height:normal;font-family:sans-serif;font-variant-ligatures:normal;font-variant-position:normal;font-variant-caps:normal;font-variant-numeric:normal;font-variant-alternates:normal;font-variant-east-asian:normal;font-feature-settings:normal;font-variation-settings:normal;text-indent:0;text-align:start;text-decoration:none;text-decoration-line:none;text-decoration-style:solid;text-decoration-color:#000000;letter-spacing:normal;word-spacing:normal;text-transform:none;writing-mode:lr-tb;direction:ltr;text-orientation:mixed;dominant-baseline:auto;baseline-shift:baseline;text-anchor:start;white-space:normal;shape-padding:0;shape-margin:0;inline-size:0;clip-rule:nonzero;display:inline;overflow:visible;visibility:visible;opacity:1;isolation:auto;mix-blend-mode:normal;color-interpolation:sRGB;color-interpolation-filters:linearRGB;solid-color:#000000;solid-opacity:1;vector-effect:none;fill:#000000;fill-opacity:1;fill-rule:nonzero;stroke:none;stroke-width:0.814882;stroke-linecap:butt;stroke-linejoin:miter;stroke-miterlimit:4;stroke-dasharray:none;stroke-dashoffset:0;stroke-opacity:1;color-rendering:auto;image-rendering:auto;shape-rendering:auto;text-rendering:auto;enable-background:accumulate;stop-color:#000000;stop-opacity:1" />
    <path
       sodipodi:nodetypes="cssssssscsccsssssssssscs"
       id="path1913"
       d="m 90.564453,115.87305 c -0.743854,-0.16044 -1.324362,0.18078 -1.763672,0.33398 -0.24657,0.086 -0.467851,0.16003 -0.68164,0.29102 -0.213789,0.13098 -0.409153,0.33541 -0.525391,0.59765 -0.09621,0.21711 -0.176546,0.44624 -0.179688,0.70508 -0.0031,0.25884 0.09055,0.53623 0.273438,0.76563 0.298823,0.37479 0.759173,0.78864 1.449219,0.9375 0.708361,0.15279 1.40947,-0.0347 1.93164,-0.2168 0.510303,-0.17794 1.100202,-0.39384 1.359375,-0.97852 0.136229,-0.30744 0.0984,-0.63709 -0.002,-0.89257 -0.100352,-0.25549 -0.254801,-0.46438 -0.398437,-0.64454 -0.31342,-0.39318 -0.791176,-0.75351 -1.462891,-0.89843 z m -0.173828,0.79883 c 0.483985,0.10441 0.778167,0.33549 0.998047,0.61132 0.123064,0.15435 0.227473,0.30965 0.27539,0.43164 0.04792,0.122 0.04838,0.18338 0.01367,0.26172 -0.08281,0.18681 -0.407768,0.37283 -0.878906,0.53711 -0.45931,0.16016 -1.042816,0.28596 -1.490234,0.18945 -0.465694,-0.10046 -0.745912,-0.35229 -0.980469,-0.64648 -0.08379,-0.10509 -0.09479,-0.16034 -0.09375,-0.24609 0.001,-0.0858 0.03463,-0.21416 0.109375,-0.38282 0.05474,-0.1235 0.09843,-0.16632 0.203125,-0.23046 0.104699,-0.0641 0.28121,-0.13166 0.525391,-0.2168 0.54205,-0.18904 0.906453,-0.39744 1.318359,-0.30859 z"
       style="color:#000000;font-style:normal;font-variant:normal;font-weight:normal;font-stretch:normal;font-size:medium;line-height:normal;font-family:sans-serif;font-variant-ligatures:normal;font-variant-position:normal;font-variant-caps:normal;font-variant-numeric:normal;font-variant-alternates:normal;font-variant-east-asian:normal;font-feature-settings:normal;font-variation-settings:normal;text-indent:0;text-align:start;text-decoration:none;text-decoration-line:none;text-decoration-style:solid;text-decoration-color:#000000;letter-spacing:normal;word-spacing:normal;text-transform:none;writing-mode:lr-tb;direction:ltr;text-orientation:mixed;dominant-baseline:auto;baseline-shift:baseline;text-anchor:start;white-space:normal;shape-padding:0;shape-margin:0;inline-size:0;clip-rule:nonzero;display:inline;overflow:visible;visibility:visible;opacity:1;isolation:auto;mix-blend-mode:normal;color-interpolation:sRGB;color-interpolation-filters:linearRGB;solid-color:#000000;solid-opacity:1;vector-effect:none;fill:#000000;fill-opacity:1;fill-rule:nonzero;stroke:none;stroke-width:0.819057;stroke-linecap:butt;stroke-linejoin:miter;stroke-miterlimit:4;stroke-dasharray:none;stroke-dashoffset:0;stroke-opacity:1;color-rendering:auto;image-rendering:auto;shape-rendering:auto;text-rendering:auto;enable-background:accumulate;stop-color:#000000;stop-opacity:1" />
    <path
       sodipodi:nodetypes="cssssscccscccsscscsssssc"
       id="path1909"
       d="m 87.328125,102.6875 c -0.743844,-0.16044 -1.322378,0.18077 -1.761719,0.33398 -0.246552,0.086 -0.469808,0.16004 -0.683594,0.29102 -0.213785,0.13098 -0.407199,0.33736 -0.523437,0.59961 -0.09621,0.21711 -0.176546,0.44624 -0.179687,0.70508 -0.0031,0.25883 0.09055,0.53623 0.273437,0.76562 0.298831,0.37483 0.757252,0.78862 1.447266,0.9375 0.607567,0.0205 1.389421,-0.0493 1.933593,-0.21679 0.510282,-0.17795 1.098246,-0.39382 1.357422,-0.97852 0.136233,-0.30745 0.0984,-0.63709 -0.002,-0.89258 -0.100358,-0.25548 -0.252853,-0.46438 -0.396484,-0.64453 -0.31345,-0.39306 -0.793137,-0.75547 -1.464844,-0.90039 z m -0.171875,0.80078 c 0.483993,0.10442 0.776143,0.33356 0.996094,0.60938 0.123068,0.15436 0.227468,0.31159 0.27539,0.43359 0.04792,0.122 0.05033,0.18339 0.01563,0.26172 -0.0828,0.1868 -0.407748,0.37281 -0.878906,0.53711 -0.459296,0.16017 -1.042794,0.28596 -1.490234,0.18945 -0.465706,-0.10048 -0.74594,-0.35426 -0.980469,-0.64844 -0.08379,-0.10509 -0.09674,-0.15838 -0.0957,-0.24414 0.001,-0.0857 0.03463,-0.21415 0.109375,-0.38281 0.05474,-0.1235 0.100381,-0.16828 0.205078,-0.23242 0.104697,-0.0641 0.27926,-0.13165 0.523438,-0.2168 0.542059,-0.18904 0.908396,-0.39548 1.320312,-0.30664 z"
       style="color:#000000;font-style:normal;font-variant:normal;font-weight:normal;font-stretch:normal;font-size:medium;line-height:normal;font-family:sans-serif;font-variant-ligatures:normal;font-variant-position:normal;font-variant-caps:normal;font-variant-numeric:normal;font-variant-alternates:normal;font-variant-east-asian:normal;font-feature-settings:normal;font-variation-settings:normal;text-indent:0;text-align:start;text-decoration:none;text-decoration-line:none;text-decoration-style:solid;text-decoration-color:#000000;letter-spacing:normal;word-spacing:normal;text-transform:none;writing-mode:lr-tb;direction:ltr;text-orientation:mixed;dominant-baseline:auto;baseline-shift:baseline;text-anchor:start;white-space:normal;shape-padding:0;shape-margin:0;inline-size:0;clip-rule:nonzero;display:inline;overflow:visible;visibility:visible;opacity:1;isolation:auto;mix-blend-mode:normal;color-interpolation:sRGB;color-interpolation-filters:linearRGB;solid-color:#000000;solid-opacity:1;vector-effect:none;fill:#000000;fill-opacity:1;fill-rule:nonzero;stroke:none;stroke-width:0.819057;stroke-linecap:butt;stroke-linejoin:miter;stroke-miterlimit:4;stroke-dasharray:none;stroke-dashoffset:0;stroke-opacity:1;color-rendering:auto;image-rendering:auto;shape-rendering:auto;text-rendering:auto;enable-background:accumulate;stop-color:#000000;stop-opacity:1" />
    <path
       sodipodi:nodetypes="sssccsssssssssssssssscs"
       id="path1901"
       d="m 131.69141,137.91211 c -0.28706,0.0157 -0.57994,0.0984 -0.83985,0.31641 -0.49791,0.41763 -0.56878,1.03527 -0.5957,1.54492 -0.0277,0.52441 -0.006,1.22105 0.40234,1.79883 0.16824,0.35233 1.01274,0.75704 1.47071,0.89062 0.58408,0.12895 1.08601,-0.137 1.47461,-0.46289 0.22712,-0.19049 0.38205,-0.42907 0.45507,-0.66992 0.073,-0.24085 0.0809,-0.4689 0.0937,-0.71289 0.0222,-0.42062 0.20971,-1.08583 -0.22461,-1.69922 -0.3822,-0.53975 -0.92878,-0.80814 -1.43554,-0.91992 -0.234,-0.0516 -0.51372,-0.10167 -0.80078,-0.0859 z m 0.62304,0.89648 c 0.36842,0.0813 0.69117,0.24002 0.9375,0.58789 0.19414,0.27419 0.10127,0.62821 0.0723,1.17774 -0.0128,0.24107 -0.0262,0.40878 -0.0586,0.51562 -0.0324,0.10684 -0.0671,0.16751 -0.19335,0.27344 -0.31825,0.26689 -0.47462,0.35526 -0.76563,0.29102 -0.39009,-0.0862 -0.73958,-0.2314 -0.97266,-0.56055 -0.21986,-0.31045 -0.27352,-0.83158 -0.25,-1.27734 0.0243,-0.46056 0.0899,-0.7779 0.29883,-0.95313 0.18701,-0.15684 0.52446,-0.14453 0.93164,-0.0547 z"
       style="color:#000000;font-style:normal;font-variant:normal;font-weight:normal;font-stretch:normal;font-size:medium;line-height:normal;font-family:sans-serif;font-variant-ligatures:normal;font-variant-position:normal;font-variant-caps:normal;font-variant-numeric:normal;font-variant-alternates:normal;font-variant-east-asian:normal;font-feature-settings:normal;font-variation-settings:normal;text-indent:0;text-align:start;text-decoration:none;text-decoration-line:none;text-decoration-style:solid;text-decoration-color:#000000;letter-spacing:normal;word-spacing:normal;text-transform:none;writing-mode:lr-tb;direction:ltr;text-orientation:mixed;dominant-baseline:auto;baseline-shift:baseline;text-anchor:start;white-space:normal;shape-padding:0;shape-margin:0;inline-size:0;clip-rule:nonzero;display:inline;overflow:visible;visibility:visible;opacity:1;isolation:auto;mix-blend-mode:normal;color-interpolation:sRGB;color-interpolation-filters:linearRGB;solid-color:#000000;solid-opacity:1;vector-effect:none;fill:#000000;fill-opacity:1;fill-rule:nonzero;stroke:none;stroke-width:0.828667;stroke-linecap:butt;stroke-linejoin:miter;stroke-miterlimit:4;stroke-dasharray:none;stroke-dashoffset:0;stroke-opacity:1;color-rendering:auto;image-rendering:auto;shape-rendering:auto;text-rendering:auto;enable-background:accumulate;stop-color:#000000;stop-opacity:1" />
    <path
       sodipodi:nodetypes="cccscscsccccsscsssccccss"
       id="path1897"
       d="m 111.95705,123.14624 c -0.59422,0.13437 -1.06307,0.51594 -1.4375,0.83789 -0.39203,0.33703 -0.76436,0.73006 -0.89063,1.25391 -0.0775,0.32139 0.0907,0.66616 0.26758,0.82031 0.17689,0.15414 0.33975,0.2251 0.41602,0.27929 0.1243,0.0885 0.2727,0.19784 0.48437,0.25586 0.21168,0.058 0.44792,0.0495 0.71875,-0.0117 0.48952,-0.11057 0.96336,-0.27522 1.39063,-0.64258 0.38222,-0.3286 0.802,-0.71162 0.93554,-1.26563 0.19259,-0.49094 -0.23493,-0.96341 -0.56445,-1.25002 -0.27877,-0.19807 -0.74347,-0.4077 -1.32031,-0.27734 z m 0.1875,0.82812 c 0.34577,-0.0781 0.43139,-0.006 0.64062,0.14258 0.0941,0.0668 0.17053,0.14369 0.20508,0.20117 0.0345,0.0575 0.0439,0.0795 0.0254,0.15625 -0.0442,0.18357 -0.32508,0.52889 -0.66406,0.82032 -0.29395,0.25273 -0.59027,0.35919 -1.02344,0.45703 -0.19048,0.043 -0.26294,0.0335 -0.30664,0.0215 -0.0437,-0.012 -0.0971,-0.0417 -0.21679,-0.12695 -0.16317,-0.11594 -0.29336,-0.18478 -0.33985,-0.22266 0.0567,-0.21344 0.28565,-0.51661 0.60938,-0.79492 0.34669,-0.29811 0.74199,-0.58005 1.07031,-0.6543 z"
       style="color:#000000;font-style:normal;font-variant:normal;font-weight:normal;font-stretch:normal;font-size:medium;line-height:normal;font-family:sans-serif;font-variant-ligatures:normal;font-variant-position:normal;font-variant-caps:normal;font-variant-numeric:normal;font-variant-alternates:normal;font-variant-east-asian:normal;font-feature-settings:normal;font-variation-settings:normal;text-indent:0;text-align:start;text-decoration:none;text-decoration-line:none;text-decoration-style:solid;text-decoration-color:#000000;letter-spacing:normal;word-spacing:normal;text-transform:none;writing-mode:lr-tb;direction:ltr;text-orientation:mixed;dominant-baseline:auto;baseline-shift:baseline;text-anchor:start;white-space:normal;shape-padding:0;shape-margin:0;inline-size:0;clip-rule:nonzero;display:inline;overflow:visible;visibility:visible;opacity:1;isolation:auto;mix-blend-mode:normal;color-interpolation:sRGB;color-interpolation-filters:linearRGB;solid-color:#000000;solid-opacity:1;vector-effect:none;fill:#000000;fill-opacity:1;fill-rule:nonzero;stroke:none;stroke-width:0.85;stroke-linecap:butt;stroke-linejoin:miter;stroke-miterlimit:4;stroke-dasharray:none;stroke-dashoffset:0;stroke-opacity:1;color-rendering:auto;image-rendering:auto;shape-rendering:auto;text-rendering:auto;enable-background:accumulate;stop-color:#000000;stop-opacity:1" />
  </g>
</svg>
