<?xml version="1.0" encoding="UTF-8" standalone="no"?>
<!-- Created with Inkscape (http://www.inkscape.org/) -->

<svg
   xmlns:dc="http://purl.org/dc/elements/1.1/"
   xmlns:cc="http://creativecommons.org/ns#"
   xmlns:rdf="http://www.w3.org/1999/02/22-rdf-syntax-ns#"
   xmlns:svg="http://www.w3.org/2000/svg"
   xmlns="http://www.w3.org/2000/svg"
   xmlns:sodipodi="http://sodipodi.sourceforge.net/DTD/sodipodi-0.dtd"
   xmlns:inkscape="http://www.inkscape.org/namespaces/inkscape"
   id="svg8"
   version="1.1"
   viewBox="0 0 297 210"
   height="210mm"
   width="297mm"
   inkscape:version="0.92.1 r15371"
   sodipodi:docname="Initial_Pattern.svg">
  <sodipodi:namedview
     inkscape:window-maximized="1"
     inkscape:window-y="-8"
     inkscape:window-x="1016"
     inkscape:window-height="737"
     inkscape:window-width="1280"
     showgrid="true"
     inkscape:current-layer="layer1"
     inkscape:document-units="mm"
     inkscape:cy="496.47688"
     inkscape:cx="912.88669"
     inkscape:zoom="3.959798"
     inkscape:pageshadow="2"
     inkscape:pageopacity="0.0"
     borderopacity="1.0"
     bordercolor="#666666"
     pagecolor="#ffffff"
     id="base"
     inkscape:snap-global="true">
    <inkscape:grid
       type="xygrid"
       id="grid36"
       empspacing="25"
       dotted="false" />
  </sodipodi:namedview>
  <defs
     id="defs2" />
  <metadata
     id="metadata5">
    <rdf:RDF>
      <cc:Work
         rdf:about="">
        <dc:format>image/svg+xml</dc:format>
        <dc:type
           rdf:resource="http://purl.org/dc/dcmitype/StillImage" />
        <dc:title></dc:title>
      </cc:Work>
    </rdf:RDF>
  </metadata>
  <g
     transform="translate(0,-87)"
     id="layer1"
     inkscape:groupmode="layer"
     inkscape:label="Layer 1">
    <path
       id="path884"
       style="fill:none;stroke:#000000;stroke-width:0.2;stroke-linecap:butt;stroke-linejoin:miter;stroke-miterlimit:4;stroke-dasharray:none;stroke-opacity:1"
       d="m 13.229227,151.48032 c 7.19975,0.0262 13.22912,0.0262 26.46736,6.53322 13.23824,6.50702 20.56652,6.32664 26.46736,6.53322 5.90085,0.20656 13.22913,-0.0262 26.46737,-6.53322 13.238233,-6.50702 19.564203,-6.5332 26.467353,-6.53322 6.90314,0 13.19266,0.0262 26.43089,6.53322 13.23825,6.50702 20.56652,6.73978 26.46737,6.53322 5.90084,-0.20658 13.22913,-0.0262 26.46736,-6.53322 13.23824,-6.50702 19.26762,-6.50702 26.46736,-6.53322 l -0.0358,6.61343 h 6.61458 l -1e-5,6.61459 c -2.38125,0 -4.36434,0.008 -6.59669,0 -7.18184,0.0262 -13.21122,0.0262 -26.44946,6.53322 -13.23823,6.50702 -20.56652,6.32664 -26.46736,6.53322 -5.90085,0.20656 -13.22912,-0.0262 -26.46737,-6.53322 -13.23823,-6.50702 -19.52775,-6.53322 -26.43089,-6.53322 -6.90315,2e-5 -13.22912,0.0262 -26.467353,6.53322 -13.23824,6.50702 -20.56652,6.73978 -26.46737,6.53322 -5.90084,-0.20658 -13.22912,-0.0262 -26.46736,-6.53322 -13.23824,-6.50702 -19.26761,-6.50702 -26.46736,-6.53322 l -4e-5,-6.61459 H 6.6146067 l -1e-5,-6.61458 c 0,0 4.3805103,0.009 6.6145903,10e-4"
       inkscape:connector-curvature="0"
       sodipodi:nodetypes="cscscscscccccscscscsccccc" />
  </g>
</svg>
