<?xml version="1.0" encoding="UTF-8" standalone="no"?>
<!-- Created with Inkscape (http://www.inkscape.org/) -->

<svg
   xmlns:dc="http://purl.org/dc/elements/1.1/"
   xmlns:cc="http://creativecommons.org/ns#"
   xmlns:rdf="http://www.w3.org/1999/02/22-rdf-syntax-ns#"
   xmlns:svg="http://www.w3.org/2000/svg"
   xmlns="http://www.w3.org/2000/svg"
   xmlns:sodipodi="http://sodipodi.sourceforge.net/DTD/sodipodi-0.dtd"
   xmlns:inkscape="http://www.inkscape.org/namespaces/inkscape"
   id="svg8"
   version="1.1"
   viewBox="0 0 297 210"
   height="210mm"
   width="297mm"
   inkscape:version="0.92.1 r15371"
   sodipodi:docname="Pattern_02_notched.svg">
  <sodipodi:namedview
     inkscape:window-maximized="1"
     inkscape:window-y="-8"
     inkscape:window-x="1016"
     inkscape:window-height="737"
     inkscape:window-width="1280"
     showgrid="true"
     inkscape:current-layer="layer1"
     inkscape:document-units="mm"
     inkscape:cy="635.77617"
     inkscape:cx="438.10689"
     inkscape:zoom="0.9899495"
     inkscape:pageshadow="2"
     inkscape:pageopacity="0.0"
     borderopacity="1.0"
     bordercolor="#666666"
     pagecolor="#ffffff"
     id="base"
     inkscape:snap-global="false">
    <inkscape:grid
       type="xygrid"
       id="grid36"
       empspacing="25"
       dotted="false" />
  </sodipodi:namedview>
  <defs
     id="defs2" />
  <metadata
     id="metadata5">
    <rdf:RDF>
      <cc:Work
         rdf:about="">
        <dc:format>image/svg+xml</dc:format>
        <dc:type
           rdf:resource="http://purl.org/dc/dcmitype/StillImage" />
        <dc:title></dc:title>
      </cc:Work>
    </rdf:RDF>
  </metadata>
  <g
     transform="translate(0,-87)"
     id="layer1"
     inkscape:groupmode="layer"
     inkscape:label="Layer 1">
    <path
       id="path884"
       style="fill:none;stroke:#000000;stroke-width:0.2;stroke-linecap:butt;stroke-linejoin:miter;stroke-miterlimit:4;stroke-dasharray:none;stroke-opacity:1"
       d="m 13.229227,151.48032 c 7.19975,0.0262 13.22912,0.0262 26.46736,6.53322 8.505622,4.18079 14.571545,5.60094 19.386682,6.13681 0.03462,0.29897 0.01816,0.4302 0.03414,0.91163 4.758684,-0.0463 10.01449,-0.0106 14.080123,0.031 -0.0026,-0.4047 -0.01944,-0.4271 -0.01695,-0.75248 4.825384,-0.5414 10.907356,-2.12761 19.450735,-6.32696 13.238233,-6.50702 19.564203,-6.5332 26.467353,-6.53322 6.90314,0 13.19266,0.0262 26.43089,6.53322 8.55483,4.20497 14.64165,5.7898 19.47012,6.32913 0.008,0.17819 0.0163,0.43847 0.0116,0.67455 4.62969,0.01 10.0463,-0.023 14.07536,0.0162 -0.002,-0.37766 -0.004,-0.59331 -0.008,-0.88329 4.81492,-0.53599 10.88049,-1.95627 19.38528,-6.13665 13.23824,-6.50702 19.26762,-6.50702 26.46736,-6.53322 l -0.0358,6.61343 h 6.61458 l -0.0334,6.21369 c -3.33463,-0.008 -3.4428,-0.0127 -7.06238,0.0118 0.007,0.24866 -0.0289,0.15408 -0.009,0.39099 -6.96337,0.0279 -13.01661,0.17817 -25.94181,6.53132 -13.23823,6.50702 -20.56652,6.32664 -26.46736,6.53322 -5.90085,0.20656 -13.22912,-0.0262 -26.46737,-6.53322 -8.75477,-4.30325 -14.60415,-5.83894 -19.46814,-6.34029 -0.0366,-0.23815 -0.0216,-0.30757 -0.0386,-0.52572 -6.99368,-0.0347 -7.10782,-0.062 -13.94234,-0.0681 0.0451,0.28337 0.009,0.4089 -0.066,0.64498 -4.90851,0.48607 -10.53508,1.94006 -19.383113,6.28915 -13.238239,6.50702 -20.56652,6.73978 -26.46737,6.53322 -5.90084,-0.20658 -13.22912,-0.0262 -26.46736,-6.53322 -8.887041,-4.36827 -14.462655,-5.85415 -19.387171,-6.334 -0.0018,-0.36652 -0.01373,-0.38312 -0.03618,-0.59307 -2.021878,-0.0191 -4.962176,-0.0329 -7.044005,-0.0405 l -4e-5,-6.18028 H 6.6146067 l -1e-5,-6.61458 c 0,0 4.3805103,0.009 6.6145903,0.001"
       inkscape:connector-curvature="0"
       sodipodi:nodetypes="csccccscsccccsccccccscsccccscsccccccc" />
  </g>
</svg>
