<?xml version="1.0" encoding="UTF-8" standalone="no"?>
<!-- Created with Inkscape (http://www.inkscape.org/) -->

<svg
   xmlns:dc="http://purl.org/dc/elements/1.1/"
   xmlns:cc="http://creativecommons.org/ns#"
   xmlns:rdf="http://www.w3.org/1999/02/22-rdf-syntax-ns#"
   xmlns:svg="http://www.w3.org/2000/svg"
   xmlns="http://www.w3.org/2000/svg"
   xmlns:sodipodi="http://sodipodi.sourceforge.net/DTD/sodipodi-0.dtd"
   xmlns:inkscape="http://www.inkscape.org/namespaces/inkscape"
   id="svg8"
   version="1.1"
   viewBox="0 0 297 210"
   height="210mm"
   width="297mm"
   inkscape:version="0.92.3 (2405546, 2018-03-11)"
   sodipodi:docname="Pattern_03_single_notched.svg">
  <sodipodi:namedview
     inkscape:window-maximized="1"
     inkscape:window-y="-8"
     inkscape:window-x="1672"
     inkscape:window-height="1028"
     inkscape:window-width="1680"
     showgrid="true"
     inkscape:current-layer="layer1"
     inkscape:document-units="mm"
     inkscape:cy="313.81532"
     inkscape:cx="422.42673"
     inkscape:zoom="0.70710678"
     inkscape:pageshadow="2"
     inkscape:pageopacity="0.0"
     borderopacity="1.0"
     bordercolor="#666666"
     pagecolor="#ffffff"
     id="base"
     inkscape:snap-global="false">
    <inkscape:grid
       type="xygrid"
       id="grid36"
       empspacing="25"
       dotted="false" />
  </sodipodi:namedview>
  <defs
     id="defs2" />
  <metadata
     id="metadata5">
    <rdf:RDF>
      <cc:Work
         rdf:about="">
        <dc:format>image/svg+xml</dc:format>
        <dc:type
           rdf:resource="http://purl.org/dc/dcmitype/StillImage" />
        <dc:title></dc:title>
      </cc:Work>
    </rdf:RDF>
  </metadata>
  <g
     transform="translate(0,-87)"
     id="layer1"
     inkscape:groupmode="layer"
     inkscape:label="Layer 1">
    <path
       sodipodi:nodetypes="csccccsccccccscsccccc"
       inkscape:connector-curvature="0"
       d="m 17.551946,126.38464 c 17.801925,0.0647 32.710004,0.0647 65.442555,16.1538 21.030789,10.33727 36.113639,13.84855 48.019449,15.17354 0.004,0.29744 0,1.31248 0,1.31248 h 34.81408 c 0,0 10e-4,-0.98582 0,-1.31248 11.93114,-1.33866 26.92738,-4.79039 48.05143,-15.17354 21.67423,-10.65358 35.86033,-14.28112 47.92348,-15.51623 0.004,6.70451 0,15.91369 0,15.91369 H 296.439 l 1.9e-4,15.59302 h -34.63625 c 0,0 -0.004,0.4544 -2.6e-4,1.0553 -12.13661,1.20183 -26.04908,4.90779 -47.92637,15.66117 -32.73235,16.08903 -50.8521,16.66435 -65.44241,16.15361 -14.59026,-0.51077 -32.71,-0.0646 -65.44251,-16.15361 -21.973879,-10.8008 -35.023337,-14.47493 -47.199589,-15.66139 -0.03627,-5.59485 0,-16.8662 0,-16.8662 H 1.1614398 L 1.161,126.98528 c 0,0 10.866336,-0.58183 16.39027,-0.60228"
       style="fill:none;stroke:#000000;stroke-width:0.49451226;stroke-linecap:butt;stroke-linejoin:miter;stroke-miterlimit:4;stroke-dasharray:none;stroke-opacity:1"
       id="path4519" />
  </g>
</svg>
